<svg xmlns="http://www.w3.org/2000/svg">
<defs>
<font id="Lastica" horiz-adv-x="2000" >
  <font-face 
    font-family="Lastica"
    font-weight="400"
    font-stretch="normal"
    units-per-em="2048"
    panose-1="2 0 5 0 0 0 0 0 0 0"
    ascent="1638"
    descent="-410"
    x-height="1500"
    cap-height="1500"
    bbox="0 -200 2650 1700"
    underline-thickness="150"
    underline-position="-442"
    unicode-range="U+001D-007E"
  />
<missing-glyph horiz-adv-x="1700" 
d="M830 1499h34q360 0 606 -322q133 -201 133 -408v-43q0 -338 -309 -589q-208 -137 -417 -137h-34q-360 0 -606 322q-133 201 -133 408v43q0 338 309 589q208 137 417 137zM207 945h4q739 -4 1164 -4h125q-101 283 -314 390q-148 91 -317 91h-35q-288 0 -502 -245
q-95 -122 -125 -232zM817 1344l30 -30l34 30q6 0 35 -34q-7 0 -30 -30v-4q0 -7 30 -30q0 6 30 30h4q6 0 30 -30v-5q0 -6 -30 -30h-4l-35 30l-25 -30q30 -32 30 -38l-35 -30l-34 30l-34 -30l-30 34l30 34q-27 30 -30 30l-35 -30q-5 0 -34 35l34 30l35 -30l30 34q-7 0 -30 30
q0 5 34 34zM847 1310l-30 -34l34 -30q0 2 26 30v4q0 6 -30 30zM847 1241l-30 -34q28 -26 30 -26q6 0 30 30q0 7 -30 30zM448 1082h12l31 -8v-9l-9 -13q-24 5 -34 5q-18 -5 -18 -26q0 -19 22 -26q27 9 30 9l13 -18q-15 -11 -39 -17q-56 10 -56 52q8 51 48 51zM503 1082h22
q9 -1 9 -8v-30h30v38h30v-98h-30v34h-30v-34h-31v98zM615 1082h69v-25h-47v-13h47v-17q0 -9 -9 -9l-8 4l-9 -4l-21 4v-13h43q8 -1 8 -8v-17h-81v90q1 8 8 8zM748 1082q56 -7 56 -47l-8 -34q8 -2 8 -9t-17 -17q-11 9 -13 9q-24 -5 -34 -5q-36 0 -48 52q0 51 56 51zM821 1082
h13q9 -1 9 -8v-43q2 -26 13 -26h8q6 0 13 13v56l4 8l9 -4h4l9 4l4 -8v-52q-6 -43 -43 -43h-8q-39 0 -43 52v43q1 8 8 8zM924 1082h9l26 -4q8 4 13 4q8 -4 13 -4q8 4 12 4v-21q0 -9 -8 -9q-8 5 -17 5v-5l-9 5h-13v-13h47v-17q0 -9 -8 -9h-39v-13h13q4 0 4 4l9 -4h9q4 0 4 4
q8 -4 13 -4v-21h-22l-26 -5q-7 5 -21 5v-5q-8 5 -13 5v77zM1019 1082l30 -4v4q51 -7 51 -34q-3 -30 -21 -30l26 -34l-9 -5h-17q-3 0 -34 35h-5v-18l5 -8l-9 -4h-26v4q0 8 5 8l-5 31l5 42h-5q5 13 9 13zM1113 1078h78v-17q0 -9 -9 -9h-39v-8h43v-26h-43v-13h48v-17

<glyph glyph-name=".notdef" horiz-adv-x="1700" 
d="M830 1499h34q360 0 606 -322q133 -201 133 -408v-43q0 -338 -309 -589q-208 -137 -417 -137h-34q-360 0 -606 322q-133 201 -133 408v43q0 338 309 589q208 137 417 137zM207 945h4q739 -4 1164 -4h125q-101 283 -314 390q-148 91 -317 91h-35q-288 0 -502 -245
q-95 -122 -125 -232zM817 1344l30 -30l34 30q6 0 35 -34q-7 0 -30 -30v-4q0 -7 30 -30q0 6 30 30h4q6 0 30 -30v-5q0 -6 -30 -30h-4l-35 30l-25 -30q30 -32 30 -38l-35 -30l-34 30l-34 -30l-30 34l30 34q-27 30 -30 30l-35 -30q-5 0 -34 35l34 30l35 -30l30 34q-7 0 -30 30
q0 5 34 34zM847 1310l-30 -34l34 -30q0 2 26 30v4q0 6 -30 30zM847 1241l-30 -34q28 -26 30 -26q6 0 30 30q0 7 -30 30zM448 1082h12l31 -8v-9l-9 -13q-24 5 -34 5q-18 -5 -18 -26q0 -19 22 -26q27 9 30 9l13 -18q-15 -11 -39 -17q-56 10 -56 52q8 51 48 51zM503 1082h22
q9 -1 9 -8v-30h30v38h30v-98h-30v34h-30v-34h-31v98zM615 1082h69v-25h-47v-13h47v-17q0 -9 -9 -9l-8 4l-9 -4l-21 4v-13h43q8 -1 8 -8v-17h-81v90q1 8 8 8zM748 1082q56 -7 56 -47l-8 -34q8 -2 8 -9t-17 -17q-11 9 -13 9q-24 -5 -34 -5q-36 0 -48 52q0 51 56 51zM821 1082
h13q9 -1 9 -8v-43q2 -26 13 -26h8q6 0 13 13v56l4 8l9 -4h4l9 4l4 -8v-52q-6 -43 -43 -43h-8q-39 0 -43 52v43q1 8 8 8zM924 1082h9l26 -4q8 4 13 4q8 -4 13 -4q8 4 12 4v-21q0 -9 -8 -9q-8 5 -17 5v-5l-9 5h-13v-13h47v-17q0 -9 -8 -9h-39v-13h13q4 0 4 4l9 -4h9q4 0 4 4
q8 -4 13 -4v-21h-22l-26 -5q-7 5 -21 5v-5q-8 5 -13 5v77zM1019 1082l30 -4v4q51 -7 51 -34q-3 -30 -21 -30l26 -34l-9 -5h-17q-3 0 -34 35h-5v-18l5 -8l-9 -4h-26v4q0 8 5 8l-5 31l5 42h-5q5 13 9 13zM1113 1078h78v-17q0 -9 -9 -9h-39v-8h43v-26h-43v-13h48v-17
q0 -9 -9 -9h-60q-9 0 -9 9v90zM1204 1078h51q39 0 43 -51q0 -45 -69 -48h-17q-8 0 -8 9v90zM722 1027q6 -22 31 -22q21 6 21 30q-8 20 -17 22h-17q-18 -7 -18 -30zM1040 1057v-22h22q8 0 8 9v4q0 9 -8 9h-22zM1234 1052v-47h4q23 0 30 17v17q0 7 -13 13h-21zM327 730v-8
q15 -73 69 -73h43q21 11 21 34v17q-17 0 -17 22q0 43 82 43q0 5 17 8v-4q-80 -266 -103 -271h-9q-9 0 -12 22q0 7 21 47q-22 39 -56 39h-13q-68 -10 -68 -69v-9q0 -62 77 -90q22 -4 43 -4h17q135 0 176 184q26 58 90 245q-21 13 -56 13h-25q-34 0 -65 -38q-55 -25 -167 -39
q-65 -23 -65 -69zM959 494l-5 9v12q0 20 35 146q-11 43 -47 43h-31q-18 0 -68 -21v9l4 8q-17 9 -47 9h-43q-38 0 -52 -48q-68 -212 -68 -223q26 -13 73 -13q64 0 64 65q44 141 60 141q13 0 13 5q17 -7 17 -13q-38 -100 -38 -133v-9q0 -42 60 -51q43 0 116 38l-9 -26
q17 -17 60 -17q73 0 73 35q24 171 82 171h13q8 -1 8 -8v-5q0 -28 -56 -55l-4 -22q0 -111 90 -111q94 0 155 115l-17 13h-9q-37 -64 -86 -64h-8q-26 11 -26 39v17l60 38q22 40 22 61v8q0 44 -65 52q-17 0 -90 -26q0 4 -4 4q64 166 64 172q-20 13 -64 13h-39q-32 0 -43 -73
q-11 -13 -86 -254q-48 -51 -64 -51zM327 335v-4q218 -254 511 -254h35q269 0 481 219q26 30 26 35q-540 4 -804 4h-249zM658 262h43v-9h-34v-21h34v-9h-34v-17h30q8 -1 8 -8h-47v64zM727 262h21q6 0 13 -13h-4l-26 4q-9 -1 -9 -8v-9q43 -4 43 -21q-6 -22 -30 -22
q-25 9 -25 17l8 5q0 -10 22 -13l17 8q0 13 -43 22v17q0 6 13 13zM765 262h52v-9h-21v-55h-9v55h-22v9zM873 262q13 0 26 -17q0 -21 -43 -26l-5 -9q2 -8 9 -8h34v-9h-30l-21 5v4q0 30 30 30h13q0 5 4 13l-13 8h-13l-17 -12v8q4 13 26 13zM933 262h4q7 0 17 -17v-35
q-7 -17 -30 -17q-21 6 -21 30v9q0 30 30 30zM985 262v-60h12q0 -9 -8 -9h-22v9h9v47h-9v9q10 0 18 4zM1006 262h39q8 -1 8 -9h-38v-17h25q9 -2 18 -21q-6 -22 -31 -22q-21 3 -21 13v9l17 -13h13q6 0 13 13q0 6 -13 13h-30v34zM911 241v-26q0 -6 13 -13h9q6 0 13 13v26
q0 6 -13 12h-9q-6 0 -13 -12z" />
    <glyph glyph-name=".null" horiz-adv-x="0" 
 />
    <glyph glyph-name=".null" horiz-adv-x="0" 
 />
    <glyph glyph-name="nonmarkingreturn" horiz-adv-x="508" 
 />
    <glyph glyph-name="space" unicode=" " horiz-adv-x="508" 
 />
    <glyph glyph-name="space" unicode="&#xa0;" horiz-adv-x="508" 
 />
    <glyph glyph-name="exclam" unicode="!" horiz-adv-x="300" 
d="M200 100v-100h-100v100h100zM100 400v1100h100v-1100h-100z" />
    <glyph glyph-name="quotedbl" unicode="&#x22;" horiz-adv-x="500" 
d="M200 1200h-100v300h100v-300zM400 1200h-100v300h100v-300z" />
    <glyph glyph-name="numbersign" unicode="#" 
d="M500 1200h1000v300h100v-300h300v-100h-300v-700h300v-100h-300v-300h-100v300h-1000v-300h-100v300h-300v100h300v700h-300v100h300v300h100v-300zM1500 1100h-1000v-700h1000v700z" />
    <glyph glyph-name="dollar" unicode="$" 
d="M500 1400q-300 0 -300 -300t300 -300h450v600h-450zM500 0q-400 0 -400 400h100q0 -300 300 -300h450v600h-450q-400 0 -400 400t400 400h450v200h100v-200h450q400 0 400 -400h-100q0 300 -300 300h-450v-600h450q400 0 400 -400t-400 -400h-450v-200h-100v200h-450z
M1500 100q300 0 300 300t-300 300h-450v-600h450z" />
    <glyph glyph-name="percent" unicode="%" 
d="M13 0l1817 1500h157l-1817 -1500h-157zM300 1100q-83 0 -141.5 58.5t-58.5 141.5t58.5 141.5t141.5 58.5t141.5 -58.5t58.5 -141.5t-58.5 -141.5t-141.5 -58.5zM300 1200q41 0 70.5 29.5t29.5 70.5t-29.5 70.5t-70.5 29.5t-70.5 -29.5t-29.5 -70.5t29.5 -70.5t70.5 -29.5
zM1700 0q-83 0 -141.5 58.5t-58.5 141.5t58.5 141.5t141.5 58.5t141.5 -58.5t58.5 -141.5t-58.5 -141.5t-141.5 -58.5zM1700 100q41 0 70.5 29.5t29.5 70.5t-29.5 70.5t-70.5 29.5t-70.5 -29.5t-29.5 -70.5t29.5 -70.5t70.5 -29.5z" />
    <glyph glyph-name="ampersand" unicode="&#x26;" horiz-adv-x="2300" 
d="M1800 400v300h-1300q-300 0 -300 -300t300 -300h1000q300 0 300 300zM1900 400q0 -300 300 -300v-100q-259 0 -350 167q-91 -167 -350 -167h-1000q-400 0 -400 400q0 259 167 350q-167 91 -167 350q0 400 400 400h1000q400 0 400 -400h-100q0 300 -300 300h-1000
q-300 0 -300 -300t300 -300h1300v100h100v-100h300v-100h-300v-300z" />
    <glyph glyph-name="quotesingle" unicode="'" horiz-adv-x="300" 
d="M200 1200h-100v300h100v-300z" />
    <glyph glyph-name="parenleft" unicode="(" horiz-adv-x="700" 
d="M500 0h100v-100h-100q-400 0 -400 400v900q0 400 400 400h100v-100h-100q-300 0 -300 -300v-900q0 -300 300 -300z" />
    <glyph glyph-name="parenright" unicode=")" horiz-adv-x="700" 
d="M200 1500h-100v100h100q400 0 400 -400v-900q0 -400 -400 -400h-100v100h100q300 0 300 300v900q0 300 -300 300z" />
    <glyph glyph-name="asterisk" unicode="*" horiz-adv-x="1000" 
d="M450 1136v364h100v-364l315 182l50 -86l-315 -182l315 -182l-50 -86l-315 182v-364h-100v364l-315 -182l-50 86l315 182l-315 182l50 86z" />
    <glyph glyph-name="plus" unicode="+" horiz-adv-x="1300" 
d="M600 700h-500v100h500v500h100v-500h500v-100h-500v-500h-100v500z" />
    <glyph glyph-name="comma" unicode="," horiz-adv-x="300" 
d="M200 -200h-100v300h100v-300z" />
    <glyph glyph-name="hyphen" unicode="-" horiz-adv-x="1300" 
d="M100 700v100h1100v-100h-1100z" />
    <glyph glyph-name="hyphen" unicode="&#xad;" horiz-adv-x="1300" 
d="M100 700v100h1100v-100h-1100z" />
    <glyph glyph-name="period" unicode="." horiz-adv-x="300" 
d="M200 0h-100v100h100v-100z" />
    <glyph glyph-name="slash" unicode="/" 
d="M13 0l1817 1500h157l-1817 -1500h-157z" />
    <glyph glyph-name="zero" unicode="0" 
d="M500 0q-400 0 -400 400v700q0 400 400 400h1000q400 0 400 -400v-700q0 -400 -400 -400h-1000zM200 400q0 -300 300 -300h1000q300 0 300 300v700q0 300 -300 300h-1000q-300 0 -300 -300v-700z" />
    <glyph glyph-name="one" unicode="1" horiz-adv-x="500" 
d="M400 0h-100v1400h-200v100h300v-1500z" />
    <glyph glyph-name="two" unicode="2" 
d="M1900 100v-100h-1800v400q0 400 400 400h1000q300 0 300 300t-300 300h-1000q-300 0 -300 -300h-100q0 400 400 400h1000q400 0 400 -400t-400 -400h-1000q-300 0 -300 -300v-300h1700z" />
    <glyph glyph-name="three" unicode="3" 
d="M500 0q-400 0 -400 400h100q0 -300 300 -300h1000q300 0 300 300t-300 300h-1000v100h1000q300 0 300 300t-300 300h-1000q-300 0 -300 -300h-100q0 400 400 400h1000q400 0 400 -400q0 -259 -167 -350q167 -91 167 -350q0 -400 -400 -400h-1000z" />
    <glyph glyph-name="four" unicode="4" 
d="M1700 400h200v-100h-200v-300h-100v300h-1100q-400 0 -400 400v800h100v-800q0 -300 300 -300h1100v1100h100v-1100z" />
    <glyph glyph-name="five" unicode="5" 
d="M1900 1500v-100h-1700v-300q0 -300 300 -300h1000q400 0 400 -400t-400 -400h-1000q-400 0 -400 400h100q0 -300 300 -300h1000q300 0 300 300t-300 300h-1000q-400 0 -400 400v400h1800z" />
    <glyph glyph-name="six" unicode="6" 
d="M500 0q-400 0 -400 400v700q0 400 400 400h1000q400 0 400 -400h-100q0 300 -300 300h-1000q-300 0 -300 -300v-400q100 100 300 100h1000q400 0 400 -400t-400 -400h-1000zM200 400q0 -300 300 -300h1000q300 0 300 300t-300 300h-1000q-300 0 -300 -300z" />
    <glyph glyph-name="seven" unicode="7" 
d="M1708 1400h-1608v100h1900l-1830 -1500h-170z" />
    <glyph glyph-name="eight" unicode="8" 
d="M500 0q-400 0 -400 400q0 259 167 350q-167 91 -167 350q0 400 400 400h1000q400 0 400 -400q0 -259 -167 -350q167 -91 167 -350q0 -400 -400 -400h-1000zM1800 1100q0 300 -300 300h-1000q-300 0 -300 -300t300 -300h1000q300 0 300 300zM200 400q0 -300 300 -300h1000
q300 0 300 300t-300 300h-1000q-300 0 -300 -300z" />
    <glyph glyph-name="nine" unicode="9" 
d="M1500 1500q400 0 400 -400v-700q0 -400 -400 -400h-1000q-400 0 -400 400h100q0 -300 300 -300h1000q300 0 300 300v300h-1300q-400 0 -400 400t400 400h1000zM1800 1100q0 300 -300 300h-1000q-300 0 -300 -300t300 -300h1300v300z" />
    <glyph glyph-name="colon" unicode=":" horiz-adv-x="300" 
d="M200 0h-100v100h100v-100zM200 924h-100v100h100v-100z" />
    <glyph glyph-name="semicolon" unicode=";" horiz-adv-x="300" 
d="M200 -200h-100v300h100v-300zM200 924h-100v100h100v-100z" />
    <glyph glyph-name="semicolon" unicode="&#x37e;" horiz-adv-x="300" 
d="M200 -200h-100v300h100v-300zM200 924h-100v100h100v-100z" />
    <glyph glyph-name="less" unicode="&#x3c;" horiz-adv-x="700" 
d="M500 0h100v-100h-100q-400 0 -400 400v900q0 400 400 400h100v-100h-100q-300 0 -300 -300v-900q0 -300 300 -300z" />
    <glyph glyph-name="equal" unicode="=" horiz-adv-x="1300" 
d="M100 900v100h1100v-100h-1100zM100 500v100h1100v-100h-1100z" />
    <glyph glyph-name="greater" unicode="&#x3e;" horiz-adv-x="700" 
d="M200 1500h-100v100h100q400 0 400 -400v-900q0 -400 -400 -400h-100v100h100q300 0 300 300v900q0 300 -300 300z" />
    <glyph glyph-name="question" unicode="?" 
d="M500 1400q-300 0 -300 -300h-100q0 400 400 400h1000q400 0 400 -400t-400 -400h-700v-300h-100v400h800q300 0 300 300t-300 300h-1000zM800 100v-100h-100v100h100z" />
    <glyph glyph-name="at" unicode="@" horiz-adv-x="1600" 
d="M1000 400v300h-400v-300h400zM500 100h600v-100h-600q-400 0 -400 400v300q0 400 400 400h600q400 0 400 -400v-400h-1000v500h600v-400h300v300q0 300 -300 300h-600q-300 0 -300 -300v-300q0 -300 300 -300z" />
    <glyph glyph-name="A" unicode="A" 
d="M1522 500l-522 838l-522 -838h1044zM1584 400h-1168l-249 -400h-117l950 1525l950 -1525h-117z" />
    <glyph glyph-name="B" unicode="B" 
d="M1500 100q300 0 300 300t-300 300h-1300v-600h1300zM1800 1100q0 300 -300 300h-1300v-600h1300q300 0 300 300zM1900 400q0 -400 -400 -400h-1400v1500h1400q400 0 400 -400q0 -259 -167 -350q167 -91 167 -350z" />
    <glyph glyph-name="C" unicode="C" 
d="M1500 100q300 0 300 300h100q0 -400 -400 -400h-1000q-400 0 -400 400v700q0 400 400 400h1000q400 0 400 -400h-100q0 300 -300 300h-1000q-300 0 -300 -300v-700q0 -300 300 -300h1000z" />
    <glyph glyph-name="D" unicode="D" 
d="M1500 100q300 0 300 300v700q0 300 -300 300h-1300v-1300h1300zM1900 400q0 -400 -400 -400h-1400v1500h1400q400 0 400 -400v-700z" />
    <glyph glyph-name="E" unicode="E" 
d="M200 100h1700v-100h-1800v1500h1800v-100h-1700v-600h1600v-100h-1600v-600z" />
    <glyph glyph-name="F" unicode="F" 
d="M1900 1500v-100h-1700v-600h1600v-100h-1600v-700h-100v1500h1800z" />
    <glyph glyph-name="G" unicode="G" 
d="M1500 1500q400 0 400 -400h-100q0 300 -300 300h-1000q-300 0 -300 -300v-700q0 -300 300 -300h1000q300 0 300 300v300h-900v100h1000v-400q0 -400 -400 -400h-1000q-400 0 -400 400v700q0 400 400 400h1000z" />
    <glyph glyph-name="H" unicode="H" 
d="M200 700v-700h-100v1500h100v-700h1600v700h100v-1500h-100v700h-1600z" />
    <glyph glyph-name="I" unicode="I" horiz-adv-x="300" 
d="M200 0h-100v1500h100v-1500z" />
    <glyph glyph-name="J" unicode="J" 
d="M500 0q-400 0 -400 400h100q0 -300 300 -300h1000q300 0 300 300v1100h100v-1100q0 -400 -400 -400h-1000z" />
    <glyph glyph-name="K" unicode="K" 
d="M200 700v-700h-100v1500h100v-700h782l848 700h157l-908 -750l908 -750h-157l-848 700h-782z" />
    <glyph glyph-name="L" unicode="L" 
d="M200 100h1700v-100h-1800v1500h100v-1400z" />
    <glyph glyph-name="M" unicode="M" 
d="M200 1335v-1335h-100v1544l900 -730l900 730v-1544h-100v1335l-800 -649z" />
    <glyph glyph-name="N" unicode="N" 
d="M200 1335v-1335h-100v1544l1700 -1379v1335h100v-1544z" />
    <glyph glyph-name="O" unicode="O" 
d="M500 0q-400 0 -400 400v700q0 400 400 400h1000q400 0 400 -400v-700q0 -400 -400 -400h-1000zM200 400q0 -300 300 -300h1000q300 0 300 300v700q0 300 -300 300h-1000q-300 0 -300 -300v-700z" />
    <glyph glyph-name="P" unicode="P" 
d="M1500 1500q400 0 400 -400t-400 -400h-1300v-700h-100v1500h1400zM1800 1100q0 300 -300 300h-1300v-600h1300q300 0 300 300z" />
    <glyph glyph-name="Q" unicode="Q" 
d="M200 400q0 -300 300 -300h929l-89 89l71 71l156 -156q233 31 233 296v700q0 300 -300 300h-1000q-300 0 -300 -300v-700zM500 0q-400 0 -400 400v700q0 400 400 400h1000q400 0 400 -400v-700q0 -314 -247 -382l111 -111l-71 -71l-165 165q-14 -1 -28 -1h-1000z" />
    <glyph glyph-name="R" unicode="R" 
d="M1500 1500q400 0 400 -400q0 -259 -167 -350q167 -91 167 -350v-400h-100v400q0 300 -300 300h-1300v-700h-100v1500h1400zM1800 1100q0 300 -300 300h-1300v-600h1300q300 0 300 300z" />
    <glyph glyph-name="S" unicode="S" 
d="M500 0q-400 0 -400 400h100q0 -300 300 -300h1000q300 0 300 300t-300 300h-1000q-400 0 -400 400t400 400h1000q400 0 400 -400h-100q0 300 -300 300h-1000q-300 0 -300 -300t300 -300h1000q400 0 400 -400t-400 -400h-1000z" />
    <glyph glyph-name="T" unicode="T" 
d="M1900 1500v-100h-850v-1400h-100v1400h-850v100h1800z" />
    <glyph glyph-name="U" unicode="U" 
d="M1800 400v1100h100v-1100q0 -400 -400 -400h-1000q-400 0 -400 400v1100h100v-1100q0 -300 300 -300h1000q300 0 300 300z" />
    <glyph glyph-name="V" unicode="V" 
d="M1000 -25l-950 1525h117l833 -1338l833 1338h117z" />
    <glyph glyph-name="W" unicode="W" horiz-adv-x="2700" 
d="M1350 537l-350 -562l-950 1525h117l833 -1338l292 468l-542 870h117l483 -776l483 776h117l-542 -870l292 -468l833 1338h117l-950 -1525z" />
    <glyph glyph-name="X" unicode="X" 
d="M1000 685l-830 -685h-157l909 750l-909 750h157l830 -685l830 685h157l-908 -750l908 -750h-157z" />
    <glyph glyph-name="Y" unicode="Y" 
d="M950 726l-937 774h157l830 -685l830 685h157l-937 -774v-726h-100v726z" />
    <glyph glyph-name="Z" unicode="Z" 
d="M292 100h1608v-100h-1900l1708 1400h-1608v100h1900z" />
    <glyph glyph-name="bracketleft" unicode="[" horiz-adv-x="700" 
d="M600 0v-100h-500v1700h500v-100h-400v-1500h400z" />
    <glyph glyph-name="backslash" unicode="\" 
d="M1830 0l-1817 1500h157l1817 -1500h-157z" />
    <glyph glyph-name="bracketright" unicode="]" horiz-adv-x="700" 
d="M100 0h400v1500h-400v100h500v-1700h-500v100z" />
    <glyph glyph-name="asciicircum" unicode="^" horiz-adv-x="300" 
d="M200 1200h-100v300h100v-300z" />
    <glyph glyph-name="underscore" unicode="_" 
d="M1900 0h-1800v100h1800v-100z" />
    <glyph glyph-name="grave" unicode="`" horiz-adv-x="300" 
d="M200 1200h-100v300h100v-300z" />
    <glyph glyph-name="a" unicode="a" 
d="M1522 500l-522 838l-522 -838h1044zM1584 400h-1168l-249 -400h-117l950 1525l950 -1525h-117z" />
    <glyph glyph-name="b" unicode="b" 
d="M1500 100q300 0 300 300t-300 300h-1300v-600h1300zM1800 1100q0 300 -300 300h-1300v-600h1300q300 0 300 300zM1900 400q0 -400 -400 -400h-1400v1500h1400q400 0 400 -400q0 -259 -167 -350q167 -91 167 -350z" />
    <glyph glyph-name="c" unicode="c" 
d="M1500 100q300 0 300 300h100q0 -400 -400 -400h-1000q-400 0 -400 400v700q0 400 400 400h1000q400 0 400 -400h-100q0 300 -300 300h-1000q-300 0 -300 -300v-700q0 -300 300 -300h1000z" />
    <glyph glyph-name="d" unicode="d" 
d="M1500 100q300 0 300 300v700q0 300 -300 300h-1300v-1300h1300zM1900 400q0 -400 -400 -400h-1400v1500h1400q400 0 400 -400v-700z" />
    <glyph glyph-name="e" unicode="e" 
d="M200 100h1700v-100h-1800v1500h1800v-100h-1700v-600h1600v-100h-1600v-600z" />
    <glyph glyph-name="f" unicode="f" 
d="M1900 1500v-100h-1700v-600h1600v-100h-1600v-700h-100v1500h1800z" />
    <glyph glyph-name="g" unicode="g" 
d="M1500 1500q400 0 400 -400h-100q0 300 -300 300h-1000q-300 0 -300 -300v-700q0 -300 300 -300h1000q300 0 300 300v300h-900v100h1000v-400q0 -400 -400 -400h-1000q-400 0 -400 400v700q0 400 400 400h1000z" />
    <glyph glyph-name="h" unicode="h" 
d="M200 700v-700h-100v1500h100v-700h1600v700h100v-1500h-100v700h-1600z" />
    <glyph glyph-name="i" unicode="i" horiz-adv-x="300" 
d="M200 0h-100v1500h100v-1500z" />
    <glyph glyph-name="j" unicode="j" 
d="M500 0q-400 0 -400 400h100q0 -300 300 -300h1000q300 0 300 300v1100h100v-1100q0 -400 -400 -400h-1000z" />
    <glyph glyph-name="k" unicode="k" 
d="M200 700v-700h-100v1500h100v-700h782l848 700h157l-908 -750l908 -750h-157l-848 700h-782z" />
    <glyph glyph-name="l" unicode="l" 
d="M200 100h1700v-100h-1800v1500h100v-1400z" />
    <glyph glyph-name="m" unicode="m" 
d="M200 1335v-1335h-100v1544l900 -730l900 730v-1544h-100v1335l-800 -649z" />
    <glyph glyph-name="n" unicode="n" 
d="M200 1335v-1335h-100v1544l1700 -1379v1335h100v-1544z" />
    <glyph glyph-name="o" unicode="o" 
d="M500 0q-400 0 -400 400v700q0 400 400 400h1000q400 0 400 -400v-700q0 -400 -400 -400h-1000zM200 400q0 -300 300 -300h1000q300 0 300 300v700q0 300 -300 300h-1000q-300 0 -300 -300v-700z" />
    <glyph glyph-name="p" unicode="p" 
d="M1500 1500q400 0 400 -400t-400 -400h-1300v-700h-100v1500h1400zM1800 1100q0 300 -300 300h-1300v-600h1300q300 0 300 300z" />
    <glyph glyph-name="q" unicode="q" 
d="M200 400q0 -300 300 -300h929l-89 89l71 71l156 -156q233 31 233 296v700q0 300 -300 300h-1000q-300 0 -300 -300v-700zM500 0q-400 0 -400 400v700q0 400 400 400h1000q400 0 400 -400v-700q0 -314 -247 -382l111 -111l-71 -71l-165 165q-14 -1 -28 -1h-1000z" />
    <glyph glyph-name="r" unicode="r" 
d="M1500 1500q400 0 400 -400q0 -259 -167 -350q167 -91 167 -350v-400h-100v400q0 300 -300 300h-1300v-700h-100v1500h1400zM1800 1100q0 300 -300 300h-1300v-600h1300q300 0 300 300z" />
    <glyph glyph-name="s" unicode="s" 
d="M500 0q-400 0 -400 400h100q0 -300 300 -300h1000q300 0 300 300t-300 300h-1000q-400 0 -400 400t400 400h1000q400 0 400 -400h-100q0 300 -300 300h-1000q-300 0 -300 -300t300 -300h1000q400 0 400 -400t-400 -400h-1000z" />
    <glyph glyph-name="t" unicode="t" 
d="M1900 1500v-100h-850v-1400h-100v1400h-850v100h1800z" />
    <glyph glyph-name="u" unicode="u" 
d="M1800 400v1100h100v-1100q0 -400 -400 -400h-1000q-400 0 -400 400v1100h100v-1100q0 -300 300 -300h1000q300 0 300 300z" />
    <glyph glyph-name="v" unicode="v" 
d="M1000 -25l-950 1525h117l833 -1338l833 1338h117z" />
    <glyph glyph-name="w" unicode="w" horiz-adv-x="2700" 
d="M1350 537l-350 -562l-950 1525h117l833 -1338l292 468l-542 870h117l483 -776l483 776h117l-542 -870l292 -468l833 1338h117l-950 -1525z" />
    <glyph glyph-name="x" unicode="x" 
d="M1000 685l-830 -685h-157l909 750l-909 750h157l830 -685l830 685h157l-908 -750l908 -750h-157z" />
    <glyph glyph-name="y" unicode="y" 
d="M950 726l-937 774h157l830 -685l830 685h157l-937 -774v-726h-100v726z" />
    <glyph glyph-name="z" unicode="z" 
d="M292 100h1608v-100h-1900l1708 1400h-1608v100h1900z" />
    <glyph glyph-name="braceleft" unicode="{" horiz-adv-x="900" 
d="M500 300q0 -300 300 -300v-100q-400 0 -400 400v100q0 300 -300 300v100q300 0 300 300v100q0 400 400 400v-100q-300 0 -300 -300v-100q0 -259 -167 -350q167 -91 167 -350v-100z" />
    <glyph glyph-name="bar" unicode="|" horiz-adv-x="300" 
d="M200 -100h-100v1700h100v-1700z" />
    <glyph glyph-name="braceright" unicode="}" horiz-adv-x="900" 
d="M500 300q0 -400 -400 -400v100q300 0 300 300v100q0 259 167 350q-167 91 -167 350v100q0 300 -300 300v100q400 0 400 -400v-100q0 -300 300 -300v-100q-300 0 -300 -300v-100z" />
    <glyph glyph-name="asciitilde" unicode="~" horiz-adv-x="1300" 
d="M100 700v100h1100v-100h-1100z" />
    </font>
</defs>
</svg>
