<?xml version="1.0" standalone="no"?>
<!DOCTYPE svg PUBLIC "-//W3C//DTD SVG 1.1//EN" "http://www.w3.org/Graphics/SVG/1.1/DTD/svg11.dtd" >
<svg xmlns="http://www.w3.org/2000/svg" xmlns:xlink="http://www.w3.org/1999/xlink" version="1.1">
<metadata>
Created by FontForge 20170731 at Wed Aug 19 19:14:55 2020
 By Aleksey,,,
Copyright 2015 Joanne Hewitt. All rights reserved. 
</metadata>
<defs>
<font id="featherly" horiz-adv-x="250" >
  <font-face 
    font-family="Featherly Script"
    font-weight="400"
    font-stretch="normal"
    units-per-em="1000"
    panose-1="0 0 0 0 0 0 0 0 0 0"
    ascent="800"
    descent="-200"
    x-height="158"
    cap-height="567"
    bbox="-378.625 -661 984.333 851"
    underline-thickness="50"
    underline-position="-200"
    unicode-range="U+000D-E133"
  />
<missing-glyph horiz-adv-x="271" 
 />
    <glyph glyph-name="tt" unicode="tt" horiz-adv-x="773" 
d="M-159 285q-4 5 2 9q64 40 182 62q3 12 10 35t8 27q18 47 26 64q22 43 41 58q1 1 5 1t5 -2q4 -7 -1 -10l-1 -1q-16 -13 -34 -53q-8 -17 -23 -63q-2 -7 -6.5 -24.5t-6.5 -27.5q34 6 319 20q36 2 53 2q2 6 5.5 18t5.5 18q18 47 26 64q22 43 41 58q1 1 5 1t5 -2q4 -7 -1 -10
l-1 -1q-16 -13 -34 -53q-8 -17 -23 -63q-1 -5 -3.5 -14.5t-3.5 -14.5h37q12 0 35.5 -0.5t34.5 -0.5q112 0 152 28q13 7 34 33q2 2 4 2t4 -2q4 -4 1 -8q-20 -28 -34 -38q-45 -32 -146 -34q-11 -1 -33 -1q-11 0 -33 0.5t-33 0.5h-28q0 -2 -1 -3l-4 -18q-22 -117 -22 -195
q0 -100 4 -134q8 -85 61 -103q4 -2 7 -2q4 -2 8 -2h15q99 10 268 243q3 3 6 1q2 -4 0 -6q-137 -197 -238 -243q-22 -8 -35 -10h-19q-2 1 -4.5 1t-3.5 1q-41 10 -60.5 39.5t-28.5 76.5q-7 41 -9 121q-124 -175 -218 -224q-1 -1 -4.5 -2.5t-5.5 -2.5q-22 -8 -35 -10h-19
q-1 1 -4 1t-4 1q-45 11 -66 48q-32 53 -32 206q1 82 27 190q-114 -21 -170 -54q-1 -1 -3 -1q-5 0 -6 3zM22 147q0 -100 4 -134q12 -86 61 -103q4 -2 7 -2q4 -2 8 -2h15q97 9 264 237q0 79 27 194l5 19q0 2 2 6q-17 0 -47 -2q-5 0 -89.5 -3.5t-146 -7t-88.5 -7.5
q-22 -117 -22 -195z" />
    <glyph glyph-name=".notdef" horiz-adv-x="271" 
 />
    <glyph glyph-name="uni0000" horiz-adv-x="0" 
 />
    <glyph glyph-name="uni0000" horiz-adv-x="0" 
 />
    <glyph glyph-name="uni000D" unicode="&#xd;" 
 />
    <glyph glyph-name="space" unicode=" " horiz-adv-x="271" 
 />
    <glyph glyph-name="exclam" unicode="!" horiz-adv-x="121" 
d="M77 -48q23 0 28 -17q3 -14 -14 -14q-21 0 -26 17q-3 14 12 14zM119 508q2 -53 -9 -220q-2 -39 -6 -123.5t-6 -137.5l-20 5q9 260 9 263q1 18 2.5 55.5t2.5 58.5t4.5 50.5t8.5 53.5z" />
    <glyph glyph-name="quotedbl" unicode="&#x22;" horiz-adv-x="502" 
d="M41 609q23 0 23 -18q1 -17 -19.5 -39.5t-36.5 -25.5l-2 9q12 1 28.5 17t21.5 30q-6 -3 -14 -3q-9 0 -16 4.5t-7 10.5q0 15 22 15zM113 586q23 0 23 -19q1 -16 -19.5 -38.5t-37.5 -25.5l-1 8q12 2 28 17.5t22 30.5q-4 -3 -14 -3q-9 0 -16.5 4.5t-7.5 10.5t7 10.5t16 4.5z
" />
    <glyph glyph-name="numbersign" unicode="#" horiz-adv-x="625" 
d="M88 241q0 10 10 10l91 3v104q0 11 10 11q11 0 11 -11l1 -104l78 2v102q0 11 10 11q11 0 11 -11l1 -101l86 2q10 0 10 -10t-10 -10l-86 -2v-80l86 2q10 0 10 -10t-10 -10l-86 -2v-113q0 -11 -11 -11q-9 0 -11 11v112l-78 -2v-110q0 -11 -11 -11q-9 0 -11 11v110l-90 -3
q-9 0 -11 10q0 10 10 10l91 3v80l-90 -3q-9 0 -11 10zM211 154l78 2v80l-78 -2v-80z" />
    <glyph glyph-name="dollar" unicode="$" horiz-adv-x="406" 
d="M21 15q-16 34 -14 78q0 7 7 7q8 0 8 -8q-2 -41 12 -71q13 -35 46.5 -53t73.5 -18q6 4 11 4t8 -3q1 0 3.5 0.5t3.5 0.5q66 11 92 60q15 30 2 66q-1 2 -3.5 7.5t-3.5 8.5q-6 10 -10 15q-8 12 -23 27q-35 35 -55 53q-146 131 -146 208v12q0 1 0.5 2.5t0.5 2.5l1 6
q10 42 40.5 68.5t74.5 31.5v89q0 15 15 15q6 0 10.5 -4.5t4.5 -10.5v-87l-1 -2q4 -1 9.5 -2t7.5 -1q41 -10 69.5 -39t38.5 -70v-1q2 -9 -7 -12q-10 -2 -12 8q-5 43 -35.5 71t-73.5 28q-41 0 -74.5 -24.5t-39.5 -63.5l-1 -4v-5q-1 -2 -1 -7q5 -27 21 -54t29.5 -43t39.5 -43
q20 -20 30 -31l18 -18q36 -36 54 -56q25 -25 35 -49q6 -12 8 -19q15 -45 -6 -83q-29 -56 -109 -66v-84q0 -6 -4.5 -10.5t-10.5 -4.5q-15 0 -15 15v82q-43 0 -78.5 21t-50.5 60z" />
    <glyph glyph-name="percent" unicode="%" horiz-adv-x="500" 
d="M360 462q8 -3 5 -12l-242 -523q-1 -6 -8 -6q-1 0 -3 1q-9 4 -5 12l216 470q-29 -27 -67 -41q-14 -6 -44 -12q-4 -100 -74 -100q-47 0 -70 31q-19 27 -10 69q4 18 8 28q-1 1 -2.5 1t-2.5 1q-32 24 -35 60q-4 22 13 35q15 12 35 12q44 0 84 -27.5t50 -69.5q3 -27 3 -28
q74 11 124 65l13 30q2 5 8 5q3 0 4 -1zM186 360q-4 35 -15 58t-38 39q-21 -14 -42 -48q-2 -4 -5.5 -12t-5.5 -12q39 -25 106 -25zM69 392q2 0 2 -1q4 8 12 22q21 32 44 47q-25 14 -52 14q-16 0 -27 -8q-9 -9 -8 -24q1 -28 29 -50zM133 271q53 0 53 78q-67 0 -110 23
q-5 -12 -6 -23q-5 -38 11 -57q17 -21 52 -21zM392 49q9 -48 -6 -84q-11 -25 -28 -36q-14 -12 -45 -12q-26 2 -46 15.5t-25 37.5q-8 36 18 84q1 2 11 17q-3 26 8 47q13 24 37 24q54 0 76 -93zM372 -29q15 30 6 75q-5 29 -20.5 57t-39.5 28q-17 0 -27.5 -15.5t-10.5 -33.5
q16 21 37 32q2 2 4 -1q2 -2 -1 -4q-22 -15 -39 -44q1 -10 7 -26q2 -4 -2 -6q-4 -1 -6 2v1q-1 2 -3 8t-3 8l-2 -4q-19 -41 -9 -72q9 -28 52 -34q4 -1 12 -1q13 0 22 4q15 8 23 26z" />
    <glyph glyph-name="ampersand" unicode="&#x26;" horiz-adv-x="594" 
d="M597 -25q6 -4 2 -10q-11 -17 -31 -20q-6 -2 -18 -2q-57 0 -152 60q-28 -47 -85 -71.5t-117 -24.5q-63 0 -115.5 32t-62.5 90q-6 36 10 68q21 43 88 96q3 3 40 31q-37 49 -51 95q0 2 -1.5 8t-2.5 9l-2 17q0 19 4 35q7 41 40.5 67.5t76.5 26.5q31 0 58.5 -15t36.5 -43
q10 -30 -4 -68q-11 -25 -36 -55q-18 -20 -49 -43l-39 -29q1 -1 3 -3.5t3 -3.5q39 -49 98.5 -105t103.5 -81q3 15 3 31q-1 24 -17 57q-5 7 4 13q1 1 4 1q10 0 17 -26.5t9 -44.5q0 -18 -7 -41q100 -65 146 -65q24 0 33 13q1 3 6 3q2 0 4 -2zM131 326q13 -39 48 -86l39 29
q61 48 78 93q12 33 3 56q-18 43 -74 43q-46 0 -72 -29q-27 -25 -27 -78l2 -14q1 -4 3 -14zM203 -78q54 0 106.5 23.5t75.5 65.5q-133 90 -214 194q-2 2 -6 8q-8 -6 -23 -17.5t-17 -13.5q-60 -52 -78 -94q-12 -30 -6 -55q11 -53 57.5 -82t104.5 -29z" />
    <glyph glyph-name="quotesingle" unicode="'" horiz-adv-x="430" 
d="M60 540q1 -16 -19.5 -38.5t-36.5 -25.5l-1 8q11 2 27.5 18t21.5 30q-6 -3 -14 -3q-9 0 -15.5 4.5t-6.5 10.5q0 15 21 15q23 0 23 -19z" />
    <glyph glyph-name="parenleft" unicode="(" horiz-adv-x="635" 
d="M2 209q0 154 73.5 267t166.5 113v-12q-87 0 -148 -107.5t-61 -260.5q0 -152 61 -259t148 -107v-13q-93 0 -166.5 113t-73.5 266z" />
    <glyph glyph-name="parenright" unicode=")" horiz-adv-x="418" 
d="M131 575v12q94 0 167 -113t73 -267t-73 -266.5t-167 -112.5v13q86 0 147.5 107.5t61.5 258.5q0 153 -61.5 260.5t-147.5 107.5z" />
    <glyph glyph-name="asterisk" unicode="*" horiz-adv-x="344" 
d="M77 407q-7 0 -7 8q0 7 7 7h88l-64 61q-7 5 -1 11q2 2 6 2t5 -2l65 -61l-4 86q0 8 8 8q7 0 7 -7l4 -88l60 62q2 2 6 2t5 -2q6 -4 0 -10l-60 -62h89q8 0 8 -7q0 -8 -8 -8h-88l65 -61q6 -6 0 -11q-2 -2 -5 -2t-5 2l-66 62l4 -87q0 -6 -7 -8q-8 0 -8 8l-4 87l-60 -62
q-2 -2 -5 -2q-2 0 -6 2q-6 5 0 11l60 61h-89z" />
    <glyph glyph-name="plus" unicode="+" horiz-adv-x="500" 
d="M384 192q11 0 11 -10t-10 -10l-147 -4v-133q0 -10 -10 -10t-10 10v133l-132 -4q-10 0 -10 10t10 10l131 4v133q0 10 10 10t10 -10v-133z" />
    <glyph glyph-name="comma" unicode="," horiz-adv-x="61" 
d="M60 -18q1 -16 -19.5 -38.5t-36.5 -25.5l-2 8q12 2 28.5 18t21.5 30q-5 -4 -15 -4q-9 0 -15.5 5t-6.5 10q0 15 22 15q23 0 23 -18z" />
    <glyph glyph-name="hyphen" unicode="-" horiz-adv-x="500" 
d="M136 148q0 7 9 9l226 7q7 2 9 -8q0 -9 -9 -9l-226 -8q-7 0 -9 9z" />
    <glyph glyph-name="period" unicode="." horiz-adv-x="125" 
d="M26 18q7 0 13 -5t6 -13t-6 -13.5t-13 -5.5q-8 0 -13.5 5.5t-5.5 13.5q0 18 19 18z" />
    <glyph glyph-name="slash" unicode="/" horiz-adv-x="339" 
d="M226 493q-37 -134 -98 -302l-102 -286l-16 12q90 262 100 289q8 23 30 92t40.5 121t35.5 83z" />
    <glyph glyph-name="zero" unicode="0" horiz-adv-x="520" 
d="M498 299q26 -136 -1 -255q-20 -94 -77.5 -153t-149.5 -59q-63 0 -111 25.5t-76.5 69.5t-42.5 96.5t-16 114.5q-1 59 10 127q29 156 109 229q1 0 1 0.5t1 0.5q-2 2 -4 3q-11 12 1 24q63 54 121 59q5 1 16 1q29 0 53 -12q45 -19 81.5 -67.5t55.5 -99t29 -104.5zM477 49
q24 115 -3 246q-8 40 -23 81t-38.5 82t-58.5 67t-75 26q-9 0 -13 -1q-27 -3 -56 -19q22 5 39 5q11 0 17 -1h1q10 -2 8 -11q0 -9 -10 -9q-5 1 -15 1q-101 0 -166 -135q-55 -108 -49 -242q1 -57 14 -106.5t39.5 -92t72.5 -67t106 -24.5q167 0 210 200z" />
    <glyph glyph-name="one" unicode="1" horiz-adv-x="302" 
d="M128 404q0 -374 -76 -560q-2 -6 -8 -4q-5 3 -3 8q21 69 36 183q14 124 30 374l7 94q0 8 1 32t0 37q-44 -87 -105 -153q-1 -1 -5 -1q-3 0 -5 1q-5 5 0 10q69 53 113 171l2 2q1 3 5 3q3 0 4 -1q5 -2 3 -7q-2 -12 -2 -94q3 -48 3 -95z" />
    <glyph glyph-name="two" unicode="2" horiz-adv-x="625" 
d="M619 -128q2 -8 -4 -11h-1q-23 -11 -68 -11q-68 6 -186 73l-113 67q-1 1 -2 1q-53 -57 -90 -87q-40 -29 -60 -33q-12 -2 -19 -2q-29 0 -49 16q-29 21 -34.5 59.5t15.5 66.5q27 42 89 47q6 1 18 1t17 -2q42 -9 105 -43q92 107 171 224t102 209q9 39 7 61q-4 37 -21 54
q-33 41 -111 41q-47 -1 -97 -18t-80 -47q-27 -25 -24 -53q2 -7 -5 -7q-6 -2 -8 6q-3 32 28 63q30 32 83 51.5t102 21.5q64 0 109 -25t49 -84q4 -30 -5 -70q-38 -168 -281 -438l112 -66q127 -71 192 -71q27 0 48 10q1 1 3 1q6 0 8 -5zM92 -115q42 9 135 117q-64 34 -98 40
q-12 2 -19 2q-14 0 -42 -6q-34 -10 -51 -33q-19 -26 -14 -59q5 -31 31 -51q18 -12 39 -12q13 0 19 2z" />
    <glyph glyph-name="three" unicode="3" horiz-adv-x="635" 
d="M624 109q10 -73 -27 -131q-42 -71 -125.5 -107.5t-174.5 -36.5q-152 0 -291 93q-6 4 -2 11q2 3 7 3q3 0 4 -1q126 -89 272 -89q88 0 168 35.5t120 104.5q29 51 23 115q-10 81 -74 126.5t-153 56.5q-1 -1 -3.5 -2.5t-3.5 -1.5q-80 -41 -123 -41q-13 2 -16 9q-6 10 1 19
q21 31 119 31q17 0 26 -1q52 33 87 70q57 57 45 102q-10 50 -63.5 78t-109.5 28q-80 0 -134 -48q-1 -1 -4 -1t-5 2q-4 6 1 9q59 55 151 55q96 0 156 -56q29 -31 33 -62q3 -18 0 -37q-19 -75 -136 -141q93 -10 158.5 -58t73.5 -134zM242 252q41 0 110 39q-11 1 -33 1
q-70 -3 -88 -24q-4 -6 0 -11q2 -5 11 -5z" />
    <glyph glyph-name="four" unicode="4" horiz-adv-x="542" 
d="M552 156q6 0 6 -5q2 -5 -5 -7q-37 -4 -76.5 -11t-91 -18.5t-76.5 -16.5q-17 -153 -36 -306q0 -8 -9 -8q-9 2 -7 9q7 100 27 300q-65 -13 -123 -13q-55 0 -92.5 15.5t-57.5 59.5q-4 12 -8 36q-3 30 1 69q8 60 26 132l31 128q21 88 21 128q2 8 9 8q8 0 8 -8q2 -23 -4 -67
q-3 -22 -11 -66l-28 -129q-18 -86 -22 -129q-8 -84 18 -116q33 -44 110 -48q55 0 123 10q1 3 1 9l18 160l20 159q2 8 10 8q10 -2 8 -10q-4 -71 -14 -160l-17 -159v-3q25 5 109.5 24t131.5 25z" />
    <glyph glyph-name="five" unicode="5" horiz-adv-x="500" 
d="M467 179q32 -67 9 -153q-23 -79 -97.5 -134t-157.5 -55q-70 0 -126 40t-94 106q-3 7 3 10q1 1 4 1q4 0 6 -3q81 -132 199 -132q74 0 144 51.5t89 122.5q20 80 -4 135q-25 62 -91.5 92.5t-145.5 34.5q-6 0 -17.5 0.5t-16.5 0.5q-67 0 -109 -20h-4q-7 -1 -11.5 3.5
t-4.5 10.5v5q10 38 14 116q2 70 -3 117v3q0 14 15 14q214 0 329 57q1 1 4 1q5 0 6 -4q4 -8 -3 -11q-110 -45 -318 -74q-1 -18 -2.5 -52t-2.5 -52q-2 -68 -4 -103q13 -1 39 -1q10 0 30.5 0.5t31.5 0.5q229 0 289 -128z" />
    <glyph glyph-name="six" unicode="6" horiz-adv-x="406" 
d="M387 122q26 -58 -3 -137q-28 -58 -70.5 -97t-97.5 -39q-65 0 -115.5 45.5t-74.5 108t-24 125.5q-1 145 73 284q38 69 94.5 131t113.5 75q8 2 10 -7q2 -8 -7 -10q-24 -5 -60 -32q-80 -67 -129 -168q-70 -137 -67 -273q0 -56 20 -112t63 -98t99 -44q91 0 151 120
q26 68 4 120q-26 59 -94 69q-9 2 -27 2q-106 0 -191 -109q-1 -2 -5 -2q-3 0 -4 1q-6 4 -2 9q35 53 89.5 86.5t114.5 33.5q46 0 83.5 -21t55.5 -61z" />
    <glyph glyph-name="seven" unicode="7" horiz-adv-x="469" 
d="M456 556q4 -30 -17 -82q-18 -39 -37 -69q-25 -41 -81.5 -126t-83.5 -131q-40 -64 -69 -134q-33 -85 -29 -145q2 -8 -8 -10q-9 0 -9 8q-5 66 28 154q21 54 68 138q27 47 82 133t79 127q24 44 34 67q18 45 15 66q-2 9 -5 12q-1 2 -3 5l-7 5q-11 9 -29 16q-24 8 -72 14
q-32 2 -48 2q-142 0 -252 -32q-8 -2 -10 6t6 10q184 38 280 38q100 0 142 -32l5 -3l3 -4q6 -4 9 -10q7 -10 9 -23z" />
    <glyph glyph-name="eight" unicode="8" horiz-adv-x="448" 
d="M428 456q5 -2 1 -8q-71 -111 -182 -205q-2 -1 -5.5 -4t-5.5 -5l77 -85q23 -25 46 -52q25 -28 38 -60q15 -39 10 -73q-7 -44 -44 -76.5t-82 -46.5t-90 -14q-61 0 -113.5 28.5t-69.5 81.5q-12 36 -8 71q6 36 30 65q25 34 102 94l79 62q-60 69 -93 115q-56 79 -59 127
q-3 21 5 39q6 14 20 30q58 69 194 69q84 -5 132 -42q6 -5 2 -11q-3 -3 -7 -3q-3 0 -4 1q-46 39 -124 43q-60 0 -102.5 -14t-76.5 -54q-15 -23 -17 -27q-5 -12 -3 -29q6 -40 58 -117q28 -39 92 -113q109 82 191 211q1 3 6 3q2 0 3 -1zM297 134l-78 86l-80 -63
q-75 -60 -98 -92q-22 -29 -26 -59q-4 -31 7 -63q18 -49 63 -73t101 -24q66 0 128 31.5t71 89.5q5 32 -9 61q-5 11 -11 22t-15.5 23.5t-15.5 19.5t-19.5 21.5t-17.5 19.5z" />
    <glyph glyph-name="nine" unicode="9" horiz-adv-x="406" 
d="M398 500q1 -3 -3 -7q-5 -2 -7 3q-51 116 -147 116q-59 0 -113 -42.5t-80 -99.5q-25 -57 -14 -107q11 -64 112 -64q32 0 77 9q83 22 101 54l2 1q3 2 8 2q9 0 14 -8q3 -3 3 -9l-4 -118l-6 -118l-15 -236q-2 -11 -11 -9q-11 0 -9 10v1q15 233 15 235q1 39 1 117q-2 64 -4 97
q-16 -4 -35 -12q-73 -33 -177 -33q-38 5 -61 20q-32 18 -39 55q-16 61 14 125q30 62 87.5 106.5t121.5 44.5q20 0 43 -5q81 -22 126 -127v-1z" />
    <glyph glyph-name="colon" unicode=":" horiz-adv-x="156" 
d="M103 130q-14 0 -17 15q-3 8 0 15t9 8q1 1 4 1q10 0 14 -16q5 -18 -10 -23zM95 49q1 1 4 1q10 0 14 -16q5 -20 -10 -23q-14 0 -17 14q-3 8 0 15t9 9z" />
    <glyph glyph-name="semicolon" unicode=";" horiz-adv-x="188" 
d="M127 134q-13 0 -18 15q-5 19 10 23q1 1 4 1q11 0 13 -16q5 -19 -9 -23zM119 51q23 0 23 -19q1 -16 -19.5 -38.5t-36.5 -25.5l-2 8q12 3 28.5 18.5t21.5 29.5q-6 -3 -14 -3q-9 0 -16 4.5t-7 10.5t6.5 10.5t15.5 4.5z" />
    <glyph glyph-name="less" unicode="&#x3c;" horiz-adv-x="344" 
d="M194 2q-4 0 -6 2l-122 87q-4 3 -4 8q0 7 4 8l122 86q4 2 6 2q4 0 8 -4q5 -9 -2 -14l-111 -78l111 -79q7 -5 2 -14q-3 -4 -8 -4z" />
    <glyph glyph-name="equal" unicode="=" horiz-adv-x="375" 
d="M262 254q10 0 10 -10t-10 -10h-189q-10 0 -10 10t10 10h189zM255 154q10 0 10 -10t-10 -10h-165q-11 0 -11 10t10 10h166z" />
    <glyph glyph-name="greater" unicode="&#x3e;" horiz-adv-x="343" 
d="M99 1q-5 0 -8 4q-5 9 2 14l111 79l-111 78q-7 5 -2 14q4 4 8 4q2 0 6 -2l122 -86q4 -1 4 -8q0 -5 -4 -8l-122 -87q-2 -2 -6 -2z" />
    <glyph glyph-name="question" unicode="?" horiz-adv-x="344" 
d="M322 518q11 -20 13.5 -56.5t-13 -87t-52.5 -86.5q-81 -81 -95 -99q-44 -55 -51 -134q-3 -34 -1 -81l-12 2q-2 34 -2.5 58t2.5 47.5t4 37t10.5 32t14 27t22 28.5t26.5 29l35 35l6 6l5.5 5.5l6.5 6.5q36 36 52.5 73t15.5 69.5t-8 68.5q-9 38 -51.5 69t-91.5 31
q-17 0 -25 -2q-19 -3 -38 -13t-41 -30t-34.5 -57.5t-8.5 -86.5l-10 1q-7 80 26.5 133t102.5 66q16 3 33 3q51 0 93.5 -26t65.5 -69zM118 -102q8 0 15.5 -6t8.5 -15t-4 -15t-13 -6q-21 0 -25 21q-3 21 18 21z" />
    <glyph glyph-name="at" unicode="@" horiz-adv-x="594" 
d="M317 185q-38 0 -56 -46q-13 -34 -12 -92q4 -57 23 -57q11 0 19 8q38 34 40 118q-1 4 -1 13l8 -2q20 -121 36 -128q35 0 58 34t34 76q17 66 -35.5 125t-124.5 59h-10q-66 -4 -109.5 -49t-57.5 -113q-15 -70 5 -139q18 -56 61 -83t99 -27q50 0 96 18.5t70 48.5l8 -7
q-24 -30 -75.5 -49.5t-106.5 -19.5q-63 0 -111 28.5t-66 89.5q-23 71 -5 146q17 71 70.5 117.5t125.5 46.5q77 0 134.5 -61.5t39.5 -135.5q-13 -57 -44 -85t-55 -28q-4 0 -6 1q-26 11 -35 73q-11 -52 -36 -71q-12 -12 -25 -12q-3 0 -11 2q-14 7 -26 28.5t-12 36.5
q-2 104 66 137q14 6 27 6q11 0 19 -4q27 -14 43 -81l2 -8h-8l-2 8q-14 63 -38 74q-5 4 -16 4z" />
    <glyph glyph-name="A" unicode="A" horiz-adv-x="727" 
d="M723 289q4 -4 0 -10q-46 -42 -81.5 -61.5t-93.5 -33.5q2 -20 7.5 -84.5t9.5 -98.5q8 -63 21 -94q9 -20 26 -36q15 -11 41 -18q10 -2 8 -12q-1 -7 -12 -7q-30 5 -51 20t-32.5 40.5t-16.5 46.5t-10 56q-5 36 -11.5 100.5t-8.5 82.5q-9 -1 -27 -1q-43 0 -119 14
q-150 32 -180 35h-2q-65 -178 -136 -331q-3 -6 -10 -6q-3 0 -4 1q-9 5 -4 13q75 156 136 325q-30 2 -45 2q-61 0 -116 -13q-7 -2 -9 5t5 9q62 17 123 17q15 0 49 -2l9 26q14 42 31 95q13 45 31.5 88t53.5 84t74 41q38 0 68.5 -34.5t44.5 -71t24 -77.5q16 -64 30 -196
q2 0 5.5 0.5t4.5 0.5q80 16 157 85q2 2 5 2q4 0 5 -2zM377 214q71 -16 120 -16q3 0 10 0.5t10 0.5q-36 365 -136 365q-83 0 -145 -200q-4 -16 -30 -95q-7 -19 -8 -22q32 -3 179 -33z" />
    <glyph glyph-name="B" unicode="B" horiz-adv-x="625" 
d="M289 300q94 -27 152 -87.5t58 -150.5q0 -61 -47 -110q-52 -54 -132 -81t-164 -27q-113 0 -210 48q-8 2 -4 10q2 4 7 4q2 0 3 -1q90 -39 191 -39q60 0 125.5 16t124.5 54.5t75 92.5q5 19 4 33q0 84 -58 143t-145 87q-54 -19 -90 -21h-13h-7q-16 5 -19 10q-7 13 6 22
q4 3 18 8q20 2 29 2q36 0 70 -7q38 18 74 46t41 58q3 30 -15 63q-20 36 -59.5 59.5t-80.5 23.5q-36 0 -64 -15.5t-47 -45t-30 -55.5t-23 -64q0 -2 -2 -8q23 -54 34 -180q3 -75 -4 -142q-10 -74 -30 -105q-14 -16 -25 -16q-8 0 -16 6v-1q-4 3 -9 8l-3 6q-1 1 -1 2q-1 2 -1 3
q-8 25 -8 58q-1 34 2 76q10 154 45 274q-19 56 -45 93q-5 5 1 11q2 1 5 1q4 0 6 -3h1q21 -26 41 -71q13 40 24.5 65.5t31 55.5t48.5 45t67 15q49 0 94 -21.5t71 -60.5q26 -41 19 -82q-12 -61 -116 -105zM50 324q-2 6 -3 8q-32 -130 -36 -250q-3 -34 -1 -74q1 -13 3 -37
q1 -3 2.5 -8.5t2.5 -8.5q1 -4 8 -11h-1q5 -3 6 -3h1l2 1q4 3 9 9q7 13 12 31q6 21 12 67q7 64 2 139q-3 66 -19 137zM214 287q14 4 32 11q-28 6 -44 7q-2 0 -6.5 0.5t-6.5 0.5q-11 0 -23 -3q-10 -2 -16 -7t-3 -11q2 -4 13 -6h6h12q16 1 36 8z" />
    <glyph glyph-name="C" unicode="C" horiz-adv-x="687" 
d="M573 47q8 -4 2 -13q-53 -76 -133 -123.5t-169 -47.5q-27 0 -46 5q-97 20 -157 113t-68 200q-8 111 40 200q37 70 116.5 120.5t156.5 50.5q66 0 127.5 -37.5t102.5 -94.5q4 -6 -1 -9q-1 -1 -3 -1q-5 0 -6 3q-39 56 -96.5 91t-120.5 35q-21 0 -31 -2q-65 -8 -129 -57.5
t-94 -110.5q-39 -83 -33 -186q6 -99 59.5 -188.5t140.5 -109.5q17 -5 43 -5q85 0 161.5 45.5t123.5 119.5q4 4 8 4q2 0 6 -2z" />
    <glyph glyph-name="D" unicode="D" horiz-adv-x="625" 
d="M491 365q26 -84 20 -170q-9 -110 -43 -166q-47 -83 -144 -133t-197 -50q-142 0 -258 97q-5 3 -1 7q1 2 4 2t4 -1q111 -88 246 -88q116 0 213 63q77 50 111 113t40 158q6 85 -17 161q-22 75 -74 135t-121 60q-38 0 -69 -17.5t-51.5 -47.5t-34 -61.5t-22.5 -68.5
q2 -6 4 -10q23 -72 36 -165q14 -98 8 -169q-10 -105 -55 -105q-8 0 -15 3q-7 5 -14 22q-1 3 -2 6.5t-2 8t-2 6.5q-11 61 -5 169q7 120 30 214v2q-1 1 -1 2q-35 111 -76 138q-8 5 -3 14q3 4 9 4q3 0 5 -1q40 -25 77 -120q21 80 67 135t120 55q73 0 130.5 -61.5t82.5 -140.5z
M114 180q-9 68 -27 134q-4 -15 -5 -25q-14 -69 -19 -166q-4 -102 8 -165q1 -3 2.5 -9.5t2.5 -9.5q4 -10 8 -12q0 -1 5 -1q3 0 7 2q21 10 28 88q3 76 -10 164z" />
    <glyph glyph-name="E" unicode="E" horiz-adv-x="562" 
d="M462 -49q5 -5 -1 -11q-127 -96 -245 -96q-99 0 -165 66q-40 40 -56 97t-5 114q17 78 90 126t162 61q-79 41 -109 94q-8 17 -10 29q-2 10 -1 16q0 55 55 89t113 34q76 0 122 -49q6 -5 0 -11q-2 -2 -5 -2q-2 0 -6 2q-33 39 -92 42q-56 0 -102.5 -23.5t-60.5 -71.5
q0 -1 -3 -11q0 -8 1 -11q1 -9 8 -23q32 -54 110 -101q26 2 39 2q9 0 27 -2q21 -5 27 -11q4 -4 4 -9t-2 -8q-3 -6 -14 -8q-14 0 -29 3q-21 6 -51 19q-3 2 -7 4q-2 0 -5 -0.5t-4 -0.5q-84 -17 -154 -64.5t-82 -119.5q-10 -51 4.5 -103t50.5 -88q61 -61 155 -61q109 0 231 88
q2 2 4 2q4 0 6 -3zM327 304q-9 1 -26 1q-18 0 -26 -1q40 -22 67 -22q8 2 9 4t1 5l-2 4q-4 4 -23 9z" />
    <glyph glyph-name="F" unicode="F" horiz-adv-x="542" 
d="M574 504q7 -7 1 -15q-1 -3 -7 -3q-4 0 -7 3q-54 49 -155 49q-26 0 -53 -3q-92 -16 -157 -58.5t-109 -122.5q36 -91 55 -164q4 0 10 2q22 2 32 2q14 0 39 -2t32 -2q28 -2 42 -2q77 0 132 65q1 1 2.5 1.5t2.5 -0.5q3 -3 1 -5v-1q-29 -41 -62 -58.5t-82 -17.5q-12 0 -38 2
q-46 4 -70 4q-19 0 -29 -1q-2 0 -4 -0.5t-4 -0.5q10 -39 18 -78q13 -68 9 -116q-7 -67 -48 -108q-16 -20 -39 -20q-15 0 -24 9q-16 12 -34 52q-26 74 -26 171q7 152 67 265l-65 174q-3 6 4 10q6 0 9 -4v-1q57 -142 63 -157q110 184 329 184q34 0 58 -5q63 -10 107 -48z
M123 186q-20 69 -47 146q-26 -50 -43 -120.5t-17 -125.5q0 -31 6.5 -77t23.5 -90t39 -44q4 0 6 1q10 3 20 13q35 39 41 95q3 41 -8 111q-8 41 -18 77q-36 -8 -65 -24q-1 -1 -3 -1t-4 3q-2 4 2 7q31 20 67 29z" />
    <glyph glyph-name="G" unicode="G" horiz-adv-x="896" 
d="M753 80q3 -9 1 -28q-4 -21 -18 -50q-27 -47 -75 -82q-24 -74 -34 -111q-16 -64 -17 -98q0 -60 44 -62q11 0 9 -10q0 -9 -10 -9q-36 0 -51 27q-13 20 -13 55q2 70 45 189q-107 -62 -232 -62q-116 0 -212 60t-149 165q-52 102 -34 207q20 128 139 219t251 91
q73 0 146.5 -27.5t132.5 -74.5q6 -4 1 -9q-1 -3 -5 -3q-2 0 -4 2q-124 94 -264 94q-129 0 -240 -85.5t-127 -210.5q-12 -94 29 -191q45 -104 136 -163t206 -59q136 0 232 68l30 88q20 62 26 97q0 1 0.5 4t0.5 5q-18 10 -56 24q-80 25 -160 32l-37 -15q-40 -12 -52 -13
q-14 0 -23 9q-3 5 -3 10q-1 4 3 10q3 4 7 6q21 9 66 9q24 -2 37 -3l8 3q95 37 150 37q32 -2 51 -18q2 -1 3.5 -3t3.5 -4l3 -3t2.5 -3t2.5 -3q7 -14 10 -33q2 -12 0 -35q32 -18 40 -43zM439 170l10 4h-7q-33 0 -49 -3q-4 0 -7.5 -2t-5.5 -3t-1 -2l1 -1v-2l2 -2q2 -1 7 -1h3
q18 1 47 12zM645 153q45 -17 54 -22q4 47 -19 66q-16 13 -43 15q-50 0 -129 -30q75 -10 137 -29zM741 54q2 17 -1 23q-5 16 -28 31v-1q-1 -1 -1 -2q-5 -36 -23 -101q-2 -8 -9 -28.5t-10 -32.5q61 54 72 111z" />
    <glyph glyph-name="H" unicode="H" horiz-adv-x="669" 
d="M626 239q4 -5 -2 -9q-87 -59 -163 -77q-2 -98 11 -179q20 -131 87 -131q12 0 18 2q6 0 6 -4q1 -5 -3 -6q-13 -5 -27 -5q-31 0 -54.5 26.5t-35.5 62t-19 85t-9 80.5t-2 63q-24 -4 -54 -4q-64 0 -137 20q-156 36 -193 40q-4 0 -11 0.5t-11 1.5v-8q8 -118 9 -177
q1 -45 0 -89q0 -23 -3 -45q-1 -7 -3 -23l-3 -12q-5 -10 -9 -14q-4 -2 -6 -2q-5 0 -8 3q-6 8 1 15l2 5q2 6 2 9q2 14 2 21q1 14 1 43q0 101 -13 264l-1 12q-96 0 -145 -8q-7 0 -9 7t7 9q49 8 146 8l-25 323q0 9 10 11q10 0 10 -9q15 -109 33 -327q4 -1 12.5 -1t13.5 -1
q70 -8 194 -42q76 -19 135 -19q29 0 53 4q0 212 37 415q2 8 10 8h2q8 -2 8 -11q-14 -130 -19 -200q-10 -138 -10 -207q75 19 155 74q1 1 4 1q4 0 6 -3z" />
    <glyph glyph-name="I" unicode="I" horiz-adv-x="480" 
d="M499 -162q3 -3 2 -6q-3 -3 -6 -2q-182 98 -342 110q-17 0 -25 1q-27 -35 -66.5 -58.5t-81.5 -26.5q-3 0 -9.5 -0.5t-10.5 -0.5q-16 0 -27 5q-6 2 -11 8t-3 14q8 36 75 55t120 20q52 86 54 219q1 36 -4 89q-11 160 -25 262q-60 -8 -90 -8q-78 0 -138 16q-6 2 -4 7q2 4 6 3
q49 -9 99 -9q59 0 151 15q84 12 127 15q13 1 39 1q45 0 89 -6q4 -1 4 -5t-4 -4h-29q-57 0 -97 -5q-14 -1 -126 -17q-4 0 -6 -1q14 -70 24 -171q14 -135 12 -183q-2 -133 -56 -218q10 0 15 -1q170 -12 344 -118zM-21 -136q73 10 124 77q-73 -2 -126 -23q-45 -21 -48 -38
q-3 -8 8 -13q9 -4 25 -4q12 0 17 1z" />
    <glyph glyph-name="J" unicode="J" horiz-adv-x="447" 
d="M446 194q3 -3 -1 -7q-1 -1 -3 -1q-3 0 -4 2q-53 66 -152 66q9 -102 2 -182q-8 -111 -52 -186q-44 -65 -107.5 -109t-132.5 -44q-44 0 -81.5 19.5t-57.5 57.5q-30 55 -16 127q9 57 52 117q63 85 162 141t206 68q-16 164 -51 308q-2 10 8 12l1 1h2q5 0 9 -8
q41 -161 55 -313q104 0 161 -69zM262 74q7 80 0 180q-37 -4 -51 -7q-74 -17 -149.5 -60t-136 -111t-73.5 -141q-12 -70 17 -119q18 -31 49.5 -48t68.5 -17q96 0 189 101q73 72 86 222z" />
    <glyph glyph-name="K" unicode="K" horiz-adv-x="500" 
d="M594 -150q3 -5 -2 -8q-58 -36 -107 -36q-35 0 -65 15.5t-54 44t-40 54t-33 60.5q-11 22 -38 79t-44 87q-35 61 -76 87q-6 -4 -9 -5q-39 -20 -99 -29q0 -278 -79 -342q-1 -1 -4 -1q-4 0 -6 2q-4 5 1 10q44 36 57 164q8 69 6 164h-13q-39 0 -39 24q3 22 34 33q2 1 16 6
q-8 167 -25 318q-2 9 8 11q11 2 11 -8q23 -141 31 -317q18 2 26 2q50 0 86 -18q13 8 21 16q101 90 179 316v1q2 7 9 7l1 -1h2q9 -3 7 -12q-29 -98 -84 -195t-122 -138q50 -39 79 -84q15 -24 29 -49.5t33 -64.5t25 -51q52 -107 104 -144q30 -22 82 -22q36 2 85 26h2q3 0 5 -2
zM-10 202q2 0 6 0.5t6 0.5v10q0 6 -0.5 19t-1.5 19q-11 -3 -14 -4q-9 -3 -19 -11q-11 -7 -11 -17q-2 -9 12 -13q9 -4 22 -4zM122 237q0 1 2 1q-1 0 -2.5 1t-2.5 2q-43 15 -94 15q2 -34 2 -50q57 11 95 31z" />
    <glyph glyph-name="L" unicode="L" horiz-adv-x="365" 
d="M277 -154q4 0 6 -5q0 -5 -5 -5q-42 -5 -76 -5q-136 0 -241 80q0 -1 -0.5 -1t-0.5 -1q-75 -67 -144 -67q-33 0 -69.5 17t-36.5 45q-1 19 13 35q16 20 43.5 32.5t53.5 12.5q69 0 139 -43q47 47 92 158l15 37q-25 -9 -44 -9q-38 0 -68 18q-4 2 -2 5q2 2 5 1q32 -17 61 -17
t52 11l7 18q9 21 19 65q5 24 25 137q16 92 33 138q10 22 17 33q14 20 33 24q3 1 9 1q13 0 22 -6q3 -1 9 -5q14 -12 19 -34q7 -33 0 -72q-10 -79 -56 -163.5t-106 -126.5l-26 -65q-44 -104 -96 -161l36 -24q53 -35 116 -46.5t146 -11.5zM122 222q-7 -30 -15 -55
q55 42 95.5 123t50.5 155q4 46 -2 68q-5 17 -16 25q-12 6 -19 6q-4 0 -8 -2q-20 -5 -34 -47q-13 -37 -28 -134q-14 -92 -24 -139zM-195 -141q69 0 138 65q-37 24 -62 34t-61 11q-32 0 -64 -15q-16 -10 -26 -21q-12 -14 -11 -28q2 -15 16 -25q27 -21 70 -21z" />
    <glyph glyph-name="M" unicode="M" horiz-adv-x="740" 
d="M-34 458q-4 9 5 13q2 1 5 1q5 0 8 -5q31 -54 56 -154q36 160 73 224q23 39 49 45q3 1 9 1q26 0 44 -34q3 -5 16 -33q24 -69 39 -158.5t19.5 -146t10.5 -162.5q37 319 148 447q36 36 64 36q21 0 38 -15q1 -1 3 -4t3 -4l3 -3q7 -7 9 -25q4 -18 6 -71v-70q-2 -94 -1 -140
q0 -260 57 -331q26 -34 67 -34q43 0 106 39q4 2 6 2q5 0 8 -5q6 -10 -3 -13v-1q-72 -46 -121 -46q-121 0 -144 248q-5 82 -4 141q1 49 5 140q2 116 0 138q-2 11 -4 15q0 2 -1 2l-2 3q-13 18 -31 18q-23 1 -55 -29q-51 -53 -86 -152t-48 -191t-15 -183l-1 -34v-2
q-7 -5 -10 -7l-6 6v8l-9 95q-18 186 -31 278q-14 92 -24 137q-11 46 -18 66q-11 43 -30 53q-6 2 -9 2q-10 0 -18 -7q-33 -23 -61.5 -102t-44.5 -151q0 -1 -1 -4t-1 -5q17 -79 22 -142q9 -98 2 -163q-4 -28 -8 -42q-3 -11 -9 -20q-8 -15 -19 -18l-8 -2q-4 0 -9 3q-6 3 -10 11
q-9 23 -9 63q3 112 30 260q-20 132 -59 213zM19 145q-12 -90 -9 -160q2 -27 5 -39q2 -15 8 -21h1q0 1 2 1q16 5 20 65q5 64 -6 158q-6 46 -10 73q-5 -28 -11 -77zM291 -74h1v1z" />
    <glyph glyph-name="N" unicode="N" horiz-adv-x="542" 
d="M388 41q2 -39 -1 -70q-6 -48 -16 -71q-12 -22 -26 -32.5t-37 -10.5q-11 2 -36 16q-104 80 -235 294q-9 -242 -119 -333q-4 -3 -9 -3q-6 0 -9 5q-9 9 2 18q108 88 108 356q-80 131 -100 209q-5 27 -3 37q2 14 9 21q4 5 10 8q6 2 12 2q18 1 37 -20q50 -63 61 -238
q0 -6 0.5 -18.5t0.5 -19.5q149 -238 246 -303q14 -10 27 -12q13 -1 24.5 8.5t16.5 24.5q16 42 12 131q-14 214 -108 464q-20 45 -30 57h-1q-7 11 2 18q3 3 8 3q6 0 10 -4q15 -18 36 -63q98 -239 108 -474zM-72 423q16 -69 81 -185q-3 72 -15 125q-25 105 -55 105
q-12 -1 -13 -14q-2 -9 2 -31z" />
    <glyph glyph-name="O" unicode="O" horiz-adv-x="740" 
d="M560 237q11 -48 9 -98q-4 -115 -83.5 -201.5t-193.5 -86.5q-108 0 -191 85t-100 195q-10 69 7 143q27 114 103.5 197.5t185.5 89.5q77 0 141.5 -35t97.5 -101q33 -62 30 -139q0 -15 -6 -49zM284 -121q109 0 181 74.5t82 186.5q1 24 0 47q-8 -26 -14 -38q-2 -4 -5 -4
q-1 0 -2 1q-6 2 -4 7q14 29 23 63q-10 93 -61 189q-2 4 2 6q3 2 5 -2q37 -62 59 -129q0 -3 2 -9t2 -9l3 25q3 72 -30 132q-32 56 -86 87.5t-118 31.5q-148 0 -239 -145q-83 -133 -63 -260q12 -99 88.5 -176.5t174.5 -77.5z" />
    <glyph glyph-name="P" unicode="P" horiz-adv-x="500" 
d="M400 399q12 -77 -15 -134q-27 -58 -90.5 -89.5t-135.5 -36.5q-3 0 -5 4q0 5 4 5q67 9 125 41t81 85q23 50 11 121q-11 63 -68.5 109.5t-120.5 46.5q-40 0 -69 -19t-45.5 -53.5t-25 -65t-14.5 -72.5q2 -2 4 -7.5t4 -8.5q50 -122 62 -256q7 -77 2 -133q-4 -41 -14 -67
q-8 -13 -12 -17q-7 -7 -19 -7q-4 0 -6 1q-8 3 -18 11l-3 4q0 1 -2 2.5t-2 2.5q-18 56 -26 140q-7 132 6 262q4 36 7 55q-28 65 -60 103q-6 6 1 12q3 3 6 3q9 0 29 -29.5t31 -50.5q2 13 8 37q21 80 56.5 125.5t106.5 45.5q2 0 6.5 -0.5t6.5 -0.5q69 -5 127 -53.5t67 -115.5z
M56 193q-13 55 -30 103q-2 -9 -4 -29q-12 -127 -1 -260q10 -115 25 -130l3 -4v-1q6 -5 10 -6q2 0 5 2q11 11 18 70q6 106 -26 255z" />
    <glyph glyph-name="Q" unicode="Q" horiz-adv-x="740" 
d="M714 -235q6 0 8 -8q0 -6 -7 -8q-29 0 -51 13q-35 25 -85 118q-32 62 -44 82q-2 4 -4 7q-6 -5 -18 -10q-16 -8 -33 -8q-16 0 -29 7h-1q-25 15 -37 31q-18 26 -13 47q5 16 16 21q8 5 19 5h6q22 -1 45 -19q23 -21 53 -60q7 6 19 18q37 42 60 105q44 128 6 235q-23 60 -63 97
q-44 42 -112 67t-132 25q-119 0 -200.5 -82.5t-90.5 -204.5q-3 -24 1 -58q19 -125 101.5 -204.5t207.5 -79.5q38 0 75 9q6 0 7 -4q0 -11 -39.5 -16.5t-63.5 -5.5q-124 0 -213.5 86t-101.5 211q-4 30 -1 65q12 98 72 177.5t150 107.5q44 16 125 16q105 -8 190 -57t113 -141
q39 -117 -18 -248q-28 -66 -67 -105q-6 -7 -20 -19q1 -2 5 -6q23 -32 50 -80q38 -67 48 -80q31 -46 67 -46zM511 -35q3 1 9 4.5t8 4.5q-19 32 -48 62q-22 17 -40 18q-26 0 -31 -20q-4 -19 12 -39q27 -36 62 -36q14 0 28 6z" />
    <glyph glyph-name="R" unicode="R" horiz-adv-x="552" 
d="M601 -162q4 1 6 -3q0 -5 -4 -5q-45 -7 -78 -7q-117 0 -173 95q-14 22 -57 127q-40 94 -86 134q-63 -19 -130 -19q-25 0 -50 3q0 -146 -18 -221q-13 -62 -42 -83q-4 -2 -7 -2q-7 0 -10 5q-7 9 3 17q31 23 42 152q4 45 4 136q-1 1 -5 1t-5 1q-24 7 -33 11q-21 12 -26 25
q-3 8 2 18q3 5 13 13q11 6 33 12q12 2 19 3q-2 113 -19 293q0 11 11 13q11 0 13 -10q14 -113 23 -295q115 0 189 -56q72 30 136.5 88t72.5 122q5 30 -10 58q-62 111 -355 111q-104 0 -222 -16q-7 0 -7 6q-2 5 5 7q137 12 240 12q301 0 363 -106q20 -36 14 -75
q-11 -72 -78 -131.5t-146 -86.5q44 -26 90 -129q6 -14 17 -40t20.5 -46.5t18.5 -37.5q27 -53 67.5 -76t100.5 -23q26 0 58 5zM-8 173q6 0 9 -1q0 20 -1 30q0 29 -1 44l-18 -3q-20 -4 -32 -11q-18 -12 -13 -26q8 -20 56 -33zM60 167q72 0 137 22q-34 25 -80 40t-90 17
q1 -8 1 -22t1 -22v-34q10 -1 31 -1z" />
    <glyph glyph-name="S" unicode="S" horiz-adv-x="698" 
d="M685 320q2 -5 -3 -8q-39 -18 -145 -59l-97 -38q111 -62 111 -144q0 -5 -2 -23q0 -1 -1 -4.5t-2 -5.5t-2.5 -6t-1.5 -5q-26 -50 -105 -92.5t-160.5 -63.5t-139.5 -21q-68 0 -104 27q-18 18 -26 34q-9 20 -6 43q5 36 41 70q73 73 347 184q-6 2 -22.5 9t-26.5 10
q-12 5 -36.5 13t-36.5 13q-160 51 -164 167q-2 45 25 81q48 64 154 64q32 0 66 -7.5t64.5 -29.5t32.5 -53q1 -21 -10 -41q-1 -4 -6 -4q-2 0 -3 1q-7 3 -3 9q10 18 7 34q-1 15 -15 30q-40 40 -125 40q-98 0 -142 -58q-21 -30 -19 -65q3 -96 147 -142q61 -21 74 -25
q56 -22 76 -32q210 83 251 101q1 1 3 1q4 0 5 -4zM518 104q-20 51 -113 97l-13 -5q-199 -83 -280 -135q-89 -57 -96 -109q-1 -18 6 -34q12 -21 22 -27q22 -17 69 -21q3 0 10 -0.5t10 -0.5q55 0 136.5 22.5t155.5 63t93 83.5q14 30 0 66z" />
    <glyph glyph-name="T" unicode="T" horiz-adv-x="292" 
d="M382 637q2 -2 0 -6q-57 -52 -109 -77t-122 -25q-48 0 -106 12q-17 -185 -17 -328q0 -279 77 -315q13 -7 29 -7q6 0 16 2q4 1 6 -4q0 -5 -4 -5q-14 -4 -23 -4q-15 0 -29 6q-21 9 -38 30t-27 54.5t-17 61.5t-10.5 70.5t-4.5 60t-2 50.5q-1 78 8 199q4 59 14 133
q-123 28 -170 33q-31 4 -69 4q-54 0 -112 -11q-6 0 -7 4q0 5 4 7q66 18 136 18q33 0 50 -2q44 -4 171 -31q4 28 7 42q2 10 11 8t7 -10q-2 -30 -4 -44q60 -13 111 -13q118 0 218 88q3 2 6 -1z" />
    <glyph glyph-name="U" unicode="U" horiz-adv-x="820" 
d="M746 -180q6 0 7 -4q0 -6 -4 -7q-10 -2 -16 -2q-98 0 -163 215q-78 -162 -264 -176q-4 0 -14 -0.5t-14 -0.5q-72 0 -124.5 25t-83 72t-46.5 102.5t-21 126.5q-9 126 19 327q2 11 11 9t9 -11q-20 -198 -12 -323q5 -69 19.5 -121t43.5 -97t80 -68.5t123 -23.5q97 0 160 43.5
t109 133.5q-4 9 -5 16q-42 152 -51 324q-4 110 6 165q10 42 24 52q6 3 7 3q6 3 8 1q8 0 16 -6q1 -1 3.5 -5t4.5 -5q44 -69 50 -242q3 -85 -10 -164q-12 -72 -35 -129q9 -33 20 -64.5t30 -74t45 -68t55 -25.5q5 0 13 2zM530 381q9 -154 47 -310q18 50 28 110q11 74 8 161
q-9 169 -51 233l-8 8q-4 0 -8 -7q-6 -9 -12 -35q-9 -62 -4 -160z" />
    <glyph glyph-name="V" unicode="V" horiz-adv-x="427" 
d="M444 597q2 -1 2 -2.5t-2 -2.5q-117 -111 -191.5 -261t-86.5 -307l18 -35q26 -64 28 -101q1 -10 -1 -28q-4 -18 -9 -27q-6 -13 -18 -13q-8 0 -12 6q-2 2 -6 7q-18 32 -18 129l3 41q-38 72 -94 147q-37 48 -81 98t-106.5 104t-103.5 64q-10 3 -7 12q2 8 10 8h2
q39 -10 93 -50q85 -66 162.5 -157t128.5 -185q47 329 283 554q4 2 6 -1zM191 -113q-2 35 -27 90q0 -103 19 -134q0 -1 0.5 -1t0.5 -1q4 10 6 23q3 9 1 23z" />
    <glyph glyph-name="W" unicode="W" horiz-adv-x="823" 
d="M717 454q4 0 6 -4q0 -6 -4 -6v-1q-81 -15 -132 -17q58 -97 88 -202q35 -131 7 -231q-20 -67 -74.5 -116t-121.5 -49q-48 0 -87 24q-1 1 -3.5 2.5t-4.5 3t-4 3.5l-12 9q-88 76 -109 186q-10 -53 -46 -128q-11 -24 -39 -49q-27 -21 -59 -25q-5 -1 -14 -1q-49 0 -77.5 38.5
t-28.5 89.5q-1 27 2 62q10 97 53 236q31 106 33 115q4 7 11 7h2q9 -2 7 -12q-9 -38 -30 -115t-30 -117q-14 -62 -20 -117q-6 -79 8 -112q21 -54 82 -54q27 2 51.5 18.5t36.5 41.5q37 68 53 165q0 34 7 65v1q2 9 12 7q8 -2 8 -10v-1q-1 -1 -1 -2v-2l-3 -28q-7 -92 52 -178
q19 -25 35 -43q3 -3 10 -9.5t10 -9.5l3 -2v-1h1l7 -5q3 -3 11 -7q35 -22 74 -22q59 0 108.5 43.5t69.5 102.5q30 94 -3 222q-27 105 -89 206q-140 0 -185 63q-21 28 -15 58q2 16 14 28.5t28 13.5q21 0 31 -6q34 -15 67 -56q34 -37 68 -91q52 1 136 18zM396 495
q28 -38 95 -53q37 -6 76 -6q-46 75 -102 123q-27 20 -49 20q-12 -1 -21.5 -11t-11.5 -23q-5 -27 13 -50z" />
    <glyph glyph-name="X" unicode="X" horiz-adv-x="522" 
d="M513 -154q8 -5 3 -14q-1 -4 -8 -4q-4 0 -5 1q-33 18 -104 72q-154 121 -363 337q-108 -139 -120 -244q-7 -57 15 -103q4 -10 -6 -13q-1 -1 -4 -1q-6 0 -9 6v1q-21 52 -11 112q15 111 128 251q-180 195 -202 310q-2 10 8 12q9 2 11 -8q22 -107 199 -295q1 1 6 7.5t8 9.5
q124 145 322 298q4 2 7 2q4 0 7 -4q8 -8 -2 -14q-195 -134 -341 -307q136 -146 266 -259q116 -104 194 -153h1z" />
    <glyph glyph-name="Y" unicode="Y" horiz-adv-x="521" 
d="M541 161q3 -3 0 -7q-1 -1 -4 -1q-2 0 -3 1q-44 53 -113 67q-18 5 -57 7q11 -100 5 -196q-11 -161 -78 -228q-44 -57 -107.5 -94t-129.5 -37q-46 0 -87.5 23t-63.5 62q-35 61 -20 138q10 63 57 126q65 89 178 150t222 67q-19 142 -46 267q-1 -5 -2.5 -13.5t-1.5 -12.5
q-9 -42 -23 -81.5t-37 -80t-58 -65t-77 -24.5q-77 0 -92 78q-6 41 4 94q6 30 26 88q3 7 10 7h1l2 -1q10 -4 6 -13q-15 -41 -24 -86q-11 -52 -5 -86q7 -49 46 -58q13 -4 31 -4q50 0 90.5 41t61 91.5t27.5 100.5q7 55 -2 87v1q-1 6 4 11q3 3 8 3q6 0 9 -8q52 -191 65 -336
q116 0 178 -78zM345 34q6 90 -4 193q-88 -5 -184.5 -49.5t-171.5 -121.5t-88 -163q-12 -74 19 -127q43 -74 137 -74q104 0 199 101q80 75 93 241z" />
    <glyph glyph-name="Z" unicode="Z" horiz-adv-x="760" 
d="M664 487q2 -15 -9 -41q-31 -57 -121 -122.5t-175 -109.5q-155 -82 -231 -138q-68 -51 -92 -92q-17 -30 -3 -51q3 -6 8 -11l3 -2l3 -3q2 -1 5 -4q13 -7 28 -11q41 -10 131 -14q45 -1 135 -1q143 0 269 17q10 2 12 -9q2 -12 -9 -12q-142 -20 -408 -20q-91 2 -137 14
q-19 5 -35 14l-9 6l-6 6q-7 7 -13 16q-12 18 -9 41q6 40 59 91q26 21 55 43q54 38 235 136q69 37 146 94.5t118 107.5l17 26q7 17 6 25q-1 21 -38 32q-42 15 -134 15q-76 0 -197 -13q-102 -11 -268 -39q-9 -2 -11 8q-2 9 8 11q24 4 120.5 18.5t148.5 21.5q138 17 222 17
q74 0 120 -13q39 -14 54 -44l2 -6v-4z" />
    <glyph glyph-name="bracketleft" unicode="[" horiz-adv-x="208" 
d="M104 2q7 0 9 -7q4 -9 -6 -11l-2 -1q-3 0 -9 -1q-56 0 -72 95q-5 26 -8.5 62t-4.5 62.5t-2.5 75.5t-2.5 71q-6 197 9 273q4 25 16 51q11 21 29 34q9 6 28 9l11 1q9 0 9 -10q0 -9 -9 -9l-3 -1q-4 0 -10 -2.5t-12 -7.5q-9 -7 -19 -26q-6 -15 -13 -45q-12 -65 -6 -266
q1 -25 2.5 -71.5t2.5 -74t3.5 -62t7.5 -59.5q12 -60 27 -73q9 -6 17 -6z" />
    <glyph glyph-name="backslash" unicode="\" horiz-adv-x="375" 
d="M73 505l10 9q17 -31 35.5 -83t40.5 -121t30 -92q10 -27 100 -289l-16 -12l-102 286q-61 168 -98 302z" />
    <glyph glyph-name="bracketright" unicode="]" horiz-adv-x="111" 
d="M11 2q3 0 8 1q8 0 17 6q15 13 27 73q5 25 7.5 59.5t3.5 62t2.5 74t2.5 71.5q6 201 -6 266q-7 30 -13 45q-10 19 -19 26q-6 5 -12 7.5t-9 2.5l-4 1q-9 0 -9 9q0 10 9 10q22 0 39 -10q18 -13 29 -34q12 -26 16 -51q15 -76 9 -273q-1 -22 -2.5 -71t-2.5 -75.5t-4.5 -62.5
t-8.5 -62q-14 -95 -72 -95l-9 1l-2 1q-10 2 -6 11q2 7 9 7z" />
    <glyph glyph-name="asciicircum" unicode="^" horiz-adv-x="500" 
d="M330 374q5 -7 -3 -14q-2 -2 -5 -2q-4 0 -9 5l-77 110l-79 -110q-3 -5 -8 -5q-2 0 -6 2q-9 7 -2 14l87 123q4 4 8 4t8 -4z" />
    <glyph glyph-name="underscore" unicode="_" horiz-adv-x="437" 
d="M14 1q0 10 10 10l299 8q10 -2 10 -10q0 -10 -10 -10l-298 -8q-9 0 -11 10z" />
    <glyph glyph-name="grave" unicode="`" horiz-adv-x="104" 
d="M20 368h4q3 1 6 1h3q56 -65 55 -70h-27q-1 3 -19.5 33t-21.5 36z" />
    <glyph glyph-name="a" unicode="a" horiz-adv-x="389" 
d="M393 152q3 -1 1 -5q-54 -79 -68 -96q-52 -62 -84 -84q-16 -10 -30 -13q-4 -1 -10 -1q-27 0 -38 29t-12 73t-3 51q-7 -3 -20 -13q-9 -7 -38 -37t-49 -42q-18 -13 -41 -13q-34 0 -48 31q-15 33 8.5 74t58.5 65q34 24 65 24q14 0 26 -6q14 -6 25 -20v-1q5 -3 0 -8
q-1 -1 -4 -1q-4 0 -5 2q-14 19 -36 19q-7 0 -10 -1q-24 -6 -46 -26q-27 -24 -48 -67.5t1 -65.5q7 -6 17 -6q14 0 31 10q19 11 49.5 40.5t37.5 35.5q4 4 12 10q1 0 3 1.5t4 2.5q4 2 7 2t4 -1q8 -9 12 -46.5t13 -68.5t29 -31q35 0 110 90q23 28 70 93q3 3 6 0z" />
    <glyph glyph-name="b" unicode="b" horiz-adv-x="445" 
d="M448 153q4 -2 2 -6q-25 -46 -50 -74q-28 -32 -57 -41t-79 -9l-4 -4q-21 -24 -52.5 -39t-62.5 -15q-8 0 -13 1q-20 2 -23 19q-2 16 15 27q29 20 130 20q14 16 16 42q3 28 -8 48q-18 35 -65 35q-11 0 -21 -3q-41 -14 -60.5 -69t-21.5 -111q0 -4 -1 -7q-5 -9 -16 -9
q-5 1 -9 3l-4 4q-4 4 -10 12q-3 5 -15 26q-38 80 -49 160q-16 97 3 222q11 71 29 109q28 52 64 62q10 2 15 2q3 1 9 1q5 0 8 -1q18 -3 31 -19q8 -12 12 -31q2 -26 -3 -60q-13 -53 -38 -105q-26 -54 -102 -184q16 -85 45 -145q1 -2 9 -16q7 64 38.5 120.5t85.5 56.5
q24 0 46.5 -12.5t33.5 -32.5q13 -24 8 -58q-7 -29 -14 -40q48 0 70 8t53 41q13 14 49 70q3 3 6 2zM10 383q-12 -95 6 -208q53 86 85 176q3 8 8.5 25.5t8.5 25.5q7 24 12 52q7 28 4 50q-3 26 -21 30h-22q-30 -8 -53 -48q-22 -46 -28 -103zM134 -25q67 0 112 48
q-58 0 -103 -12q-10 -4 -14 -6q-13 -9 -11 -18q2 -10 16 -12z" />
    <glyph glyph-name="c" unicode="c" horiz-adv-x="342" 
d="M345 153q4 -2 2 -6q-117 -187 -238 -187q-66 0 -107 49q-31 41 -28 88q2 55 48 77q13 7 29 7q6 0 16 -2q17 -5 39 -21q3 -2 1 -6q-2 -2 -4 -2t-3 1q-15 16 -35 20q-3 1 -10 1q-25 0 -39 -24.5t-14 -52.5q-3 -39 19 -72q20 -34 62 -45q12 -4 29 -4q114 0 227 177q1 1 3 2
t3 0z" />
    <glyph glyph-name="d" unicode="d" horiz-adv-x="479" 
d="M483 154q2 -2 1 -5q-123 -189 -225 -189q-69 0 -109 87q-44 -38 -76 -42q-7 -2 -21 -2q-29 0 -54 14t-32 40q-8 31 8 65q15 34 46 46q11 5 27 5q20 0 35 -9h1q3 -1 1 -5t-4 -2q-11 3 -20 3q-45 0 -63 -48q-9 -22 -6 -49q6 -48 62 -48q35 0 69 24q21 18 22 19
q-46 114 -49 269q0 214 68 232q22 0 34 -7q34 -15 48 -80q11 -47 7 -119q-15 -202 -86 -288q6 -16 10 -23q1 -2 3.5 -6t3.5 -6l8 -12q32 -37 67 -39q91 0 216 172l2 2q3 3 6 1zM122 327q3 -140 40 -250q37 43 55.5 124.5t19.5 152.5q3 63 -9 114q-14 69 -61 69
q-16 -4 -28 -37q-6 -18 -12 -56q-7 -51 -5 -117z" />
    <glyph glyph-name="e" unicode="e" horiz-adv-x="264" 
d="M268 154q3 -1 1 -5q-3 -5 -13 -19.5t-13.5 -19t-12 -17t-12.5 -17.5t-12.5 -15t-14 -16t-14 -14t-16.5 -14.5t-17 -12.5q-33 -23 -71 -23q-19 0 -51 12q-14 8 -23 17q-18 20 -21 50q-4 46 21 98q33 64 68 64q6 0 12 -3q13 -8 13 -28q0 -13 -5 -26q-15 -49 -82 -110
q3 -18 13 -29q9 -9 14 -12q14 -6 20 -8q15 -6 32 -6q7 0 11 1q76 11 166 151q1 1 3.5 2t3.5 0zM67 205q-25 0 -44.5 -49t-19.5 -79q23 17 49 52q13 21 20 41q4 14 4 21q0 11 -5 13q-1 1 -4 1z" />
    <glyph glyph-name="f" unicode="f" horiz-adv-x="266" 
d="M270 153l1 -6l-90 -122q-72 -96 -141 -142q-2 -49 -13 -107t-32.5 -119t-60 -101t-87.5 -40q-33 0 -56 20.5t-29 53.5q-7 38 10 79q36 89 168 162q50 28 73 44q1 42 0 84q-2 123 -16 214q-81 -10 -139 -56q-4 -2 -5 -2q-3 0 -6 3q-4 6 1 10q61 54 145 63q-9 37 -15 75
q-12 91 -6 158q5 66 33 115q24 33 48 33q5 0 7 -1q13 -3 20 -12q12 -11 20 -36q10 -33 8 -80q-3 -109 -66 -245q2 1 4 1q65 9 100 27.5t65 69.5q1 4 7 4q2 0 3 -1q6 -3 3 -10q-27 -54 -68 -77.5t-107 -31.5q-3 0 -8.5 -1t-8.5 -1q-5 -11 -7 -13q13 -74 15 -206q2 -33 0 -66
q2 1 13 9.5t16 13.5q46 36 105 114l89 121q2 4 7 2zM3 270q4 -25 16 -75q8 2 13 2q61 133 64 247q2 42 -8 75q-8 21 -18 30q-8 8 -18 8q-6 0 -9 -2q-43 -21 -52 -133q-4 -71 12 -152zM-115 -460q112 59 128 324q-31 -21 -68 -42q-129 -72 -162 -157q-16 -38 -9 -73
q5 -28 24.5 -45t46.5 -17q23 0 40 10z" />
    <glyph glyph-name="g" unicode="g" horiz-adv-x="445" 
d="M450 153q2 -2 0 -6q-77 -116 -178 -199q-8 -6 -11 -9q2 -14 3 -20q18 -163 5 -271q-11 -79 -37 -132q-33 -69 -107.5 -122.5t-146.5 -53.5q-64 0 -108.5 41t-48.5 105q-5 71 29 132q20 36 56.5 72t65.5 57t76 53q136 91 190 133q-9 84 -31 189q-10 -40 -57 -68
q-15 -11 -34 -17q-20 -8 -38 -11q-2 0 -6.5 -0.5t-6.5 -0.5q-13 0 -30 5q-12 5 -24 17q-1 3 -3 5q-2 4 -6 10q-17 38 -5 83q11 42 43.5 68t76.5 29q40 0 76 -13q5 -4 4 -8q-3 -5 -7 -4q-21 4 -48 4q-52 0 -83 -28q-24 -20 -34 -55t3 -63q2 -5 4 -7l2 -2l2 -3q8 -13 41 -16
q47 0 84 27.5t40 73.5q-4 20 -7 30q-2 4 2 8l1 2l4 2h1q2 1 3 1q6 0 8 -8q29 -111 46 -233q4 2 7 5q104 85 176 196q3 3 6 3q1 0 2 -1zM240 -84v6q-27 -21 -186 -131q-45 -31 -73.5 -52t-64.5 -56.5t-55 -69.5q-33 -59 -28 -126q5 -58 42.5 -93t95.5 -35q80 0 157 68
q56 52 80.5 99.5t34.5 125.5q14 112 -3 264z" />
    <glyph glyph-name="h" unicode="h" horiz-adv-x="432" 
d="M435 153q4 -4 2 -6q-99 -154 -156 -184q-17 -11 -32 -11q-16 0 -29.5 9.5t-22.5 29t-15 35.5t-10 43t-5.5 38t-3.5 32l-3 68q-4 23 -12 26q-1 1 -4 1q-10 0 -22 -12q-33 -29 -52.5 -84t-19.5 -104l-1 -10v-6q0 -2 -2 -6q-2 -2 -5 -2t-4 1q-2 2 -3 2q-2 4 -3.5 7.5t-3 7.5
t-2.5 6q-24 78 -40 167q-16 92 -15 171q4 63 26.5 120t69.5 71q10 2 15 2q14 0 22 -7q1 0 11 -8q15 -15 20 -42q3 -20 1 -44q-12 -118 -123 -318q14 -72 25 -106q1 12 3 38q17 111 66 160q15 13 20 15q10 4 19 4q3 0 11 -2q21 -8 29 -44v-1q11 -129 12 -136q6 -44 13 -65
q12 -40 36 -44q15 0 29 7q9 6 27 20q47 44 127 160q2 2 5 1zM-3 371q-4 -73 8 -167q1 -14 5 -35q99 183 110 296q4 52 -17 73q-3 3 -7 5q-2 4 -8 4q-2 1 -5 1q-4 0 -10 -2q-38 -13 -56 -67t-20 -108z" />
    <glyph glyph-name="i" unicode="i" horiz-adv-x="225" 
d="M16 273q-13 0 -13 13v8q0 13 13 13t13 -13v-8q0 -13 -13 -13zM228 153q4 -2 2 -6q-44 -67 -70 -95q-53 -57 -104 -57q-33 3 -49 41q-10 25 -8 61q1 28 2 53q0 10 11 10q9 -2 9 -10v-19.5t-0.5 -7.5t-1 -7.5t-0.5 -18.5q-2 -32 6 -54q9 -29 33 -32q71 0 164 140q3 3 6 2z
" />
    <glyph glyph-name="j" unicode="j" horiz-adv-x="247" 
d="M251 152q2 -2 1 -5q-89 -133 -190 -208q2 -14 3 -20q18 -163 5 -271q-17 -127 -76 -190q-43 -51 -99.5 -84.5t-114.5 -33.5q-65 0 -108.5 40.5t-49.5 105.5q-5 69 30 132q19 35 55.5 71.5t66.5 58t75 52.5q123 81 190 133q-3 24 -6 45t-8 43.5l-8 36t-11 43t-11 43.5
q-2 10 7 12h2q1 1 2 1q6 0 9 -8q40 -160 45 -199q3 1 7 5q106 87 177 196q2 2 4 2t3 -1zM42 -84q-1 2 -1 6q-27 -21 -186 -131q-44 -29 -73.5 -51t-65 -57.5t-54.5 -69.5q-33 -60 -27 -126q4 -58 42 -93t95 -35q55 0 110.5 33.5t91.5 81.5q54 61 70 178q14 109 -2 264z
M-44 345q-14 0 -14 12l-1 10q-2 12 11 14t15 -12l1 -10q0 -12 -12 -14z" />
    <glyph glyph-name="k" unicode="k" horiz-adv-x="479" 
d="M482 154q4 -2 2 -7q-35 -66 -87.5 -107.5t-119.5 -41.5q-62 0 -134 36q0 -12 -2 -34l-3 -27q-5 -22 -8 -28t-9 -7h-2q-1 0 -2 -1h-4q-32 7 -56 43t-34 76q-35 99 -35 214q2 59 14 109q40 149 89 169q8 2 12 2q13 0 20 -6q25 -15 29 -50q3 -26 -2 -55q-19 -117 -125 -282
q22 -166 78 -204q1 0 5 -1.5t6 -1.5h3h2q5 9 7 25q2 8 4 26l3 39q-23 12 -43 28q-4 4 -1 11q2 2 6 2v1v-1q16 1 43 5q2 14 3 22q5 22 10.5 37t15 32t25.5 26t38 9q14 0 28 -6q16 -7 25.5 -22.5t8.5 -32.5q-8 -66 -146 -81q0 -6 -2 -20q71 -39 134 -39q121 0 198 140q2 5 6 3
zM55 474q-34 -91 -37 -204q0 -44 5 -97q97 150 114 268q5 29 1 51q-3 29 -22 39q-5 4 -11 4q-21 0 -50 -61zM206 184q-45 -19 -58 -97q24 4 47.5 10.5t48 22t24.5 33.5q2 20 -21 30q-10 5 -21 5q-8 0 -20 -4zM117 67q6 -3 18 -11q0 9 1 13q-3 -1 -9.5 -1t-9.5 -1z" />
    <glyph glyph-name="l" unicode="l" horiz-adv-x="381" 
d="M378 151q3 3 5 3q4 0 3 -7q-23 -35 -54 -74t-70.5 -81t-83 -70.5t-79.5 -31.5q-57 0 -81 64q-17 38 -24 98q-10 79 5 196q27 203 89 281q24 26 49 27q12 0 19 -10q4 -5 6 -15q3 -12 1 -27q-4 -69 -49.5 -170t-95.5 -180q-2 -60 3 -99q12 -137 77 -145q46 0 105.5 46
t102.5 97t72 98zM137 535q-24 -2 -45.5 -38t-35 -90.5t-20.5 -92t-11 -69.5q-2 -14 -4 -41t-2 -29q118 212 125 330q0 30 -7 30z" />
    <glyph glyph-name="m" unicode="m" horiz-adv-x="519" 
d="M522 154q4 -2 2 -7q-25 -49 -72.5 -115.5t-81.5 -92.5q-18 -11 -30 -12q-22 0 -32 16q-9 12 -13 28q-3 10 -3.5 53.5t-6.5 76.5t-23 36q-25 0 -47 -16q-26 -18 -69 -71q-6 -8 -16 -20q-8 -8 -11 -10q-1 0 -2.5 -0.5t-3.5 -0.5t-6 2q-4 3 -6 8t-4 27q0 4 -0.5 13t-0.5 13
q0 34 -3 45l-2 5q0 1 -3 2q-12 0 -20 -7t-29 -40l-23 -45l-16 -35q-1 -1 -2 -3t-2 -3q0 -1 -3 -2q-6 -2 -6 3q-1 1 -1 2v4q10 92 10 138q0 10 10 10t10 -10q-2 -20 -6.5 -48.5t-5.5 -40.5q-4 -22 -5 -33l10 22q45 94 75 107q2 1 8 1q17 0 25 -18q5 -19 1 -55q-5 -42 -4 -48
q1 -3 0 -3l9 6q5 5 17 19q54 67 66 78q27 23 48 27q3 1 8 1h4h4q13 0 23.5 -9.5t14.5 -22.5q4 -14 5 -39t0 -49t-0.5 -46t7 -35.5t19.5 -13.5q16 1 43 27t56 65.5t46 64t32 48.5q2 5 6 3z" />
    <glyph glyph-name="n" unicode="n" horiz-adv-x="417" 
d="M421 154q3 -3 1 -7q-26 -49 -107 -144.5t-116 -95.5q-5 0 -8 1q-26 7 -36 57q-4 23 -5.5 48.5t-1.5 59t-1 48.5q0 25 -7 31q-2 2 -7 2h-4q-6 -1 -7 -2q-1 0 -4 -2t-4 -2q-27 -20 -62 -61t-43 -67q-4 -8 -10 -8q-2 0 -6 2q-6 4 -4 11q13 22 8 119q-2 10 8 12q9 2 11 -8h1
q3 -10 2.5 -42t-3.5 -53l30 41q32 45 56 68q14 14 32 14q10 0 20 -6q18 -13 18 -49q0 -23 -1 -34q-3 -29 -1.5 -72.5t12.5 -72.5q7 -15 13 -16q13 0 21 6q49 36 108 101t90 118q3 5 7 3z" />
    <glyph glyph-name="o" unicode="o" horiz-adv-x="345" 
d="M349 153q3 -2 1 -6q-69 -130 -177 -136q-5 -32 -23 -53t-49 -21q-38 0 -58 20q-14 12 -19 33q-3 19 0 37q1 13 8 32q-31 25 -40 61q-4 23 10 37q11 12 35 14h9q16 0 28 -4q37 -9 65.5 -37t32.5 -64q4 -19 2 -47q57 6 94 39t74 93q2 4 7 2zM150 63q-4 50 -52 79
q-40 -25 -58 -78q37 -32 87 -43q16 -2 24 -2q2 24 -1 44zM15 92q8 -12 20 -24q4 9 12 25q22 36 45 52q-9 5 -22 10q-18 5 -32 5q-20 -2 -28 -11q-10 -11 -7.5 -27.5t12.5 -29.5zM111 -44q13 3 21 13t11 17.5t7 23.5q-3 0 -7.5 0.5t-8.5 1t-8 1.5q-52 9 -89 42q-5 -15 -6 -29
q-4 -41 21 -58q19 -14 43 -14q6 0 16 2z" />
    <glyph glyph-name="p" unicode="p" horiz-adv-x="404" 
d="M408 153q3 -3 1 -6q-69 -137 -179 -137q-25 0 -69 10l-14 -11q-27 -19 -57 -25q-8 -2 -24 -2q-20 0 -38 6q-17 7 -27 18q-15 17 -5 35q11 24 44 24q10 0 14 -1q13 -2 58 -16l36 -12q14 14 20 30q7 23 -7 47t-39 32q-15 6 -32 6q-7 0 -23 -2q-32 -7 -55 -16q-4 -12 -7 -18
q-13 -42 -20 -76q-15 -76 -13 -157q0 -34 4.5 -71t15 -83.5t34.5 -76t57 -29.5q11 2 11 -9q2 -9 -9 -11q-41 0 -70 30t-42 79.5t-18 88t-7 81.5q-3 80 14 162q26 117 63 154q2 2 6 2q5 0 8 -3q5 -7 0 -14q-9 -9 -20 -31q0 -2 -2 -6q34 13 48 16q24 6 39 6q12 0 24 -3
q33 -7 54.5 -40t6.5 -66q-5 -13 -18 -28q32 -9 55 -9q107 0 175 130q3 3 5 3h1zM136 24l3 3l-31 9q-41 14 -56 16q-2 0 -5 0.5t-5 0.5q-8 0 -16 -3q-14 -4 -19 -15q-6 -10 2.5 -20.5t22.5 -15.5q15 -5 30 -5q39 0 74 30z" />
    <glyph glyph-name="q" unicode="q" horiz-adv-x="338" 
d="M342 153q4 -3 1 -6q-63 -78 -126 -189t-70 -183q4 -18 7 -26q27 -95 90 -100q6 0 6 -6q-2 -6 -13 -6q-33 0 -69 32q-31 27 -33 75q0 14 1 21q-21 63 -27 129q-3 40 0 85q-15 -3 -33 -3q-93 0 -110 61q-10 29 0 62.5t36 54.5q32 26 74 29q51 0 75 -18q9 19 21 28q1 1 5 1
t6 -2q5 -6 0 -11q-9 -9 -18 -29q20 -24 20 -60q0 -3 -2 -3q-3 0 -3 3q0 34 -17 55q-19 -48 -29 -151q21 4 42 19t28 33q2 3 5 3q3 -1 3 -5v-1q-16 -43 -79 -61q-3 -39 -1 -88q2 -48 9 -94q18 76 74.5 172.5t119.5 176.5q4 4 7 2zM74 -11q12 0 36 2q10 118 38 168q0 1 1 2
q-24 17 -57 17q-10 0 -15 -1q-40 -5 -66 -31t-26 -67q0 -36 25 -61t64 -29zM181 -328q-16 18 -34 61q6 -43 34 -61z" />
    <glyph glyph-name="r" unicode="r" horiz-adv-x="320" 
d="M323 153q4 -2 2 -6q-24 -45 -54 -85t-75.5 -76t-89.5 -40q-46 0 -51 48q-4 52 26 101q8 14 12 20q-57 0 -92 28l-48 -66q-2 -2 -4 0q-3 3 0 5q25 32 48 66q-1 0 -1 0.5t-1 0.5q-23 33 -17 48q2 7 12.5 11.5t20.5 4.5q13 0 15 -9q2 -7 -5 -26q-3 -7 -11 -21l-1 -2
q27 -22 62 -22q31 0 56 17q4 2 6 2q5 0 8 -5q4 -6 -1 -11q-6 -10 -19.5 -27t-18.5 -26q-30 -49 -30 -88q0 -18 8 -25q10 -10 26 -10q12 0 30 6q54 20 96 67t85 118q2 4 6 2zM-10 175q3 -6 13 -16q8 13 12 22q9 21 -2 24q-21 0 -27 -11q-3 -8 4 -19z" />
    <glyph glyph-name="s" unicode="s" horiz-adv-x="338" 
d="M341 153q4 -2 2 -6q-11 -21 -22.5 -37.5t-20.5 -28.5t-24 -23t-22.5 -17t-28.5 -14t-29.5 -11.5t-37 -13l-40.5 -13.5q3 -2 6.5 -24.5t1.5 -31.5q-3 -40 -35.5 -64t-73.5 -26q-22 0 -37 5q-56 20 9 80q45 42 91 59q5 2 9 3q-14 25 -69 79q-39 39 -28 72q5 18 25.5 28
t44.5 10q20 0 30 -5q17 -8 25 -28t0 -38q-1 -3 -8 -3q-7 2 -3 8v1q8 12 2 29t-20 23q-8 3 -21 3q-22 0 -39.5 -8t-19.5 -24q-3 -14 18 -39.5t50.5 -55t37.5 -44.5q9 3 33.5 10.5t31.5 10t26 9.5t25.5 11.5t21.5 13t22.5 17t19 21t21.5 27t20 33.5q2 4 6 2zM102 -65
q3 21 -8 46q-25 -4 -77 -44q-70 -53 -41 -71q3 -3 8 -4q11 -2 32 -2q33 3 59 23.5t27 51.5z" />
    <glyph glyph-name="t" unicode="t" horiz-adv-x="389" 
d="M605 447q5 -5 1 -8v-1q-22 -30 -34 -38q-60 -39 -186 -39q-24 0 -70.5 1.5t-66.5 1.5h-20q-112 -7 -183 -19q-22 -117 -22 -195q-2 -83 4 -134q8 -84 60 -102q6 -2 7 -3q2 0 4.5 -0.5t3.5 -0.5q5 -1 16 -1q94 9 267 242q2 4 6 2q1 -1 2 -3t0 -3q-136 -196 -239 -243
q-22 -8 -35 -9q-3 -1 -9 -1t-10 1q-1 0 -4 0.5t-5 0.5l-9 3q-37 10 -57 45q-31 57 -31 206q0 68 27 191q-112 -21 -171 -55q-1 -1 -3 -1q-4 0 -5 3q-4 5 2 9q59 38 182 62q36 148 85 184q2 2 4 2q3 0 6 -3q4 -6 -2 -10q-39 -29 -70 -168q113 20 209 20q19 0 65.5 -2t71.5 -2
q114 0 167 33q14 9 33 33q2 2 5 2t4 -1z" />
    <glyph glyph-name="u" unicode="u" horiz-adv-x="333" 
d="M337 154q1 0 1.5 -3t-0.5 -4q-32 -51 -76.5 -106t-78.5 -73q-14 -6 -16 -6q-1 0 -3 -0.5t-3 -0.5q-7 0 -14 4q-25 19 -25 79q-30 -44 -61 -69q-6 -4 -16 -7q-7 -3 -16 -3q-3 -1 -10 -1q-49 0 -49 72q4 44 32 119q2 6 8 6q3 0 4 -1q9 -2 5 -11v-1q-26 -63 -25 -113
q0 -33 13 -45q6 -5 21 -7q9 0 14 1q32 0 80 81q2 35 5 52q4 20 8 30q6 20 16 29q4 4 10 4q10 2 12 -8v-18q-1 -5 -9 -29q-16 -36 -25 -53q-1 -5 -1 -16q0 -33 8 -56q6 -25 22 -25q7 0 10 2q21 11 46 36q34 34 106 138q3 3 7 3zM148 143q-4 -13 -6 -28q0 -3 -1 -8.5t-1 -8.5
q5 10 13 30q7 23 8 28q2 9 0 12l-2 -2q-7 -6 -11 -23z" />
    <glyph glyph-name="v" unicode="v" horiz-adv-x="335" 
d="M338 153q1 -1 2 -3t0 -3q-63 -116 -138 -116q-6 0 -20 2q-40 8 -72 49q-17 -83 -38 -98q-3 -3 -7 -3h-5h-2l-1 1q-12 3 -18 18q-27 41 -44 145q-2 9 8 11h2q8 0 10 -8q17 -92 41 -138q4 -6 6 -8q6 4 10 15q16 32 27 81q-13 20 -19 46q-4 12 -3 27q0 17 12 26q10 4 16 4
q10 -2 12 -13q3 -9 3 -27q0 -23 -5 -51q-1 -3 -2 -8.5t-1 -8.5q32 -44 71 -52q7 -2 20 -2q65 0 129 112q1 1 3 2t3 0zM89 146q3 -15 13 -36v2q5 21 7 50q0 29 -6 29q-5 0 -8 -3q-7 -4 -9 -18q0 -12 3 -24z" />
    <glyph glyph-name="w" unicode="w" horiz-adv-x="414" 
d="M416 154q4 -2 3 -5q-21 -35 -37.5 -57.5t-47.5 -45t-63 -22.5q-22 0 -52 14q-21 -50 -75 -50q-27 0 -50 14.5t-36 38.5q0 -23 -20.5 -44.5t-44.5 -24.5h-7q-24 0 -34 20t-8.5 44t9.5 47q22 51 47 73q1 1 4 1t4 -2q4 -4 0 -8q-25 -23 -40 -69q-5 -16 -7.5 -32t4 -33.5
t26.5 -17.5q28 0 42.5 23.5t15.5 60.5q0 7 5 4q5 0 5 -4q8 -31 31.5 -51t55.5 -20q20 0 36 11t22 29q-29 21 -56.5 61.5t-42.5 78.5q-1 3 1.5 4.5t7.5 1.5q33 0 63.5 -36t41.5 -72q6 -23 2 -39q28 -15 50 -15q68 0 140 121q1 1 2.5 1.5t2.5 -0.5zM114 189q39 -89 91 -131
q0 38 -28 81t-63 50z" />
    <glyph glyph-name="x" unicode="x" horiz-adv-x="354" 
d="M357 152q4 0 2 -5q-32 -60 -78 -106t-99 -49q-28 0 -61 18q-17 12 -44 41q-20 -35 -24 -68q0 -9 -11 -9q-9 2 -9 12q1 1 1 2q14 35 18 43q2 5 7.5 15t8.5 15q-36 39 -69 81q-7 6 1 14q4 2 6 2q4 0 8 -4l65 -75l21 31l30 36q4 4 8 4q3 0 6 -3q8 -7 1 -14q0 -1 -0.5 -1
t-0.5 -1h-1q-22 -17 -56 -62l4 -4q50 -56 91 -56q27 0 52 12.5t48.5 39t35.5 42.5t33 48q1 2 3 2t3 -1z" />
    <glyph glyph-name="y" unicode="y" horiz-adv-x="404" 
d="M408 154q3 -1 1 -7q-72 -110 -181 -200q-3 -3 -11 -9q1 -6 3 -20q19 -155 5 -270q-17 -123 -76 -191q-97 -118 -213 -118q-64 0 -109 41t-49 105q-5 71 29 132q42 79 198 182q136 91 190 133q-17 132 -42 233q-87 -183 -158 -183q-11 0 -20 4q-18 7 -22 26q-3 17 0 32
q7 40 43 106q2 5 8 5q3 0 5 -1q9 -6 4 -13q-34 -63 -42 -100q-6 -33 11 -39q8 -3 17 -3q42 0 101 89q13 21 52 97q1 2 2 3q2 1 3 2h1q10 2 12 -7q29 -115 46 -234q1 1 3 2.5t3 2.5q107 89 179 197zM197 -85q0 5 -1 7q-50 -39 -186 -132q-77 -54 -107 -79q-61 -53 -86 -99
q-32 -60 -27 -126q4 -57 42.5 -92.5t95.5 -35.5q79 0 157 69q52 46 78.5 98.5t35.5 125.5q14 109 -2 264z" />
    <glyph glyph-name="z" unicode="z" horiz-adv-x="387" 
d="M392 153q1 -1 1 -6q-37 -54 -65 -87t-66.5 -62.5t-84.5 -42.5t-106 -13q-24 0 -54 5q-3 0 -8 1.5t-6 1.5q-11 5 -16 10q-3 6 -3 7v3v1v2q0 2 0.5 3.5t1.5 3t1 2.5q2 5 8 13q9 12 39 42q28 25 86 71q4 3 11 8.5t10 8.5l9 9q3 2 3 3v1l-4 4q-27 9 -73 9q-41 0 -73 -4
q-5 0 -5 4q-2 6 4 6q49 8 111 8q25 0 44 -8q11 -7 14 -16l1 -2v-3q0 -3 -1 -5t-1 -3q-2 -3 -6 -7q-3 -4 -10 -11q-4 -3 -11 -9.5t-10 -9.5l-85 -70q-31 -28 -38 -37q-1 -1 -7 -10q-1 0 -1 -2t-1 -2q3 -2 7 -4q2 0 6 -1.5t6 -2.5q24 -4 57 -4q59 0 102.5 11t79.5 38.5
t62.5 58.5t63.5 85q1 1 3.5 2t3.5 0z" />
    <glyph glyph-name="braceleft" unicode="{" horiz-adv-x="500" 
d="M141 -174l-3 -8q-50 19 -62.5 67.5t-4.5 119.5q4 43 6 78.5t-15 61.5t-57 33v11q40 6 57 32t15 62t-6 79q-18 155 67 186l3 -7q-24 -9 -37 -26.5t-16 -46t-1.5 -48.5t5.5 -58q3 -41 6 -76.5t-13 -64t-52 -37.5q36 -10 52 -39t13 -64.5t-6 -76.5q-4 -38 -5.5 -58
t1.5 -48.5t16 -45.5t37 -26z" />
    <glyph glyph-name="bar" unicode="|" horiz-adv-x="270" 
d="M158 504q3 -70 -5 -256q-1 -29 -2.5 -83t-2.5 -108t-2 -113l-19 6q2 206 4 306q1 22 1.5 64.5t1.5 68t3.5 59.5t7.5 61z" />
    <glyph glyph-name="braceright" unicode="}" horiz-adv-x="263" 
d="M130 -180l-4 8q24 9 37 26t16 46t2 48t-5 58q-4 41 -6.5 76.5t13 64.5t51.5 39q-36 9 -51.5 37.5t-13 64t6.5 76.5q4 39 5 58t-2 48t-16 46.5t-37 26.5l4 7q49 -18 61.5 -66.5t5.5 -119.5q-5 -43 -7 -79t15.5 -62t56.5 -32v-11q-39 -7 -56.5 -33t-15.5 -61.5t7 -78.5
q7 -71 -5.5 -119.5t-61.5 -67.5z" />
    <glyph glyph-name="asciitilde" unicode="~" horiz-adv-x="458" 
d="M223 98q-6 3 -17 9.5t-19 9.5t-18 3h-8q-27 -3 -58 -27l-14 4q41 33 96 33q46 0 72 -14q46 -22 61 -22q21 0 41 15l11 -8q-9 -6 -28 -11.5t-29 -5.5q-9 -2 -25 -2q-41 0 -65 16z" />
    <glyph glyph-name="exclamdown" unicode="&#xa1;" horiz-adv-x="175" 
d="M143 502q-8 -1 -12 4t-1 13q1 8 8.5 13.5t14.5 4.5q9 1 12.5 -4.5t1.5 -13.5q-6 -19 -24 -17zM119 -145l-14 -4q-4 56 7 254q3 57 10 163t9 142l20 4q-5 -77 -10.5 -178.5t-6.5 -124.5q-8 -196 -15 -256z" />
    <glyph glyph-name="cent" unicode="&#xa2;" horiz-adv-x="323" 
d="M281 241q2 -6 -4 -8q-6 0 -8 4v1q-4 30 -21.5 52.5t-45.5 22.5q-7 0 -23 -4q0 -14 -6 -119q-1 -29 -3 -85t-3 -86q59 0 95 61q2 3 5 3q2 0 3 -1q4 -2 2 -7q-17 -32 -44.5 -51.5t-60.5 -19.5q-2 -38 -2 -60l-19 5q0 9 0.5 28.5t0.5 28.5q-13 1 -31 10q-42 19 -63 64
t-18 94q5 49 33 93t71 59q5 3 17 5q3 40 10 71l13 -4q1 -23 1 -64q42 0 65.5 -24t35.5 -69zM147 22q4 185 7 274q-71 -46 -86 -126q-10 -43 3 -80q22 -55 76 -68z" />
    <glyph glyph-name="sterling" unicode="&#xa3;" horiz-adv-x="500" 
d="M476 -61q4 -4 2 -7q-27 -49 -80 -49q-14 0 -42 6q-28 8 -122 51l-57 29q-13 -38 -56 -59.5t-87 -21.5q-62 0 -104 37q-15 17 -12 34q1 16 16 31q22 25 57 36q13 5 34 7q10 0 34 -2q29 -4 65 -16q12 -3 36 -13q0 19 -1 28q-4 74 -35 187q-31 13 -51 15q-5 1 -14 1
q-27 0 -50 -13q-5 -2 -5 2q-2 4 1 5q28 15 55 15q10 0 14 -1q18 -1 48 -13q-8 35 -8 78q-7 0 -11 1q-31 4 -62 22q-4 2 -2 5q2 2 5 1q35 -20 70 -23q0 35 6.5 81t20 97t39.5 85.5t59 34.5q1 0 3.5 -0.5t3.5 -0.5q11 -2 18 -6q8 -3 15 -11q21 -22 23 -65q0 -46 -19 -94.5
t-57.5 -85.5t-85.5 -41q2 -49 9 -80q1 -2 1 -5t1 -4q17 -5 31 -5q37 0 76 45q2 3 5 0q3 -1 1 -5q-42 -50 -82 -50q-10 0 -28 4q29 -100 29 -175q2 -21 -1 -38q29 -13 63 -31q74 -39 117 -53q21 -8 41 -8q41 0 66 36q1 3 4 3h1zM244 592q-29 0 -51 -34.5t-32.5 -84t-15.5 -91
t-5 -69.5q72 8 119 92q33 62 32 122q-1 25 -12.5 45t-34.5 20zM154 -30q1 2 3 8l-40 18q-51 18 -92 22q-51 0 -85 -34q-12 -16 -13 -26q-1 -14 11 -25q17 -17 56 -25q18 -2 29 -2q38 0 79 17t52 47z" />
    <glyph glyph-name="yen" unicode="&#xa5;" horiz-adv-x="447" 
d="M8 676q-7 13 6 21q4 2 6 2q9 0 15 -9l181 -318l182 318q4 9 15 9q2 0 6 -2q13 -8 6 -21l-193 -334v-93l107 1q5 0 9.5 -4.5t4.5 -9.5t-4 -9.5t-10 -4.5h-107l-1 -75h108q5 0 9.5 -4t4.5 -10q0 -13 -14 -13h-108v-111q0 -15 -15 -15q-14 0 -14 15v110h-111q-14 0 -14 13
q0 14 14 14h111v75h-111q-14 0 -14 14q0 13 14 13l111 1v91z" />
    <glyph glyph-name="section" unicode="&#xa7;" horiz-adv-x="109" 
d="M18 -14q-38 14 13 55q33 26 52 30q-10 17 -41 48q-25 22 -17 43q6 23 42 23q8 0 12 -2q-7 11 -37 41q-25 22 -17 43q6 23 42 23q13 0 18 -3q10 -5 14.5 -16.5t0.5 -22.5q-1 -2 -5 -2q-1 0 -2 2v3q5 7 1.5 17t-12.5 14q-6 2 -12 2q-33 0 -36 -19q-1 -8 9 -21t27 -30
t23 -25q1 -1 2.5 -3.5t2.5 -3.5q-1 0 1 -3l1 -3q2 -2 4 -15t1 -18q-1 -21 -8.5 -27t-26.5 -7q26 -28 28 -32q-1 0 2 -6q2 -2 4 -15.5t1 -18.5q-1 -24 -21 -38.5t-44 -15.5q-12 0 -22 3zM86 66q-18 -3 -52 -31q-40 -33 -14 -41q7 -1 19 -1q20 2 35.5 14.5t16.5 30.5
q1 14 -5 28zM34 159q-2 -10 30 -44q14 2 20 7.5t7 21.5q1 8 -7 32q-1 1 -2 1q-6 2 -12 2q-33 0 -36 -20z" />
    <glyph glyph-name="dieresis" unicode="&#xa8;" horiz-adv-x="129" 
d="M31 257q18 0 18 -17q0 -8 -5.5 -13t-12.5 -5q-17 0 -17 18q0 17 17 17zM103 251q7 0 12 -5.5t5 -12.5t-5 -12t-12 -5t-12.5 5t-5.5 12t5.5 12.5t12.5 5.5z" />
    <glyph glyph-name="copyright" unicode="&#xa9;" horiz-adv-x="500" 
d="M195 184q45 0 59 -53v-1q2 -4 -2 -4q-5 -2 -5 2q-3 29 -24 41q-7 3 -15 3q-26 0 -49.5 -27.5t-28.5 -55.5q-5 -26 2 -46q6 -18 22 -30t35 -12q33 0 54 36q2 2 5 1q2 -2 1 -4q-21 -42 -62 -42q-13 0 -29 7q-24 11 -36.5 37.5t-10.5 54.5q3 29 19.5 55t41.5 34q9 4 23 4z
M6 92q5 82 58.5 127.5t124.5 45.5q70 0 122.5 -45t56.5 -127q-4 -76 -55 -125t-127 -54h-8q-69 0 -122.5 54.5t-49.5 123.5zM172 -71q77 0 124.5 43.5t51.5 119.5q-3 66 -46.5 114.5t-108.5 48.5q-68 0 -119.5 -47t-47.5 -115q3 -63 43.5 -111.5t102.5 -52.5z" />
    <glyph glyph-name="ordfeminine" unicode="&#xaa;" horiz-adv-x="149" 
d="M144 674q1 -1 0 -2q-16 -24 -20 -29q-17 -23 -34 -29h-3q-8 0 -11.5 9t-3.5 22t-1 15q-4 -2 -6 -4q-4 -3 -12.5 -11.5t-13.5 -12.5q-8 -4 -13 -4q-10 0 -14 10q-5 9 2.5 21.5t17.5 19.5q12 8 20 8q3 0 7 -2q3 -1 8 -6q1 -1 0 -3h-1h-2q-5 6 -14 6q-6 -1 -13 -8
q-27 -28 -15 -40q2 -2 6 -2t9 3t13.5 11.5t12.5 11.5q2 2 4 3q1 0 2 1t2 1q3 -3 6 -23.5t11 -20.5q16 0 54 55h2z" />
    <glyph glyph-name="guillemotleft" unicode="&#xab;" horiz-adv-x="290" 
d="M140 2q-4 0 -6 3l-122 135q-4 4 -4 12q0 11 4 12l122 134l6 3q4 0 8 -7q6 -13 -2 -21l-111 -121l111 -122q7 -9 2 -22q-3 -6 -8 -6zM242 6q-4 0 -6 3l-122 135q-4 4 -4 12q0 11 4 12l122 134l6 3q4 0 8 -7q6 -13 -2 -21l-111 -121l111 -122q7 -9 2 -22q-3 -6 -8 -6z" />
    <glyph glyph-name="registered" unicode="&#xae;" horiz-adv-x="500" 
d="M155 358q-43 0 -76.5 34.5t-31.5 77.5q3 52 37 81t79 29q44 0 77 -28.5t36 -80.5q-2 -50 -36.5 -81.5t-84.5 -31.5zM166 574q-43 0 -76 -30t-31 -73q2 -40 28 -71t65 -33q48 0 79 28t33 75q-2 40 -28 71t-65 33h-5zM105 522q0 2 4 4q34 2 41 2q4 0 10.5 -0.5t9.5 -1.5
q14 -2 21 -6q6 -4 9 -9q3 -7 2 -13q-3 -20 -29 -32q2 -4 5.5 -10t4.5 -7q0 -1 1 -3t1 -3l2 -5q2 -5 4 -7q4 -8 11 -11q8 -2 11 -2q1 0 3.5 0.5t3.5 0.5q5 0 5 -3q0 -4 -3 -4q-4 -1 -12 -1q-7 0 -10 1q-6 1 -11 5q-1 1 -3.5 4t-3.5 5q-3 4 -7 14q0 3 -2 5q-4 9 -9 16
q-3 0 -6.5 -0.5t-5.5 -0.5h-11q0 -15 -3 -30q0 -1 -2 -7q-2 -4 -5 -7q-5 0 -7 2q-2 4 1 7l2 2q1 2 1 6q2 6 2 11v17l-4 2q-5 3 -5 5q-1 3 0 6l3 3q4 2 6 2v15q-2 16 -2 25q-12 0 -18 -1q-4 0 -5 4zM169 518q-11 2 -32 2q2 -16 3 -26v-15q9 0 11 -1q8 -2 14 -6q13 5 19 13
q8 8 8 14q0 8 -6 12q-8 6 -17 7zM149 470q-6 2 -8 2v-5q7 0 11 1h2q-4 2 -5 2z" />
    <glyph glyph-name="degree" unicode="&#xb0;" horiz-adv-x="121" 
d="M98 537q-2 -16 -12.5 -24t-24.5 -8q-20 0 -29.5 14.5t2.5 39.5q10 19 32 19q16 0 26 -11t6 -30zM85 542q1 21 -19 21q-16 0 -22 -14q-6 -13 0 -21t18 -8q22 0 23 22z" />
    <glyph glyph-name="twosuperior" unicode="&#xb2;" horiz-adv-x="188" 
d="M179 471q0 -3 -1 -4h-1q-7 -3 -20 -3q-18 2 -56 22l-34 20q-22 -22 -27 -26q-13 -8 -18 -10h-6q-11 0 -15 4q-8 6 -10 18t5 20q5 10 26 14q1 0 3 0.5t3 0.5q3 0 5 -1q13 -2 31 -13q71 83 82 130q3 10 2 18q0 15 -11.5 22t-27.5 7q-33 0 -53 -20q-9 -9 -8 -15q0 -3 -1 -3
t-3 2q0 10 9 19q17 20 55 22q45 0 48 -33q1 -9 -2 -21q-11 -51 -84 -131l33 -20q37 -21 58 -21q7 0 15 3zM21 474q10 3 40 36q-17 10 -29 12q-11 0 -18 -2q-9 -2 -16 -10q-5 -9 -4 -17q2 -12 9 -16q4 -3 12 -3h6z" />
    <glyph glyph-name="threesuperior" unicode="&#xb3;" horiz-adv-x="191" 
d="M198 548q3 -20 -8 -39q-26 -43 -90 -43q-48 0 -87 28q-2 2 -1 3q0 1 2 1q40 -27 83 -27q26 0 50.5 11t35.5 31q9 16 7 35q-3 24 -22.5 38t-45.5 16q-26 -13 -39 -13q-2 0 -5 3q-1 1 1 5q9 10 35 10q5 0 8 -1q15 10 26 21q18 18 14 31q-3 15 -19 23.5t-33 8.5
q-24 0 -40 -15q-1 0 -3 1q0 8 17.5 13.5t28.5 5.5q19 0 36 -9.5t20 -26.5q1 -5 0 -11q-5 -23 -41 -42q66 -8 70 -58zM83 591q11 0 33 12h-9q-20 0 -27 -7v-3q0 -2 3 -2z" />
    <glyph glyph-name="acute" unicode="&#xb4;" horiz-adv-x="89" 
d="M12 243q-1 4 24 34.5t32 35.5h3q3 0 7 -1h3q-4 -6 -22.5 -36.5t-20.5 -33.5q-2 0 -13.5 0.5t-12.5 0.5z" />
    <glyph glyph-name="mu" unicode="&#xb5;" horiz-adv-x="330" 
d="M335 153q3 -3 1 -4q-109 -167 -173 -188q-1 0 -3 -0.5t-4 -0.5q-7 0 -14 4q-8 6 -18 30q-5 23 -7 50q-27 -44 -61 -69q-11 -7 -15 -8q-3 -1 -8.5 -2t-8.5 -1h-7q-17 0 -28 7q-1 1 -3 2.5t-3 3t-2 2.5q-1 -3 -2 -8.5t-1 -8.5q-8 -66 -8 -68q0 -9 -10 -9t-10 10q2 20 8 70
q6 36 8 57q0 49 31 132q3 7 9 7l1 -1h2q8 -3 6 -12h-1v-1q-25 -64 -25 -112q0 -35 13 -45q7 -7 26 -7h9q41 10 81 81q0 43 12 82q9 22 16 29q1 1 5 3l5 2q10 0 12 -9q2 -7 0 -17q-3 -16 -9 -30q-8 -22 -25 -53q0 -78 19 -93q2 -4 9 -4q20 0 58.5 40t63.5 73.5t46 64.5
q1 3 5 1zM137 114q-1 -6 -1 -17q1 4 6 14.5t7 16.5q6 18 7 28q1 4 1 11h-1l-1 -1h-1q-4 -4 -11 -24q-4 -18 -6 -28z" />
    <glyph glyph-name="periodcentered" unicode="&#xb7;" horiz-adv-x="51" 
d="M27 255q7 0 13 -5t6 -13t-6 -13.5t-13 -5.5q-8 0 -13.5 5.5t-5.5 13.5q0 18 19 18z" />
    <glyph glyph-name="cedilla" unicode="&#xb8;" horiz-adv-x="105" 
d="M13 -100l3 7q6 -5 16 -5q22 0 34 25q12 26 -9 33q-4 2 -10 2l10 44l11 -1l-9 -31q22 -6 29 -20t1 -27t-21 -23t-31 -10q-14 0 -24 6z" />
    <glyph glyph-name="onesuperior" unicode="&#xb9;" horiz-adv-x="91" 
d="M80 634q0 -117 -22 -168q0 -1 -3 -1q-1 1 -1 2q7 22 11 55q6 55 9 113l2 28q0 4 0.5 10.5t0.5 9.5q-17 -30 -33 -46l-1 1h-1q-2 2 0 3q22 16 34 51h1q0 1 1 1q2 0 2 -2v-28v-29z" />
    <glyph glyph-name="ordmasculine" unicode="&#xba;" horiz-adv-x="118" 
d="M113 687q1 0 0 -2q-21 -38 -53 -41q-2 -22 -21 -22t-23 16q-1 6 0 11q0 2 2 10q-9 6 -12 18q-2 6 3 11q4 4 11 4q14 0 26.5 -8.5t13.5 -22.5q1 -5 1 -14q28 2 50 39zM53 660q-1 15 -15 23q-13 -8 -18 -23q14 -11 27 -13h7q0 2 -0.5 6t-0.5 7zM13 668q1 -2 6 -7q1 4 4 8
q5 9 13 15q-3 3 -7 3q-8 2 -9 2q-6 0 -9 -3q-8 -8 2 -18zM37 627q14 0 16 17q-4 0 -7 1q-16 3 -26 12q-2 -6 -2 -8q-2 -13 6 -18q6 -4 13 -4z" />
    <glyph glyph-name="guillemotright" unicode="&#xbb;" horiz-adv-x="290" 
d="M150 2q-5 0 -8 6q-5 13 2 22l111 122l-111 121q-8 8 -2 21q4 7 8 7l6 -3l122 -134q4 -1 4 -12q0 -8 -4 -12l-122 -135q-2 -3 -6 -3zM48 6q-5 0 -8 6q-5 13 2 22l111 122l-111 121q-8 8 -2 21q4 7 8 7l6 -3l122 -134q4 -1 4 -12q0 -8 -4 -12l-122 -135q-2 -3 -6 -3z" />
    <glyph glyph-name="questiondown" unicode="&#xbf;" horiz-adv-x="362" 
d="M18 -34q-10 20 -12.5 56.5t13 87t51.5 87.5q81 80 94 97q45 54 52 131q4 35 2 85l12 -2q1 -34 2 -58t-2.5 -47.5t-4.5 -37t-10.5 -32t-14 -27t-22 -28.5t-26.5 -29l-35 -35l-6 -6l-5.5 -5.5l-6.5 -6.5q-36 -36 -52.5 -73t-15.5 -69.5t8 -68.5q10 -38 52 -69t92 -31
q17 0 25 2q18 3 37.5 13t41.5 30t34 58t8 87l11 -2q6 -81 -27 -133.5t-102 -65.5q-17 -3 -33 -3q-51 0 -94 26t-66 69zM223 586q-8 0 -16 6t-9 15t4.5 15.5t13.5 6.5t15.5 -6.5t8.5 -15.5t-4 -15t-13 -6z" />
    <glyph glyph-name="Agrave" unicode="&#xc0;" horiz-adv-x="727" 
d="M3 224q-2 7 5 9q62 17 123 17q15 0 49 -2l9 26q14 42 31 95q13 45 31.5 88t53.5 84t74 41q38 0 68.5 -34.5t44.5 -71t24 -77.5q16 -64 30 -196q2 0 5.5 0.5t4.5 0.5q80 16 157 85q2 2 5 2q4 0 5 -2q4 -4 0 -10q-46 -42 -81.5 -61.5t-93.5 -33.5q2 -20 7.5 -84.5
t9.5 -98.5q8 -63 21 -94q9 -20 26 -36q15 -11 41 -18q10 -2 8 -12q-1 -7 -12 -7q-30 5 -51 20t-32.5 40.5t-16.5 46.5t-10 56q-5 36 -11.5 100.5t-8.5 82.5q-9 -1 -27 -1q-43 0 -119 14q-150 32 -180 35h-2q-65 -178 -136 -331q-3 -6 -10 -6q-3 0 -4 1q-9 5 -4 13
q75 156 136 325q-30 2 -45 2q-61 0 -116 -13q-7 -2 -9 5zM206 269q-7 -19 -8 -22q32 -3 179 -33q71 -16 120 -16q3 0 10 0.5t10 0.5q-36 365 -136 365q-83 0 -145 -200q-4 -16 -30 -95zM342 686h4q3 1 6 1h3q56 -65 55 -70h-27q-1 3 -19.5 33t-21.5 36z" />
    <glyph glyph-name="Aacute" unicode="&#xc1;" horiz-adv-x="727" 
d="M3 224q-2 7 5 9q62 17 123 17q15 0 49 -2l9 26q14 42 31 95q13 45 31.5 88t53.5 84t74 41q38 0 68.5 -34.5t44.5 -71t24 -77.5q16 -64 30 -196q2 0 5.5 0.5t4.5 0.5q80 16 157 85q2 2 5 2q4 0 5 -2q4 -4 0 -10q-46 -42 -81.5 -61.5t-93.5 -33.5q2 -20 7.5 -84.5
t9.5 -98.5q8 -63 21 -94q9 -20 26 -36q15 -11 41 -18q10 -2 8 -12q-1 -7 -12 -7q-30 5 -51 20t-32.5 40.5t-16.5 46.5t-10 56q-5 36 -11.5 100.5t-8.5 82.5q-9 -1 -27 -1q-43 0 -119 14q-150 32 -180 35h-2q-65 -178 -136 -331q-3 -6 -10 -6q-3 0 -4 1q-9 5 -4 13
q75 156 136 325q-30 2 -45 2q-61 0 -116 -13q-7 -2 -9 5zM198 247q32 -3 179 -33q71 -16 120 -16q3 0 10 0.5t10 0.5q-36 365 -136 365q-83 0 -145 -200q-4 -16 -30 -95q-7 -19 -8 -22zM419 678h3h6l4 -1q-4 -6 -22.5 -36.5t-20.5 -33.5q-2 0 -13.5 0.5t-12.5 0.5
q-1 4 24 34.5t32 35.5z" />
    <glyph glyph-name="Acircumflex" unicode="&#xc2;" horiz-adv-x="727" 
d="M723 289q4 -4 0 -10q-46 -42 -81.5 -61.5t-93.5 -33.5q2 -20 7.5 -84.5t9.5 -98.5q8 -63 21 -94q9 -20 26 -36q15 -11 41 -18q10 -2 8 -12q-1 -7 -12 -7q-30 5 -51 20t-32.5 40.5t-16.5 46.5t-10 56q-5 36 -11.5 100.5t-8.5 82.5q-9 -1 -27 -1q-43 0 -119 14
q-150 32 -180 35h-2q-65 -178 -136 -331q-3 -6 -10 -6q-3 0 -4 1q-9 5 -4 13q75 156 136 325q-30 2 -45 2q-61 0 -116 -13q-7 -2 -9 5t5 9q62 17 123 17q15 0 49 -2l9 26q14 42 31 95q13 45 31.5 88t53.5 84t74 41q38 0 68.5 -34.5t44.5 -71t24 -77.5q16 -64 30 -196
q2 0 5.5 0.5t4.5 0.5q80 16 157 85q2 2 5 2q4 0 5 -2zM377 214q71 -16 120 -16q3 0 10 0.5t10 0.5q-36 365 -136 365q-83 0 -145 -200q-4 -16 -30 -95q-7 -19 -8 -22q32 -3 179 -33zM427 605l8 12q0 3 -16.5 34.5t-18.5 33.5l-13 6l-26 -31l-34 -36l10 -9l50 54
q-1 -19 12.5 -39t27.5 -25z" />
    <glyph glyph-name="Atilde" unicode="&#xc3;" horiz-adv-x="729" 
d="M723 289q4 -4 0 -10q-46 -42 -81.5 -61.5t-93.5 -33.5q2 -20 7.5 -84.5t9.5 -98.5q8 -63 21 -94q9 -20 26 -36q15 -11 41 -18q10 -2 8 -12q-1 -7 -12 -7q-30 5 -51 20t-32.5 40.5t-16.5 46.5t-10 56q-5 36 -11.5 100.5t-8.5 82.5q-9 -1 -27 -1q-43 0 -119 14
q-150 32 -180 35h-2q-65 -178 -136 -331q-3 -6 -10 -6q-3 0 -4 1q-9 5 -4 13q75 156 136 325q-30 2 -45 2q-61 0 -116 -13q-7 -2 -9 5t5 9q62 17 123 17q15 0 49 -2l9 26q14 42 31 95q13 45 31.5 88t53.5 84t74 41q38 0 68.5 -34.5t44.5 -71t24 -77.5q16 -64 30 -196
q2 0 5.5 0.5t4.5 0.5q80 16 157 85q2 2 5 2q4 0 5 -2zM377 214q71 -16 120 -16q3 0 10 0.5t10 0.5q-36 365 -136 365q-83 0 -145 -200q-4 -16 -30 -95q-7 -19 -8 -22q32 -3 179 -33zM385 646q16 -16 41 -16q10 0 15 2q6 0 18 5.5t17 11.5l-6 8q-14 -15 -26 -15q-10 0 -38 22
q-16 14 -44 14q-32 0 -60 -33l9 -4q19 24 36 27h5q6 0 11 -3t11.5 -9.5t10.5 -9.5z" />
    <glyph glyph-name="Adieresis" unicode="&#xc4;" horiz-adv-x="727" 
d="M723 289q4 -4 0 -10q-46 -42 -81.5 -61.5t-93.5 -33.5q2 -20 7.5 -84.5t9.5 -98.5q8 -63 21 -94q9 -20 26 -36q15 -11 41 -18q10 -2 8 -12q-1 -7 -12 -7q-30 5 -51 20t-32.5 40.5t-16.5 46.5t-10 56q-5 36 -11.5 100.5t-8.5 82.5q-9 -1 -27 -1q-43 0 -119 14
q-150 32 -180 35h-2q-65 -178 -136 -331q-3 -6 -10 -6q-3 0 -4 1q-9 5 -4 13q75 156 136 325q-30 2 -45 2q-61 0 -116 -13q-7 -2 -9 5t5 9q62 17 123 17q15 0 49 -2l9 26q14 42 31 95q13 45 31.5 88t53.5 84t74 41q38 0 68.5 -34.5t44.5 -71t24 -77.5q16 -64 30 -196
q2 0 5.5 0.5t4.5 0.5q80 16 157 85q2 2 5 2q4 0 5 -2zM377 214q71 -16 120 -16q3 0 10 0.5t10 0.5q-36 365 -136 365q-83 0 -145 -200q-4 -16 -30 -95q-7 -19 -8 -22q32 -3 179 -33zM352 688q18 0 18 -17q0 -7 -5 -12.5t-13 -5.5q-17 0 -17 18q0 17 17 17zM424 682
q7 0 12 -5.5t5 -12.5t-5 -12t-12 -5t-12.5 5t-5.5 12t5.5 12.5t12.5 5.5z" />
    <glyph glyph-name="Aring" unicode="&#xc5;" horiz-adv-x="727" 
d="M723 289q4 -4 0 -10q-46 -42 -81.5 -61.5t-93.5 -33.5q2 -20 7.5 -84.5t9.5 -98.5q8 -63 21 -94q9 -20 26 -36q15 -11 41 -18q10 -2 8 -12q-1 -7 -12 -7q-30 5 -51 20t-32.5 40.5t-16.5 46.5t-10 56q-5 36 -11.5 100.5t-8.5 82.5q-9 -1 -27 -1q-43 0 -119 14
q-150 32 -180 35h-2q-65 -178 -136 -331q-3 -6 -10 -6q-3 0 -4 1q-9 5 -4 13q75 156 136 325q-30 2 -45 2q-61 0 -116 -13q-7 -2 -9 5t5 9q62 17 123 17q15 0 49 -2l9 26q14 42 31 95q13 45 31.5 88t53.5 84t74 41q38 0 68.5 -34.5t44.5 -71t24 -77.5q16 -64 30 -196
q2 0 5.5 0.5t4.5 0.5q80 16 157 85q2 2 5 2q4 0 5 -2zM377 214q71 -16 120 -16q3 0 10 0.5t10 0.5q-36 365 -136 365q-83 0 -145 -200q-4 -16 -30 -95q-7 -19 -8 -22q32 -3 179 -33zM415 614q4 19 -6 30t-26 11q-21 0 -32 -18q-12 -26 -2.5 -40.5t29.5 -14.5q14 0 24.5 8
t12.5 24zM402 619q-1 -22 -23 -22q-12 0 -18 8t0 21q6 14 22 14q20 0 19 -21z" />
    <glyph glyph-name="AE" unicode="&#xc6;" horiz-adv-x="1012" 
d="M908 7q6 -5 3 -10q-31 -53 -84 -84q-43 -25 -117 -25q-69 5 -125 47t-78 107q0 -7 -0.5 -21t-0.5 -21q0 -67 8 -97q13 -49 60 -58q10 -2 8 -12t-12 -8q-25 4 -42.5 17.5t-26.5 29t-14 40t-6 43t-1 45.5q0 1 3 173q-11 -1 -32 -1q-35 0 -70 6q-26 4 -71.5 14t-62.5 13
q-46 10 -86 14q-68 -143 -178 -331q-3 -5 -9 -5q-3 0 -5 1q-8 5 -4 14q94 152 178 323q-10 1 -29 1q-78 0 -133 -11q-6 -2 -8 5t5 9q70 17 137 17q6 0 18.5 -0.5t19.5 -0.5q17 34 47 104q98 229 195 229q66 0 101 -121q12 56 79.5 86t133.5 30q68 0 124 -23t79 -77v-1
q3 -6 -4 -10q-1 -1 -3 -1q-6 0 -8 5q-16 46 -66 67t-106 21q-64 0 -122 -22t-81 -70q-25 -48 6 -100q13 -22 39.5 -44.5t50.5 -30.5q44 16 94 16q33 0 58 -8q21 -9 25 -19q4 -11 -5 -17q-13 -11 -51 -11q-15 0 -22 1q-49 3 -100 22q-43 -18 -70 -53t-30 -82q-5 -56 20 -107
q24 -49 71.5 -80.5t103.5 -36.5q2 0 8 -0.5t8 -0.5q108 0 170 97q1 4 7 4q2 0 3 -1zM719 290q-31 0 -84 -15q57 -24 109 -24q17 0 29 4q19 4 15 15q-4 8 -21 14q-23 6 -48 6zM598 275q-60 27 -87 70q4 -60 2 -143v-7q23 52 85 80zM384 197q42 -8 100 -8v14q2 50 0 100
q0 33 -3 68t-11.5 80.5t-28 74.5t-47.5 29t-57 -24t-53.5 -63t-39.5 -69.5t-28 -60.5q-25 -59 -45 -99q29 -3 80 -13q119 -26 133 -29z" />
    <glyph glyph-name="Ccedilla" unicode="&#xc7;" horiz-adv-x="687" 
d="M573 47q8 -4 2 -13q-53 -76 -133 -123.5t-169 -47.5q-27 0 -46 5q-97 20 -157 113t-68 200q-8 111 40 200q37 70 116.5 120.5t156.5 50.5q66 0 127.5 -37.5t102.5 -94.5q4 -6 -1 -9q-1 -1 -3 -1q-5 0 -6 3q-39 56 -96.5 91t-120.5 35q-21 0 -31 -2q-65 -8 -129 -57.5
t-94 -110.5q-39 -83 -33 -186q6 -99 59.5 -188.5t140.5 -109.5q17 -5 43 -5q85 0 161.5 45.5t123.5 119.5q4 4 8 4q2 0 6 -2zM203 -235l-3 -7q10 -6 24 -6q16 0 31 10t21 23t-1 27t-29 20l9 31l-11 1l-10 -44q26 -1 22 -24.5t-25 -33.5q-6 -2 -12 -2q-10 0 -16 5z" />
    <glyph glyph-name="Egrave" unicode="&#xc8;" horiz-adv-x="562" 
d="M51 -90q-40 40 -56 97t-5 114q17 78 90 126t162 61q-79 41 -109 94q-8 17 -10 29q-2 10 -1 16q0 55 55 89t113 34q76 0 122 -49q6 -5 0 -11q-2 -2 -5 -2q-2 0 -6 2q-33 39 -92 42q-56 0 -102.5 -23.5t-60.5 -71.5q0 -1 -3 -11q0 -8 1 -11q1 -9 8 -23q32 -54 110 -101
q26 2 39 2q9 0 27 -2q21 -5 27 -11q4 -4 4 -9t-2 -8q-3 -6 -14 -8q-14 0 -29 3q-21 6 -51 19q-3 2 -7 4q-2 0 -5 -0.5t-4 -0.5q-84 -17 -154 -64.5t-82 -119.5q-10 -51 4.5 -103t50.5 -88q61 -61 155 -61q109 0 231 88q2 2 4 2q4 0 6 -3q5 -5 -1 -11q-127 -96 -245 -96
q-99 0 -165 66zM224 676h4q3 1 6 1h3q56 -65 55 -70h-27q-1 3 -19.5 33t-21.5 36zM275 304q40 -22 67 -22q8 2 9 4t1 5l-2 4q-4 4 -23 9q-9 1 -26 1q-18 0 -26 -1z" />
    <glyph glyph-name="Eacute" unicode="&#xc9;" horiz-adv-x="561" 
d="M51 -90q-40 40 -56 97t-5 114q17 78 90 126t162 61q-79 41 -109 94q-8 17 -10 29q-2 10 -1 16q0 55 55 89t113 34q76 0 122 -49q6 -5 0 -11q-2 -2 -5 -2q-2 0 -6 2q-33 39 -92 42q-56 0 -102.5 -23.5t-60.5 -71.5q0 -1 -3 -11q0 -8 1 -11q1 -9 8 -23q32 -54 110 -101
q26 2 39 2q9 0 27 -2q21 -5 27 -11q4 -4 4 -9t-2 -8q-3 -6 -14 -8q-14 0 -29 3q-21 6 -51 19q-3 2 -7 4q-2 0 -5 -0.5t-4 -0.5q-84 -17 -154 -64.5t-82 -119.5q-10 -51 4.5 -103t50.5 -88q61 -61 155 -61q109 0 231 88q2 2 4 2q4 0 6 -3q5 -5 -1 -11q-127 -96 -245 -96
q-99 0 -165 66zM324 675h3q3 0 7 -1h3q-4 -6 -22.5 -36.5t-20.5 -33.5q-2 0 -13.5 0.5t-12.5 0.5q-1 4 24 34.5t32 35.5zM301 305q-18 0 -26 -1q40 -22 67 -22q8 2 9 4t1 5l-2 4q-4 4 -23 9q-9 1 -26 1z" />
    <glyph glyph-name="Ecircumflex" unicode="&#xca;" horiz-adv-x="563" 
d="M462 -49q5 -5 -1 -11q-127 -96 -245 -96q-99 0 -165 66q-40 40 -56 97t-5 114q17 78 90 126t162 61q-79 41 -109 94q-8 17 -10 29q-2 10 -1 16q0 55 55 89t113 34q76 0 122 -49q6 -5 0 -11q-2 -2 -5 -2q-2 0 -6 2q-33 39 -92 42q-56 0 -102.5 -23.5t-60.5 -71.5
q0 -1 -3 -11q0 -8 1 -11q1 -9 8 -23q32 -54 110 -101q26 2 39 2q9 0 27 -2q21 -5 27 -11q4 -4 4 -9t-2 -8q-3 -6 -14 -8q-14 0 -29 3q-21 6 -51 19q-3 2 -7 4q-2 0 -5 -0.5t-4 -0.5q-84 -17 -154 -64.5t-82 -119.5q-10 -51 4.5 -103t50.5 -88q61 -61 155 -61q109 0 231 88
q2 2 4 2q4 0 6 -3zM327 304q-9 1 -26 1q-18 0 -26 -1q40 -22 67 -22q8 2 9 4t1 5l-2 4q-4 4 -23 9zM327 590l8 12q0 3 -16.5 34.5t-18.5 33.5l-13 6l-26 -31l-34 -36l10 -9l50 54q-1 -19 12.5 -39t27.5 -25z" />
    <glyph glyph-name="Edieresis" unicode="&#xcb;" horiz-adv-x="562" 
d="M462 -49q5 -5 -1 -11q-127 -96 -245 -96q-99 0 -165 66q-40 40 -56 97t-5 114q17 78 90 126t162 61q-79 41 -109 94q-8 17 -10 29q-2 10 -1 16q0 55 55 89t113 34q76 0 122 -49q6 -5 0 -11q-2 -2 -5 -2q-2 0 -6 2q-33 39 -92 42q-56 0 -102.5 -23.5t-60.5 -71.5
q0 -1 -3 -11q0 -8 1 -11q1 -9 8 -23q32 -54 110 -101q26 2 39 2q9 0 27 -2q21 -5 27 -11q4 -4 4 -9t-2 -8q-3 -6 -14 -8q-14 0 -29 3q-21 6 -51 19q-3 2 -7 4q-2 0 -5 -0.5t-4 -0.5q-84 -17 -154 -64.5t-82 -119.5q-10 -51 4.5 -103t50.5 -88q61 -61 155 -61q109 0 231 88
q2 2 4 2q4 0 6 -3zM327 304q-9 1 -26 1q-18 0 -26 -1q40 -22 67 -22q8 2 9 4t1 5l-2 4q-4 4 -23 9zM257 652q18 0 18 -17q0 -7 -5.5 -12.5t-12.5 -5.5q-17 0 -17 18q0 17 17 17zM329 646q7 0 12 -5.5t5 -12.5t-5 -12t-12 -5t-12.5 5t-5.5 12t5.5 12.5t12.5 5.5z" />
    <glyph glyph-name="Igrave" unicode="&#xcc;" horiz-adv-x="480" 
d="M-89 535q-6 2 -4 7q2 4 6 3q49 -9 99 -9q59 0 151 15q84 12 127 15q13 1 39 1q45 0 89 -6q4 -1 4 -5t-4 -4h-29q-57 0 -97 -5q-14 -1 -126 -17q-4 0 -6 -1q14 -70 24 -171q14 -135 12 -183q-2 -133 -56 -218q10 0 15 -1q170 -12 344 -118q3 -3 2 -6q-3 -3 -6 -2
q-182 98 -342 110q-17 0 -25 1q-27 -35 -66.5 -58.5t-81.5 -26.5q-3 0 -9.5 -0.5t-10.5 -0.5q-16 0 -27 5q-6 2 -11 8t-3 14q8 36 75 55t120 20q52 86 54 219q1 36 -4 89q-11 160 -25 262q-60 -8 -90 -8q-78 0 -138 16zM-71 -120q-3 -8 8 -13q9 -4 25 -4q12 0 17 1
q73 10 124 77q-73 -2 -126 -23q-45 -21 -48 -38zM90 672h4q3 1 6 1h3q56 -65 55 -70h-27q-1 3 -19.5 33t-21.5 36z" />
    <glyph glyph-name="Iacute" unicode="&#xcd;" horiz-adv-x="479" 
d="M-89 535q-6 2 -4 7q2 4 6 3q49 -9 99 -9q59 0 151 15q84 12 127 15q13 1 39 1q45 0 89 -6q4 -1 4 -5t-4 -4h-29q-57 0 -97 -5q-14 -1 -126 -17q-4 0 -6 -1q14 -70 24 -171q14 -135 12 -183q-2 -133 -56 -218q10 0 15 -1q170 -12 344 -118q3 -3 2 -6q-3 -3 -6 -2
q-182 98 -342 110q-17 0 -25 1q-27 -35 -66.5 -58.5t-81.5 -26.5q-3 0 -9.5 -0.5t-10.5 -0.5q-16 0 -27 5q-6 2 -11 8t-3 14q8 36 75 55t120 20q52 86 54 219q1 36 -4 89q-11 160 -25 262q-60 -8 -90 -8q-78 0 -138 16zM-71 -120q-3 -8 8 -13q9 -4 25 -4q12 0 17 1
q73 10 124 77q-73 -2 -126 -23q-45 -21 -48 -38zM177 665h3q3 0 6 -1h4q-4 -6 -22.5 -36.5t-20.5 -33.5q-2 0 -13.5 0.5t-12.5 0.5q-1 4 24 34.5t32 35.5z" />
    <glyph glyph-name="Icircumflex" unicode="&#xce;" horiz-adv-x="479" 
d="M499 -162q3 -3 2 -6q-3 -3 -6 -2q-182 98 -342 110q-17 0 -25 1q-27 -35 -66.5 -58.5t-81.5 -26.5q-3 0 -9.5 -0.5t-10.5 -0.5q-16 0 -27 5q-6 2 -11 8t-3 14q8 36 75 55t120 20q52 86 54 219q1 36 -4 89q-11 160 -25 262q-60 -8 -90 -8q-78 0 -138 16q-6 2 -4 7q2 4 6 3
q49 -9 99 -9q59 0 151 15q84 12 127 15q13 1 39 1q45 0 89 -6q4 -1 4 -5t-4 -4h-29q-57 0 -97 -5q-14 -1 -126 -17q-4 0 -6 -1q14 -70 24 -171q14 -135 12 -183q-2 -133 -56 -218q10 0 15 -1q170 -12 344 -118zM-21 -136q73 10 124 77q-73 -2 -126 -23q-45 -21 -48 -38
q-3 -8 8 -13q9 -4 25 -4q12 0 17 1zM195 595l8 12q0 3 -16.5 34.5t-18.5 33.5l-13 6l-26 -31l-34 -36l10 -9l50 54q-1 -19 12.5 -39t27.5 -25z" />
    <glyph glyph-name="Idieresis" unicode="&#xcf;" horiz-adv-x="480" 
d="M499 -162q3 -3 2 -6q-3 -3 -6 -2q-182 98 -342 110q-17 0 -25 1q-27 -35 -66.5 -58.5t-81.5 -26.5q-3 0 -9.5 -0.5t-10.5 -0.5q-16 0 -27 5q-6 2 -11 8t-3 14q8 36 75 55t120 20q52 86 54 219q1 36 -4 89q-11 160 -25 262q-60 -8 -90 -8q-78 0 -138 16q-6 2 -4 7q2 4 6 3
q49 -9 99 -9q59 0 151 15q84 12 127 15q13 1 39 1q45 0 89 -6q4 -1 4 -5t-4 -4h-29q-57 0 -97 -5q-14 -1 -126 -17q-4 0 -6 -1q14 -70 24 -171q14 -135 12 -183q-2 -133 -56 -218q10 0 15 -1q170 -12 344 -118zM-21 -136q73 10 124 77q-73 -2 -126 -23q-45 -21 -48 -38
q-3 -8 8 -13q9 -4 25 -4q12 0 17 1zM115 632q18 0 18 -17q0 -7 -5.5 -12.5t-12.5 -5.5q-17 0 -17 18q0 17 17 17zM187 626q7 0 12 -5.5t5 -12.5t-5 -12t-12 -5t-12.5 5t-5.5 12t5.5 12.5t12.5 5.5z" />
    <glyph glyph-name="Eth" unicode="&#xd0;" horiz-adv-x="625" 
d="M462 362q26 -80 20 -170q-7 -106 -42 -166q-49 -84 -144 -133.5t-195 -49.5q-145 0 -261 96q-5 4 -1 8q1 2 4 2t4 -1q110 -88 243 -88q116 0 217 63q76 49 110.5 113t40.5 158q5 86 -17 161q-23 76 -75 135.5t-121 59.5q-127 0 -176 -195q24 -73 37 -157l96 3
q10 -3 10 -10q0 -10 -10 -10l-93 -3q13 -92 8 -167q-10 -106 -57 -106q-7 0 -13 3q-8 7 -15 22q-4 17 -5 22q-12 65 -6 169q1 20 5 55l-123 -3q-10 0 -10 10t10 10l125 3q3 28 13 92q2 7 5.5 23t4.5 23q0 3 -1 4q-33 112 -76 138q-9 6 -3 14q3 5 8 5q2 0 6 -2
q46 -29 77 -119q44 160 153 186q13 4 32 4q75 0 132.5 -61t82.5 -141zM86 177l-1 1l-47 -2q0 -9 -1.5 -27.5t-2.5 -28.5q-2 -112 8 -165q2 -7 6 -19q4 -11 8 -13h5q4 0 6 2q24 10 28 87q3 73 -9 165zM82 198q-9 58 -24 113q-4 -19 -5 -26q-8 -38 -13 -89z" />
    <glyph glyph-name="Ntilde" unicode="&#xd1;" horiz-adv-x="542" 
d="M388 41q2 -39 -1 -70q-6 -48 -16 -71q-12 -22 -26 -32.5t-37 -10.5q-11 2 -36 16q-104 80 -235 294q-9 -242 -119 -333q-4 -3 -9 -3q-6 0 -9 5q-9 9 2 18q108 88 108 356q-80 131 -100 209q-5 27 -3 37q2 14 9 21q4 5 10 8q6 2 12 2q18 1 37 -20q50 -63 61 -238
q0 -6 0.5 -18.5t0.5 -19.5q149 -238 246 -303q14 -10 27 -12q13 -1 24.5 8.5t16.5 24.5q16 42 12 131q-14 214 -108 464q-20 45 -30 57h-1q-7 11 2 18q3 3 8 3q6 0 10 -4q15 -18 36 -63q98 -239 108 -474zM-72 423q16 -69 81 -185q-3 72 -15 125q-25 105 -55 105
q-12 -1 -13 -14q-2 -9 2 -31zM52 625q16 -16 41 -16q10 0 15 2q6 0 18 5.5t17 11.5l-6 8q-14 -15 -26 -15q-10 0 -38 22q-16 14 -44 14q-32 0 -60 -33l9 -4q20 24 36 27h5q6 0 11 -3t11.5 -9.5t10.5 -9.5z" />
    <glyph glyph-name="Ograve" unicode="&#xd2;" horiz-adv-x="740" 
d="M1 131q-10 69 7 143q27 114 103.5 197.5t185.5 89.5q77 0 141.5 -35t97.5 -101q33 -62 30 -139q0 -15 -6 -49q11 -48 9 -98q-4 -115 -83.5 -201.5t-193.5 -86.5q-108 0 -191 85t-100 195zM84 393q-83 -133 -63 -260q12 -99 88.5 -176.5t174.5 -77.5q109 0 181 74.5
t82 186.5q1 24 0 47q-8 -26 -14 -38q-2 -4 -5 -4q-1 0 -2 1q-6 2 -4 7q14 29 23 63q-10 93 -61 189q-2 4 2 6q3 2 5 -2q37 -62 59 -129q0 -3 2 -9t2 -9l3 25q3 72 -30 132q-32 56 -86 87.5t-118 31.5q-148 0 -239 -145zM277 682h3q4 1 7 1h3q56 -65 55 -70h-27
q-1 3 -19.5 33t-21.5 36z" />
    <glyph glyph-name="Oacute" unicode="&#xd3;" horiz-adv-x="740" 
d="M1 131q-10 69 7 143q27 114 103.5 197.5t185.5 89.5q77 0 141.5 -35t97.5 -101q33 -62 30 -139q0 -15 -6 -49q11 -48 9 -98q-4 -115 -83.5 -201.5t-193.5 -86.5q-108 0 -191 85t-100 195zM84 393q-83 -133 -63 -260q12 -99 88.5 -176.5t174.5 -77.5q109 0 181 74.5
t82 186.5q1 24 0 47q-8 -26 -14 -38q-2 -4 -5 -4q-1 0 -2 1q-6 2 -4 7q14 29 23 63q-10 93 -61 189q-2 4 2 6q3 2 5 -2q37 -62 59 -129q0 -3 2 -9t2 -9l3 25q3 72 -30 132q-32 56 -86 87.5t-118 31.5q-148 0 -239 -145zM343 688h3h6l4 -1q-4 -6 -22.5 -36.5t-20.5 -33.5
q-2 0 -13.5 0.5t-12.5 0.5q-1 4 24 34.5t32 35.5z" />
    <glyph glyph-name="Ocircumflex" unicode="&#xd4;" horiz-adv-x="740" 
d="M560 237q11 -48 9 -98q-4 -115 -83.5 -201.5t-193.5 -86.5q-108 0 -191 85t-100 195q-10 69 7 143q27 114 103.5 197.5t185.5 89.5q77 0 141.5 -35t97.5 -101q33 -62 30 -139q0 -15 -6 -49zM284 -121q109 0 181 74.5t82 186.5q1 24 0 47q-8 -26 -14 -38q-2 -4 -5 -4
q-1 0 -2 1q-6 2 -4 7q14 29 23 63q-10 93 -61 189q-2 4 2 6q3 2 5 -2q37 -62 59 -129q0 -3 2 -9t2 -9l3 25q3 72 -30 132q-32 56 -86 87.5t-118 31.5q-148 0 -239 -145q-83 -133 -63 -260q12 -99 88.5 -176.5t174.5 -77.5zM364 603l8 12q0 3 -16.5 34.5t-18.5 33.5l-13 6
l-26 -31l-34 -36l10 -9l50 54q-1 -19 12.5 -39t27.5 -25z" />
    <glyph glyph-name="Otilde" unicode="&#xd5;" horiz-adv-x="740" 
d="M560 237q11 -48 9 -98q-4 -115 -83.5 -201.5t-193.5 -86.5q-108 0 -191 85t-100 195q-10 69 7 143q27 114 103.5 197.5t185.5 89.5q77 0 141.5 -35t97.5 -101q33 -62 30 -139q0 -15 -6 -49zM284 -121q109 0 181 74.5t82 186.5q1 24 0 47q-8 -26 -14 -38q-2 -4 -5 -4
q-1 0 -2 1q-6 2 -4 7q14 29 23 63q-10 93 -61 189q-2 4 2 6q3 2 5 -2q37 -62 59 -129q0 -3 2 -9t2 -9l3 25q3 72 -30 132q-32 56 -86 87.5t-118 31.5q-148 0 -239 -145q-83 -133 -63 -260q12 -99 88.5 -176.5t174.5 -77.5zM312 641q16 -16 41 -16q10 0 15 2q6 0 18 5.5
t17 11.5l-6 8q-14 -15 -26 -15q-10 0 -38 22q-16 14 -44 14q-33 0 -60 -33l9 -4q20 24 36 27h5q6 0 11 -3t11.5 -9.5t10.5 -9.5z" />
    <glyph glyph-name="Odieresis" unicode="&#xd6;" horiz-adv-x="740" 
d="M560 237q11 -48 9 -98q-4 -115 -83.5 -201.5t-193.5 -86.5q-108 0 -191 85t-100 195q-10 69 7 143q27 114 103.5 197.5t185.5 89.5q77 0 141.5 -35t97.5 -101q33 -62 30 -139q0 -15 -6 -49zM284 -121q109 0 181 74.5t82 186.5q1 24 0 47q-8 -26 -14 -38q-2 -4 -5 -4
q-1 0 -2 1q-6 2 -4 7q14 29 23 63q-10 93 -61 189q-2 4 2 6q3 2 5 -2q37 -62 59 -129q0 -3 2 -9t2 -9l3 25q3 72 -30 132q-32 56 -86 87.5t-118 31.5q-148 0 -239 -145q-83 -133 -63 -260q12 -99 88.5 -176.5t174.5 -77.5zM281 681q18 0 18 -17q0 -8 -5.5 -13t-12.5 -5
q-17 0 -17 18q0 17 17 17zM353 675q7 0 12 -5.5t5 -12.5t-5 -12t-12 -5t-12.5 5t-5.5 12t5.5 12.5t12.5 5.5z" />
    <glyph glyph-name="multiply" unicode="&#xd7;" horiz-adv-x="500" 
d="M132 74q-3 -3 -7 -3q-5 0 -8 3q-7 7 0 14l104 105l-92 95q-8 8 0 14v1q4 2 6 2q5 0 8 -3l92 -95l92 93q2 3 7 3t7 -2q7 -7 0 -15l-92 -93l92 -96q7 -7 0 -14q-3 -3 -7 -3t-7 3l-92 95z" />
    <glyph glyph-name="Oslash" unicode="&#xd8;" horiz-adv-x="742" 
d="M561 247q11 -48 9 -98q-4 -115 -83.5 -201.5t-193.5 -86.5q-52 0 -105 24l-39 -115l-21 18q9 24 37 109q-6 4 -11 7q-61 39 -101 101.5t-51 135.5q-10 69 7 143q26 113 104 198t186 89q57 0 97 -15q22 51 30 66l13 -14q-12 -42 -19 -62q81 -37 117 -111q33 -62 30 -138
q0 -16 -6 -50zM166 -76q6 -3 7 -4l111 326q86 246 105 293q-33 9 -66 9q-15 0 -23 -1q-66 -4 -122.5 -44t-91.5 -100q-84 -132 -64 -259q9 -68 47.5 -127t96.5 -93zM558 297q3 71 -30 133q-33 59 -97 93q-2 1 -7.5 3.5t-8.5 3.5q-12 -37 -107 -305l-111 -316q43 -20 90 -20
q70 0 131 37q131 83 131 271q-2 -5 -6.5 -18t-7.5 -20h-1q-2 -4 -5 -4q-1 0 -2 1q-7 2 -3 8q16 36 22 62q-10 93 -61 189q-2 4 2 6q3 2 5 -2q37 -62 59 -129q1 -3 2 -9t2 -9q1 9 3 25z" />
    <glyph glyph-name="Ugrave" unicode="&#xd9;" horiz-adv-x="820" 
d="M3 171q-9 126 19 327q2 11 11 9t9 -11q-20 -198 -12 -323q5 -69 19.5 -121t43.5 -97t80 -68.5t123 -23.5q97 0 160 43.5t109 133.5q-4 9 -5 16q-42 152 -51 324q-4 110 6 165q10 42 24 52q6 3 7 3q6 3 8 1q8 0 16 -6q1 -1 3.5 -5t4.5 -5q44 -69 50 -242q3 -85 -10 -164
q-12 -72 -35 -129q9 -33 20 -64.5t30 -74t45 -68t55 -25.5q5 0 13 2q6 0 7 -4q0 -6 -4 -7q-10 -2 -16 -2q-98 0 -163 215q-78 -162 -264 -176q-4 0 -14 -0.5t-14 -0.5q-72 0 -124.5 25t-83 72t-46.5 102.5t-21 126.5zM534 541q-9 -62 -4 -160q9 -154 47 -310q18 50 28 110
q11 74 8 161q-9 169 -51 233l-8 8q-4 0 -8 -7q-6 -9 -12 -35zM256 680h4q3 1 6 1h3q56 -65 55 -70h-27q-1 3 -19.5 33t-21.5 36z" />
    <glyph glyph-name="Uacute" unicode="&#xda;" horiz-adv-x="820" 
d="M3 171q-9 126 19 327q2 11 11 9t9 -11q-20 -198 -12 -323q5 -69 19.5 -121t43.5 -97t80 -68.5t123 -23.5q97 0 160 43.5t109 133.5q-4 9 -5 16q-42 152 -51 324q-4 110 6 165q10 42 24 52q6 3 7 3q6 3 8 1q8 0 16 -6q1 -1 3.5 -5t4.5 -5q44 -69 50 -242q3 -85 -10 -164
q-12 -72 -35 -129q9 -33 20 -64.5t30 -74t45 -68t55 -25.5q5 0 13 2q6 0 7 -4q0 -6 -4 -7q-10 -2 -16 -2q-98 0 -163 215q-78 -162 -264 -176q-4 0 -14 -0.5t-14 -0.5q-72 0 -124.5 25t-83 72t-46.5 102.5t-21 126.5zM534 541q-9 -62 -4 -160q9 -154 47 -310q18 50 28 110
q11 74 8 161q-9 169 -51 233l-8 8q-4 0 -8 -7q-6 -9 -12 -35zM287 680h3h6l4 -1q-4 -6 -22.5 -36.5t-20.5 -33.5q-2 0 -13.5 0.5t-12.5 0.5q-1 4 24 34.5t32 35.5z" />
    <glyph glyph-name="Ucircumflex" unicode="&#xdb;" horiz-adv-x="820" 
d="M746 -180q6 0 7 -4q0 -6 -4 -7q-10 -2 -16 -2q-98 0 -163 215q-78 -162 -264 -176q-4 0 -14 -0.5t-14 -0.5q-72 0 -124.5 25t-83 72t-46.5 102.5t-21 126.5q-9 126 19 327q2 11 11 9t9 -11q-20 -198 -12 -323q5 -69 19.5 -121t43.5 -97t80 -68.5t123 -23.5q97 0 160 43.5
t109 133.5q-4 9 -5 16q-42 152 -51 324q-4 110 6 165q10 42 24 52q6 3 7 3q6 3 8 1q8 0 16 -6q1 -1 3.5 -5t4.5 -5q44 -69 50 -242q3 -85 -10 -164q-12 -72 -35 -129q9 -33 20 -64.5t30 -74t45 -68t55 -25.5q5 0 13 2zM530 381q9 -154 47 -310q18 50 28 110q11 74 8 161
q-9 169 -51 233l-8 8q-4 0 -8 -7q-6 -9 -12 -35q-9 -62 -4 -160zM300 584l8 12q0 3 -16.5 34.5t-18.5 33.5l-13 6l-26 -31l-34 -36l10 -9l50 54q-1 -19 12.5 -39t27.5 -25z" />
    <glyph glyph-name="Udieresis" unicode="&#xdc;" horiz-adv-x="820" 
d="M746 -180q6 0 7 -4q0 -6 -4 -7q-10 -2 -16 -2q-98 0 -163 215q-78 -162 -264 -176q-4 0 -14 -0.5t-14 -0.5q-72 0 -124.5 25t-83 72t-46.5 102.5t-21 126.5q-9 126 19 327q2 11 11 9t9 -11q-20 -198 -12 -323q5 -69 19.5 -121t43.5 -97t80 -68.5t123 -23.5q97 0 160 43.5
t109 133.5q-4 9 -5 16q-42 152 -51 324q-4 110 6 165q10 42 24 52q6 3 7 3q6 3 8 1q8 0 16 -6q1 -1 3.5 -5t4.5 -5q44 -69 50 -242q3 -85 -10 -164q-12 -72 -35 -129q9 -33 20 -64.5t30 -74t45 -68t55 -25.5q5 0 13 2zM530 381q9 -154 47 -310q18 50 28 110q11 74 8 161
q-9 169 -51 233l-8 8q-4 0 -8 -7q-6 -9 -12 -35q-9 -62 -4 -160zM244 657q18 0 18 -17q0 -8 -5 -13t-13 -5q-17 0 -17 18q0 17 17 17zM316 651q7 0 12 -5.5t5 -12.5t-5 -12t-12 -5t-12.5 5t-5.5 12t5.5 12.5t12.5 5.5z" />
    <glyph glyph-name="Yacute" unicode="&#xdd;" horiz-adv-x="521" 
d="M-97 -242q-35 61 -20 138q10 63 57 126q65 89 178 150t222 67q-19 142 -46 267q-1 -5 -2.5 -13.5t-1.5 -12.5q-9 -42 -23 -81.5t-37 -80t-58 -65t-77 -24.5q-77 0 -92 78q-6 41 4 94q6 30 26 88q3 7 10 7h1l2 -1q10 -4 6 -13q-15 -41 -24 -86q-11 -52 -5 -86
q7 -49 46 -58q13 -4 31 -4q50 0 90.5 41t61 91.5t27.5 100.5q7 55 -2 87v1q-1 6 4 11q3 3 8 3q6 0 9 -8q52 -191 65 -336q116 0 178 -78q3 -3 0 -7q-1 -1 -4 -1q-2 0 -3 1q-44 53 -113 67q-18 5 -57 7q11 -100 5 -196q-11 -161 -78 -228q-44 -57 -107.5 -94t-129.5 -37
q-46 0 -87.5 23t-63.5 62zM-103 -107q-12 -74 19 -127q43 -74 137 -74q104 0 199 101q80 75 93 241q6 90 -4 193q-88 -5 -184.5 -49.5t-171.5 -121.5t-88 -163zM190 663h3q3 0 7 -1h3q-4 -6 -22.5 -36.5t-20.5 -33.5q-2 0 -13.5 0.5t-12.5 0.5q-1 4 24 34.5t32 35.5z" />
    <glyph glyph-name="Thorn" unicode="&#xde;" horiz-adv-x="500" 
d="M401 391q14 -77 -14 -135t-92 -90t-135 -35q-4 0 -4 4t4 4q69 11 125.5 42t80.5 85q24 52 10 120q-10 63 -67.5 109.5t-121.5 46.5q-56 0 -93 -40q-41 -50 -60 -170q1 -2 3.5 -7.5t3.5 -8.5q48 -105 62 -256q7 -75 3 -132q-7 -49 -15 -67q-7 -24 -36 -24q-12 5 -18 12
l-4 3q-2 4 -3 5q-2 3 -4 9q-17 42 -22 131q-8 123 6 262q4 35 7 55q-28 65 -61 103q-4 6 1 13q4 2 6 2q13 0 47 -56l-7 451q0 10 10 10t10 -10l7 -443q1 1 1 5q22 86 59 128.5t117 42.5q69 -6 127 -54t67 -115zM58 185q-10 45 -31 102l-3 -29q-11 -123 -2 -259q4 -42 8 -64
q6 -43 18 -67l2 -4q8 -6 10 -6q3 -1 5 1q3 2 7 10q9 24 11 61q6 109 -25 255z" />
    <glyph glyph-name="germandbls" unicode="&#xdf;" horiz-adv-x="547" 
d="M-53 -112q-7 3 -3 11q1 4 7 4q2 0 3 -1q20 -9 32 -9q14 0 25 13q25 30 28 137l3 74h-1q0 18 -2.5 55t-2.5 56q-2 67 3 111q21 195 166 195q50 0 90 -24t48 -70q5 -34 -6 -62q-20 -51 -90 -80q76 -22 125 -73.5t49 -127.5q0 -70 -64.5 -117.5t-136.5 -47.5q-66 0 -120 33
q-6 5 -3 11q3 3 10 3q47 -25 103 -25q65 0 124.5 40.5t59.5 102.5q0 66 -50.5 121t-116.5 71q-51 -17 -85 -17q-10 0 -15 1q-10 4 -14 9q-5 10 3 17q10 12 47 12q3 0 11 -0.5t12 -0.5l37 -6q72 35 88 84q7 21 4 48q-3 24 -18 43q-35 41 -96 41q-28 0 -48 -8
q-50 -15 -71.5 -61.5t-29.5 -112.5q-4 -36 -2 -110q1 -15 4 -52.5t4 -58.5h-1q5 -89 -3 -150q-11 -54 -28 -74q-12 -18 -40 -18q-17 1 -39 13zM132 300q-7 -2 -11 -6t-1 -8q4 -6 17 -6q27 0 57 11q2 1 11 5q-3 0 -10 2t-10 2q-15 3 -29 3t-24 -3z" />
    <glyph glyph-name="agrave" unicode="&#xe0;" horiz-adv-x="389" 
d="M-46 32q-6 12 -4 36q6 45 49.5 85.5t87.5 40.5q15 0 25 -5q14 -6 25 -20v-1q5 -3 0 -8q-1 -1 -4 -1q-4 0 -5 2q-14 19 -36 19q-7 0 -10 -1q-39 -10 -71 -54t-32 -85q0 -3 2 -11l1 -1v-1l7 -7q7 -6 17 -6q14 0 31 10q19 11 49.5 40.5t37.5 35.5q4 4 12 10q1 0 3 1.5t4 2.5
q4 2 7 2t4 -1q6 -6 8 -11.5t2.5 -12.5t0.5 -9q1 -6 2 -18t2 -21.5t2 -17.5q9 -56 36 -56q13 0 28 10q55 35 155 173q2 2 5 0q3 -1 1 -5q-49 -71 -69 -96q-52 -62 -84 -84q-16 -10 -30 -13q-1 0 -3 -0.5t-3 -0.5q-17 0 -28 11q-15 17 -24 58q-6 28 -4 60v14v7l-1 3
q-5 -2 -8 -4l-12 -9q-9 -7 -38 -37t-49 -42q-15 -10 -29 -13q-2 0 -5 -0.5t-4 -0.5q-13 0 -25 7q-5 2 -7 5l-7 5q-8 6 -12 15zM39 258h3h5h2q38 -48 38 -49h-19q-6 13 -29 49z" />
    <glyph glyph-name="aacute" unicode="&#xe1;" horiz-adv-x="389" 
d="M-46 32q-6 12 -4 36q6 45 49.5 85.5t87.5 40.5q15 0 25 -5q14 -6 25 -20v-1q5 -3 0 -8q-1 -1 -4 -1q-4 0 -5 2q-14 19 -36 19q-7 0 -10 -1q-39 -10 -71 -54t-32 -85q0 -3 2 -11l1 -1v-1l7 -7q7 -6 17 -6q14 0 31 10q19 11 49.5 40.5t37.5 35.5q4 4 12 10q1 0 3 1.5t4 2.5
q4 2 7 2t4 -1q6 -6 8 -11.5t2.5 -12.5t0.5 -9q1 -6 2 -18t2 -21.5t2 -17.5q9 -56 36 -56q13 0 28 10q55 35 155 173q2 2 5 0q3 -1 1 -5q-49 -71 -69 -96q-52 -62 -84 -84q-16 -10 -30 -13q-1 0 -3 -0.5t-3 -0.5q-17 0 -28 11q-15 17 -24 58q-6 28 -4 60v14v7l-1 3
q-5 -2 -8 -4l-12 -9q-9 -7 -38 -37t-49 -42q-15 -10 -29 -13q-2 0 -5 -0.5t-4 -0.5q-13 0 -25 7q-5 2 -7 5l-7 5q-8 6 -12 15zM108 266l10 -1q-3 -4 -16.5 -27t-15.5 -25q-2 0 -10 0.5t-9 0.5q-1 3 17.5 25.5t23.5 26.5z" />
    <glyph glyph-name="acircumflex" unicode="&#xe2;" horiz-adv-x="389" 
d="M-46 32q-6 12 -4 36q6 45 49.5 85.5t87.5 40.5q15 0 25 -5q14 -6 25 -20v-1q5 -3 0 -8q-1 -1 -4 -1q-4 0 -5 2q-14 19 -36 19q-7 0 -10 -1q-39 -10 -71 -54t-32 -85q0 -3 2 -11l1 -1v-1l7 -7q7 -6 17 -6q14 0 31 10q19 11 49.5 40.5t37.5 35.5q4 4 12 10q1 0 3 1.5t4 2.5
q4 2 7 2t4 -1q6 -6 8 -11.5t2.5 -12.5t0.5 -9q1 -6 2 -18t2 -21.5t2 -17.5q9 -56 36 -56q13 0 28 10q55 35 155 173q2 2 5 0q3 -1 1 -5q-49 -71 -69 -96q-52 -62 -84 -84q-16 -10 -30 -13q-1 0 -3 -0.5t-3 -0.5q-17 0 -28 11q-15 17 -24 58q-6 28 -4 60v14v7l-1 3
q-5 -2 -8 -4l-12 -9q-9 -7 -38 -37t-49 -42q-15 -10 -29 -13q-2 0 -5 -0.5t-4 -0.5q-13 0 -25 7q-5 2 -7 5l-7 5q-8 6 -12 15zM69 255l16 20l9 -4q1 -1 11.5 -21.5t10.5 -21.5l-5 -8q-9 3 -17.5 16t-8.5 25l-32 -35l-6 6z" />
    <glyph glyph-name="atilde" unicode="&#xe3;" horiz-adv-x="389" 
d="M-46 32q-6 12 -4 36q6 45 49.5 85.5t87.5 40.5q15 0 25 -5q14 -6 25 -20v-1q5 -3 0 -8q-1 -1 -4 -1q-4 0 -5 2q-14 19 -36 19q-7 0 -10 -1q-39 -10 -71 -54t-32 -85q0 -3 2 -11l1 -1v-1l7 -7q7 -6 17 -6q14 0 31 10q19 11 49.5 40.5t37.5 35.5q4 4 12 10q1 0 3 1.5t4 2.5
q4 2 7 2t4 -1q6 -6 8 -11.5t2.5 -12.5t0.5 -9q1 -6 2 -18t2 -21.5t2 -17.5q9 -56 36 -56q13 0 28 10q55 35 155 173q2 2 5 0q3 -1 1 -5q-49 -71 -69 -96q-52 -62 -84 -84q-16 -10 -30 -13q-1 0 -3 -0.5t-3 -0.5q-17 0 -28 11q-15 17 -24 58q-6 28 -4 60v14v7l-1 3
q-5 -2 -8 -4l-12 -9q-9 -7 -38 -37t-49 -42q-15 -10 -29 -13q-2 0 -5 -0.5t-4 -0.5q-13 0 -25 7q-5 2 -7 5l-7 5q-8 6 -12 15zM61 242q3 1 9 1q18 0 29 -9q20 -14 26 -14q9 0 17 9l4 -5q-11 -11 -23 -11q-8 -2 -11 -2q-16 0 -27 11l-5 5l-5 5t-5.5 3.5t-6.5 1.5h-3
q-10 -3 -24 -18l-6 2q13 17 31 21z" />
    <glyph glyph-name="adieresis" unicode="&#xe4;" horiz-adv-x="389" 
d="M-46 32q-6 12 -4 36q6 45 49.5 85.5t87.5 40.5q15 0 25 -5q14 -6 25 -20v-1q5 -3 0 -8q-1 -1 -4 -1q-4 0 -5 2q-14 19 -36 19q-7 0 -10 -1q-39 -10 -71 -54t-32 -85q0 -3 2 -11l1 -1v-1l7 -7q7 -6 17 -6q14 0 31 10q19 11 49.5 40.5t37.5 35.5q4 4 12 10q1 0 3 1.5t4 2.5
q4 2 7 2t4 -1q6 -6 8 -11.5t2.5 -12.5t0.5 -9q1 -6 2 -18t2 -21.5t2 -17.5q9 -56 36 -56q13 0 28 10q55 35 155 173q2 2 5 0q3 -1 1 -5q-49 -71 -69 -96q-52 -62 -84 -84q-16 -10 -30 -13q-1 0 -3 -0.5t-3 -0.5q-17 0 -28 11q-15 17 -24 58q-6 28 -4 60v14v7l-1 3
q-5 -2 -8 -4l-12 -9q-9 -7 -38 -37t-49 -42q-15 -10 -29 -13q-2 0 -5 -0.5t-4 -0.5q-13 0 -25 7q-5 2 -7 5l-7 5q-8 6 -12 15zM55 231q-13 0 -13 14q0 12 13 12t13 -12q0 -14 -13 -14zM94 239q0 5 4 9.5t10 4.5q12 0 12 -14q0 -12 -12 -12q-14 0 -14 12z" />
    <glyph glyph-name="aring" unicode="&#xe5;" horiz-adv-x="389" 
d="M-46 32q-6 12 -4 36q6 45 49.5 85.5t87.5 40.5q15 0 25 -5q14 -6 25 -20v-1q5 -3 0 -8q-1 -1 -4 -1q-4 0 -5 2q-14 19 -36 19q-7 0 -10 -1q-39 -10 -71 -54t-32 -85q0 -3 2 -11l1 -1v-1l7 -7q7 -6 17 -6q14 0 31 10q19 11 49.5 40.5t37.5 35.5q4 4 12 10q1 0 3 1.5t4 2.5
q4 2 7 2t4 -1q6 -6 8 -11.5t2.5 -12.5t0.5 -9q1 -6 2 -18t2 -21.5t2 -17.5q9 -56 36 -56q13 0 28 10q55 35 155 173q2 2 5 0q3 -1 1 -5q-49 -71 -69 -96q-52 -62 -84 -84q-16 -10 -30 -13q-1 0 -3 -0.5t-3 -0.5q-17 0 -28 11q-15 17 -24 58q-6 28 -4 60v14v7l-1 3
q-5 -2 -8 -4l-12 -9q-9 -7 -38 -37t-49 -42q-15 -10 -29 -13q-2 0 -5 -0.5t-4 -0.5q-13 0 -25 7q-5 2 -7 5l-7 5q-8 6 -12 15zM70 232q7 13 22 13q11 0 17.5 -8t4.5 -21q-3 -21 -25 -21q-14 0 -20.5 9.5t1.5 27.5zM89 205q15 0 16 15q1 14 -13 14q-12 0 -15 -9
q-4 -9 0 -14.5t12 -5.5z" />
    <glyph glyph-name="ae" unicode="&#xe6;" horiz-adv-x="439" 
d="M446 153q3 -3 0 -5q-6 -8 -33 -47t-46.5 -60.5t-44.5 -38.5q-30 -22 -69 -22t-66 20.5t-31 58.5q-1 18 0 34q-12 -9 -25 -22q-4 -4 -22.5 -23.5t-29.5 -29.5q-37 -33 -66 -40q-3 -1 -10 -1q-13 0 -26 7.5t-17 19.5q-6 9 -9 19q-7 30 13 76q20 37 50 66.5t64 32.5
q4 1 14 1q13 0 28 -5q17 -8 31 -26q3 -5 -1 -9q-1 -1 -4 -1q-4 0 -5 2q-18 20 -40 20q-9 0 -18 -3q-65 -26 -102 -87q-23 -38 -18 -65q1 -5 5 -15q3 -2 7.5 -6t5.5 -4q12 -5 20 -5q6 0 9 1q25 4 59 34l53 50q24 19 30 23q4 2 7 3q9 49 46 93q12 12 21 16q8 5 17 5q7 0 13 -3
q15 -8 13 -28q0 -9 -4 -25q-7 -19 -22 -45q-20 -30 -60 -66q5 -29 27 -40q22 -14 51 -14q7 0 11 1q18 1 42 14q32 20 68 63q12 14 33 41t26 34q1 3 5 1zM183 105q-2 -20 -2 -30q52 41 68 94q4 9 4 21q2 11 -4 13q-1 1 -4 1q-22 0 -39.5 -36t-22.5 -63z" />
    <glyph glyph-name="ccedilla" unicode="&#xe7;" horiz-adv-x="345" 
d="M349 154q4 -2 2 -6q-117 -188 -238 -188q-66 0 -107 49q-31 41 -28 88q2 55 48 77q13 7 29 7q6 0 16 -2q17 -5 39 -21q3 -2 1 -6q-2 -2 -4 -2t-3 1q-15 16 -35 20q-3 1 -10 1q-25 0 -39 -24.5t-14 -52.5q-3 -39 19 -72q20 -34 62 -45q12 -4 29 -4q114 0 228 178
q1 1 2.5 2t2.5 0zM63 -112l-2 -5q10 -5 18 -5q27 0 37.5 24.5t-21.5 34.5l6 23l-8 1l-7 -32q21 -1 16 -21q-5 -18 -21 -23q-3 -1 -6 -1q-7 0 -12 4z" />
    <glyph glyph-name="egrave" unicode="&#xe8;" horiz-adv-x="261" 
d="M-22 60q-4 46 21 98q33 64 68 64q6 0 12 -3q13 -8 13 -28q0 -13 -5 -26q-15 -49 -82 -110q3 -18 13 -29q9 -9 14 -12q14 -6 20 -8q15 -6 32 -6q7 0 11 1q53 8 110 77q11 13 30.5 38.5t27.5 36.5q1 1 2.5 1.5t2.5 -0.5q3 -1 1 -5q-8 -10 -34 -47t-46 -59t-45 -39
q-33 -23 -71 -23q-19 0 -51 12q-14 8 -23 17q-18 20 -21 50zM3 77q23 17 49 52q13 21 20 41q4 14 4 21q0 11 -5 13q-1 1 -4 1q-25 0 -44.5 -49t-19.5 -79zM25 298h3h5h2q38 -48 38 -49h-19q-6 13 -29 49z" />
    <glyph glyph-name="eacute" unicode="&#xe9;" horiz-adv-x="261" 
d="M-22 60q-4 46 21 98q33 64 68 64q6 0 12 -3q13 -8 13 -28q0 -13 -5 -26q-15 -49 -82 -110q3 -18 13 -29q9 -9 14 -12q14 -6 20 -8q15 -6 32 -6q7 0 11 1q53 8 110 77q11 13 30.5 38.5t27.5 36.5q1 1 2.5 1.5t2.5 -0.5q3 -1 1 -5q-8 -10 -34 -47t-46 -59t-45 -39
q-33 -23 -71 -23q-19 0 -51 12q-14 8 -23 17q-18 20 -21 50zM67 205q-25 0 -44.5 -49t-19.5 -79q23 17 49 52q13 21 20 41q4 14 4 21q0 11 -5 13q-1 1 -4 1zM97 298l10 -1q-3 -4 -16.5 -27t-15.5 -25q-2 0 -10 0.5t-9 0.5q-1 3 17.5 25.5t23.5 26.5z" />
    <glyph glyph-name="ecircumflex" unicode="&#xea;" horiz-adv-x="261" 
d="M268 154q3 -1 1 -5q-8 -10 -34 -47t-46 -59t-45 -39q-33 -23 -71 -23q-19 0 -51 12q-14 8 -23 17q-18 20 -21 50q-4 46 21 98q33 64 68 64q6 0 12 -3q13 -8 13 -28q0 -13 -5 -26q-15 -49 -82 -110q3 -18 13 -29q9 -9 14 -12q14 -6 20 -8q15 -6 32 -6q7 0 11 1
q53 8 110 77q11 13 30.5 38.5t27.5 36.5q1 1 2.5 1.5t2.5 -0.5zM67 205q-25 0 -44.5 -49t-19.5 -79q23 17 49 52q13 21 20 41q4 14 4 21q0 11 -5 13q-1 1 -4 1zM93 241l5 8q0 1 -10.5 21.5t-11.5 21.5l-9 4l-16 -20l-22 -23l6 -6l32 35q0 -12 8.5 -25t17.5 -16z" />
    <glyph glyph-name="edieresis" unicode="&#xeb;" horiz-adv-x="261" 
d="M268 154q3 -1 1 -5q-8 -10 -34 -47t-46 -59t-45 -39q-33 -23 -71 -23q-19 0 -51 12q-14 8 -23 17q-18 20 -21 50q-4 46 21 98q33 64 68 64q6 0 12 -3q13 -8 13 -28q0 -13 -5 -26q-15 -49 -82 -110q3 -18 13 -29q9 -9 14 -12q14 -6 20 -8q15 -6 32 -6q7 0 11 1
q53 8 110 77q11 13 30.5 38.5t27.5 36.5q1 1 2.5 1.5t2.5 -0.5zM67 205q-25 0 -44.5 -49t-19.5 -79q23 17 49 52q13 21 20 41q4 14 4 21q0 11 -5 13q-1 1 -4 1zM34 275q13 0 13 -12q0 -14 -13 -14t-13 14q0 12 13 12zM87 271q12 0 12 -14q0 -12 -12 -12q-14 0 -14 12
q0 5 4 9.5t10 4.5z" />
    <glyph glyph-name="igrave" unicode="&#xec;" horiz-adv-x="222" 
d="M7 36q-10 25 -8 61q1 28 2 53q0 10 11 10q9 -2 9 -10v-19.5t-0.5 -7.5t-1 -7.5t-0.5 -18.5q-2 -32 6 -54q9 -29 33 -32q71 0 164 140q3 3 6 1t1 -6q-44 -67 -69 -94q-53 -57 -104 -57q-33 3 -49 41zM-25 316h3h5h2q38 -48 38 -49h-19q-7 13 -29 49z" />
    <glyph glyph-name="iacute" unicode="&#xed;" horiz-adv-x="222" 
d="M7 36q-10 25 -8 61q1 28 2 53q0 10 11 10q9 -2 9 -10v-19.5t-0.5 -7.5t-1 -7.5t-0.5 -18.5q-2 -32 6 -54q9 -29 33 -32q71 0 164 140q3 3 6 1t1 -6q-44 -67 -69 -94q-53 -57 -104 -57q-33 3 -49 41zM43 311l10 -1q-3 -4 -16.5 -27t-15.5 -25q-2 0 -10 0.5t-9 0.5
q-1 3 17.5 25.5t23.5 26.5z" />
    <glyph glyph-name="icircumflex" unicode="&#xee;" horiz-adv-x="222" 
d="M228 152q3 -2 1 -6q-44 -67 -69 -94q-53 -57 -104 -57q-33 3 -49 41q-10 25 -8 61q1 28 2 53q0 10 11 10q9 -2 9 -10v-19.5t-0.5 -7.5t-1 -7.5t-0.5 -18.5q-2 -32 6 -54q9 -29 33 -32q71 0 164 140q3 3 6 1zM49 258l5 8q0 1 -10.5 21.5t-11.5 21.5l-9 4l-16 -20l-22 -23
l6 -6l32 35q0 -12 8.5 -25t17.5 -16z" />
    <glyph glyph-name="idieresis" unicode="&#xef;" horiz-adv-x="222" 
d="M228 152q3 -2 1 -6q-44 -67 -69 -94q-53 -57 -104 -57q-33 3 -49 41q-10 25 -8 61q1 28 2 53q0 10 11 10q9 -2 9 -10v-19.5t-0.5 -7.5t-1 -7.5t-0.5 -18.5q-2 -32 6 -54q9 -29 33 -32q71 0 164 140q3 3 6 1zM-15 294q13 0 13 -12q0 -14 -13 -14t-13 14q0 12 13 12z
M38 290q12 0 12 -14q0 -12 -12 -12q-14 0 -14 12q0 5 4 9.5t10 4.5z" />
    <glyph glyph-name="eth" unicode="&#xf0;" horiz-adv-x="406" 
d="M398 500q1 -3 -3 -7q-5 -2 -7 3q-51 116 -147 116q-59 0 -113 -42.5t-80 -99.5q-25 -57 -14 -107q11 -64 112 -64q32 0 77 9q83 22 101 54l2 1q3 2 8 2q9 0 14 -8q3 -3 3 -9l-4 -118l-6 -118l-15 -236q-2 -11 -11 -9q-11 0 -9 10v1q15 233 15 235q1 39 1 117q-2 64 -4 97
q-16 -4 -35 -12q-73 -33 -177 -33q-38 5 -61 20q-32 18 -39 55q-16 61 14 125q30 62 87.5 106.5t121.5 44.5q20 0 43 -5q81 -22 126 -127v-1z" />
    <glyph glyph-name="ntilde" unicode="&#xf1;" horiz-adv-x="375" 
d="M381 154q3 -3 2 -6q-80 -151 -130 -208q-30 -33 -50 -33q-5 0 -8 1q-26 7 -36 57q-5 27 -7 80q-2 9 -1.5 38.5t0.5 37.5q0 25 -7 31q-2 2 -7 2h-4q-6 -1 -7 -2q-1 0 -3.5 -2t-4.5 -2q-27 -20 -62 -61t-43 -67q-4 -8 -10 -8q-2 0 -6 2q-6 4 -4 11q8 31 11 59v31
q0 14 -3 29q-2 10 8 12q9 2 11 -8h1q3 -15 3 -33v-32q-1 -5 -2.5 -15t-1.5 -15l30 41q32 45 56 68q14 14 32 14q10 0 20 -6q18 -13 18 -49q0 -23 -1 -34q-2 -75 5 -118q2 -16 6 -27q7 -15 13 -16q13 0 21 6q7 5 21 19q55 61 134 201q2 4 6 2zM85 222q11 -11 27 -11q3 0 11 2
q12 0 23 11l-4 5q-8 -9 -17 -9q-6 0 -26 14q-11 9 -29 9q-6 0 -9 -1q-18 -4 -31 -21l6 -2q14 15 24 18h3q4 0 7.5 -2t7.5 -6.5t7 -6.5z" />
    <glyph glyph-name="ograve" unicode="&#xf2;" horiz-adv-x="345" 
d="M-8 120q-4 23 10 37q11 12 35 14h9q16 0 28 -4q37 -9 65.5 -37t32.5 -64q4 -19 2 -47q58 6 97.5 40.5t72.5 92.5q1 3 5 1q3 -1 1 -5q-75 -131 -177 -137q-5 -32 -23 -53t-49 -21q-38 0 -58 20q-14 12 -19 33q-3 19 0 37q1 13 8 32q-31 25 -40 61zM98 142q-40 -25 -58 -78
q37 -32 87 -43q16 -2 24 -2q2 24 -1 44q-4 50 -52 79zM31 26q-4 -41 21 -58q19 -14 43 -14q6 0 16 2q13 3 21 13t11 17.5t7 23.5q-3 0 -7.5 0.5t-8.5 1t-8 1.5q-52 9 -89 42q-5 -15 -6 -29zM10 149q-10 -11 -7.5 -27.5t12.5 -29.5q8 -12 20 -24q4 9 12 25q22 36 45 52
q-9 5 -22 10q-18 5 -32 5q-20 -2 -28 -11zM59 253h3h5h2q38 -48 38 -49h-19q-6 13 -29 49z" />
    <glyph glyph-name="oacute" unicode="&#xf3;" horiz-adv-x="345" 
d="M-8 120q-4 23 10 37q11 12 35 14h9q16 0 28 -4q37 -9 65.5 -37t32.5 -64q4 -19 2 -47q58 6 97.5 40.5t72.5 92.5q1 3 5 1q3 -1 1 -5q-75 -131 -177 -137q-5 -32 -23 -53t-49 -21q-38 0 -58 20q-14 12 -19 33q-3 19 0 37q1 13 8 32q-31 25 -40 61zM98 142q-40 -25 -58 -78
q37 -32 87 -43q16 -2 24 -2q2 24 -1 44q-4 50 -52 79zM31 26q-4 -41 21 -58q19 -14 43 -14q6 0 16 2q13 3 21 13t11 17.5t7 23.5q-3 0 -7.5 0.5t-8.5 1t-8 1.5q-52 9 -89 42q-5 -15 -6 -29zM10 149q-10 -11 -7.5 -27.5t12.5 -29.5q8 -12 20 -24q4 9 12 25q22 36 45 52
q-9 5 -22 10q-18 5 -32 5q-20 -2 -28 -11zM136 253l10 -1q-3 -4 -16.5 -27t-15.5 -25q-2 0 -10 0.5t-9 0.5q-1 3 17.5 25.5t23.5 26.5z" />
    <glyph glyph-name="ocircumflex" unicode="&#xf4;" horiz-adv-x="345" 
d="M349 153q3 -1 1 -5q-75 -131 -177 -137q-5 -32 -23 -53t-49 -21q-38 0 -58 20q-14 12 -19 33q-3 19 0 37q1 13 8 32q-31 25 -40 61q-4 23 10 37q11 12 35 14h9q16 0 28 -4q37 -9 65.5 -37t32.5 -64q4 -19 2 -47q58 6 97.5 40.5t72.5 92.5q1 3 5 1zM150 63q-4 50 -52 79
q-40 -25 -58 -78q37 -32 87 -43q16 -2 24 -2q2 24 -1 44zM15 92q8 -12 20 -24q4 9 12 25q22 36 45 52q-9 5 -22 10q-18 5 -32 5q-20 -2 -28 -11q-10 -11 -7.5 -27.5t12.5 -29.5zM111 -44q13 3 21 13t11 17.5t7 23.5q-3 0 -7.5 0.5t-8.5 1t-8 1.5q-52 9 -89 42q-5 -15 -6 -29
q-4 -41 21 -58q19 -14 43 -14q6 0 16 2zM134 204l5 8q0 1 -10.5 21.5t-11.5 21.5l-9 4l-16 -20l-22 -23l6 -6l32 35q0 -12 8.5 -25t17.5 -16z" />
    <glyph glyph-name="otilde" unicode="&#xf5;" horiz-adv-x="345" 
d="M100 210q11 -11 27 -11q3 0 11 2q12 0 23 11l-4 5q-8 -9 -17 -9q-6 0 -26 14q-10 9 -29 9q-6 0 -9 -1q-18 -4 -31 -21l6 -2q13 15 24 18h3q4 0 7.5 -2t7.5 -6.5t7 -6.5zM349 153q3 -1 1 -5q-75 -131 -177 -137q-5 -32 -23 -53t-49 -21q-38 0 -58 20q-14 12 -19 33
q-3 19 0 37q1 13 8 32q-31 25 -40 61q-4 23 10 37q11 12 35 14h9q16 0 28 -4q37 -9 65.5 -37t32.5 -64q4 -19 2 -47q58 6 97.5 40.5t72.5 92.5q1 3 5 1zM150 63q-4 50 -52 79q-40 -25 -58 -78q37 -32 87 -43q16 -2 24 -2q2 24 -1 44zM15 92q8 -12 20 -24q4 9 12 25
q22 36 45 52q-9 5 -22 10q-18 5 -32 5q-20 -2 -28 -11q-10 -11 -7.5 -27.5t12.5 -29.5zM111 -44q13 3 21 13t11 17.5t7 23.5q-3 0 -7.5 0.5t-8.5 1t-8 1.5q-52 9 -89 42q-5 -15 -6 -29q-4 -41 21 -58q19 -14 43 -14q6 0 16 2z" />
    <glyph glyph-name="odieresis" unicode="&#xf6;" horiz-adv-x="345" 
d="M349 153q3 -1 1 -5q-75 -131 -177 -137q-5 -32 -23 -53t-49 -21q-38 0 -58 20q-14 12 -19 33q-3 19 0 37q1 13 8 32q-31 25 -40 61q-4 23 10 37q11 12 35 14h9q16 0 28 -4q37 -9 65.5 -37t32.5 -64q4 -19 2 -47q58 6 97.5 40.5t72.5 92.5q1 3 5 1zM150 63q-4 50 -52 79
q-40 -25 -58 -78q37 -32 87 -43q16 -2 24 -2q2 24 -1 44zM15 92q8 -12 20 -24q4 9 12 25q22 36 45 52q-9 5 -22 10q-18 5 -32 5q-20 -2 -28 -11q-10 -11 -7.5 -27.5t12.5 -29.5zM111 -44q13 3 21 13t11 17.5t7 23.5q-3 0 -7.5 0.5t-8.5 1t-8 1.5q-52 9 -89 42q-5 -15 -6 -29
q-4 -41 21 -58q19 -14 43 -14q6 0 16 2zM80 242q13 0 13 -12q0 -14 -13 -14t-13 14q0 12 13 12zM133 238q12 0 12 -14q0 -12 -12 -12q-14 0 -14 12q0 5 4 9.5t10 4.5z" />
    <glyph glyph-name="divide" unicode="&#xf7;" horiz-adv-x="500" 
d="M282 279q-2 -15 -12.5 -23t-24.5 -8q-20 0 -29.5 14t2.5 40q10 19 32 19q15 0 25.5 -11.5t6.5 -30.5zM228 291q-6 -13 0 -20.5t18 -7.5q22 0 23 22q1 10 -4.5 15.5t-13.5 5.5q-17 0 -23 -15zM218 139q10 19 32 19q15 0 25.5 -11.5t6.5 -30.5q-2 -15 -12.5 -23t-24.5 -8
q-20 0 -29.5 14t2.5 40zM228 128q-6 -13 0 -21t18 -8q22 0 23 22q1 11 -4.5 16.5t-13.5 5.5q-17 0 -23 -15zM402 219q10 0 10 -10q1 -4 -2 -7t-7 -3l-299 -8q-10 0 -10 10t10 10z" />
    <glyph glyph-name="oslash" unicode="&#xf8;" horiz-adv-x="345" 
d="M352 153q4 -2 1 -5q-71 -127 -180 -138q-13 -73 -72 -73q-12 0 -24 3q-3 0 -7 2l-19 -58l-3 5l18 54q-32 12 -42 47q-3 18 0 37q1 13 8 32q-34 31 -39 61q-6 22 9 37q11 12 35 14q49 0 93 -33l18 50l2 -4l-16 -50l3 -3q30 -27 35 -65q4 -20 2 -47q100 6 173 133q1 3 5 1z
M97 141q-26 -16 -45 -51q-7 -11 -12 -26q23 -20 55 -33q5 17 7 22q4 13 11.5 35.5l10.5 31.5q-10 14 -27 21zM15 91q9 -12 20 -23q4 9 12 25q20 34 45 52q-11 6 -22 9q-13 5 -26 5q-26 0 -34 -10q-10 -12 -7.5 -28t12.5 -30zM52 -33q7 -6 19 -9l21 65q-30 10 -55 31
q-4 -13 -6 -28q-4 -40 21 -59zM96 -46q14 0 23.5 4t15.5 13.5t8.5 16.5t6.5 22q-12 0 -24 3q-10 2 -30 8q-8 -26 -21 -64q11 -3 21 -3zM151 18q2 25 -1 44q-3 28 -22 54l-23 -69l-6 -18q16 -5 28 -8z" />
    <glyph glyph-name="ugrave" unicode="&#xf9;" horiz-adv-x="332" 
d="M19 -36q-49 0 -49 72q4 44 32 119q2 6 8 6q3 0 4 -1q9 -2 5 -11v-1q-26 -63 -25 -113q0 -33 13 -45q6 -5 21 -7q9 0 14 1q32 0 80 81q2 35 5 52q4 20 8 30q6 20 16 29q4 4 10 4q10 2 12 -8v-18q-1 -5 -9 -29q-16 -36 -25 -53q-1 -5 -1 -16q0 -33 8 -56q6 -25 22 -25
q7 0 10 2q21 11 46 36q14 14 40 44q15 19 69 96q3 3 4 1q3 -1 1 -5q-95 -150 -155 -181q-14 -6 -16 -6q-1 0 -3 -0.5t-3 -0.5q-7 0 -14 4q-25 19 -25 79q-30 -44 -61 -69q-6 -4 -16 -7q-7 -3 -16 -3q-3 -1 -10 -1zM46 242h3h5h2q38 -48 38 -49h-19q-7 13 -29 49zM142 115
q0 -3 -1 -8.5t-1 -8.5q5 10 13 30q7 23 8 28q2 9 0 12l-2 -2q-7 -6 -11 -23q-4 -13 -6 -28z" />
    <glyph glyph-name="uacute" unicode="&#xfa;" horiz-adv-x="332" 
d="M19 -36q-49 0 -49 72q4 44 32 119q2 6 8 6q3 0 4 -1q9 -2 5 -11v-1q-26 -63 -25 -113q0 -33 13 -45q6 -5 21 -7q9 0 14 1q32 0 80 81q2 35 5 52q4 20 8 30q6 20 16 29q4 4 10 4q10 2 12 -8v-18q-1 -5 -9 -29q-16 -36 -25 -53q-1 -5 -1 -16q0 -33 8 -56q6 -25 22 -25
q7 0 10 2q21 11 46 36q14 14 40 44q15 19 69 96q3 3 4 1q3 -1 1 -5q-95 -150 -155 -181q-14 -6 -16 -6q-1 0 -3 -0.5t-3 -0.5q-7 0 -14 4q-25 19 -25 79q-30 -44 -61 -69q-6 -4 -16 -7q-7 -3 -16 -3q-3 -1 -10 -1zM108 266l10 -1q-3 -4 -16.5 -27t-15.5 -25q-2 0 -10 0.5
t-9 0.5q-1 3 17.5 25.5t23.5 26.5zM142 115q0 -3 -1 -8.5t-1 -8.5q5 10 13 30q7 23 8 28q2 9 0 12l-2 -2q-7 -6 -11 -23q-4 -13 -6 -28z" />
    <glyph glyph-name="ucircumflex" unicode="&#xfb;" horiz-adv-x="332" 
d="M337 154q3 -1 1 -5q-95 -150 -155 -181q-14 -6 -16 -6q-1 0 -3 -0.5t-3 -0.5q-7 0 -14 4q-25 19 -25 79q-30 -44 -61 -69q-6 -4 -16 -7q-7 -3 -16 -3q-3 -1 -10 -1q-49 0 -49 72q4 44 32 119q2 6 8 6q3 0 4 -1q9 -2 5 -11v-1q-26 -63 -25 -113q0 -33 13 -45q6 -5 21 -7
q9 0 14 1q32 0 80 81q2 35 5 52q4 20 8 30q6 20 16 29q4 4 10 4q10 2 12 -8v-18q-1 -5 -9 -29q-16 -36 -25 -53q-1 -5 -1 -16q0 -33 8 -56q6 -25 22 -25q7 0 10 2q21 11 46 36q14 14 40 44q15 19 69 96q3 3 4 1zM148 143q-4 -13 -6 -28q0 -3 -1 -8.5t-1 -8.5q5 10 13 30
q7 23 8 28q2 9 0 12l-2 -2q-7 -6 -11 -23zM111 220l5 8q0 1 -10.5 21.5t-11.5 21.5l-9 4l-16 -20l-22 -23l6 -6l32 35q0 -12 8.5 -25t17.5 -16z" />
    <glyph glyph-name="udieresis" unicode="&#xfc;" horiz-adv-x="332" 
d="M337 154q3 -1 1 -5q-95 -150 -155 -181q-14 -6 -16 -6q-1 0 -3 -0.5t-3 -0.5q-7 0 -14 4q-25 19 -25 79q-30 -44 -61 -69q-6 -4 -16 -7q-7 -3 -16 -3q-3 -1 -10 -1q-49 0 -49 72q4 44 32 119q2 6 8 6q3 0 4 -1q9 -2 5 -11v-1q-26 -63 -25 -113q0 -33 13 -45q6 -5 21 -7
q9 0 14 1q32 0 80 81q2 35 5 52q4 20 8 30q6 20 16 29q4 4 10 4q10 2 12 -8v-18q-1 -5 -9 -29q-16 -36 -25 -53q-1 -5 -1 -16q0 -33 8 -56q6 -25 22 -25q7 0 10 2q21 11 46 36q14 14 40 44q15 19 69 96q3 3 4 1zM148 143q-4 -13 -6 -28q0 -3 -1 -8.5t-1 -8.5q5 10 13 30
q7 23 8 28q2 9 0 12l-2 -2q-7 -6 -11 -23zM55 257q13 0 13 -12q0 -14 -13 -14t-13 14q0 12 13 12zM108 253q12 0 12 -14q0 -12 -12 -12q-14 0 -14 12q0 5 4 9.5t10 4.5z" />
    <glyph glyph-name="yacute" unicode="&#xfd;" horiz-adv-x="402" 
d="M-222 -515q-5 71 29 132q42 79 198 182q136 91 190 133q-17 132 -42 233q-87 -183 -158 -183q-11 0 -20 4q-18 7 -22 26q-3 17 0 32q7 40 43 106q2 5 8 5q3 0 5 -1q9 -6 4 -13q-34 -63 -42 -100q-6 -33 11 -39q8 -3 17 -3q42 0 101 89q13 21 52 97q1 2 2 3q2 1 3 2h1
q10 2 12 -7q29 -115 46 -234q1 1 3 2.5t3 2.5q106 87 179 198q1 3 4 3q1 0 3 -1q4 -4 1 -8q-70 -107 -181 -199q-3 -3 -11 -9q1 -6 3 -20q19 -155 5 -270q-17 -123 -76 -191q-97 -118 -213 -118q-64 0 -109 41t-49 105zM-183 -388q-32 -60 -27 -126q4 -57 42.5 -92.5
t95.5 -35.5q79 0 157 69q52 46 78.5 98.5t35.5 125.5q14 109 -2 264q0 5 -1 7q-50 -39 -186 -132q-77 -54 -107 -79q-61 -53 -86 -99zM108 266l10 -1q-3 -4 -16.5 -27t-15.5 -25q-2 0 -10 0.5t-9 0.5q-1 3 17.5 25.5t23.5 26.5z" />
    <glyph glyph-name="thorn" unicode="&#xfe;" horiz-adv-x="407" 
d="M408 153q4 -2 2 -5q-70 -138 -180 -138q-25 0 -69 10q-2 -2 -6.5 -5.5t-6.5 -5.5q-28 -19 -58 -26q-16 -2 -23 -2q-44 0 -66 25q-14 18 -5 35q15 24 44 24q10 0 14 -1q15 -2 59 -16l36 -12q16 18 19 30q9 24 -7 46q-23 38 -70 38q-15 0 -23 -1q-30 -6 -55 -16
q-21 -60 -27 -94q-15 -80 -14 -157q1 -31 6 -68.5t16.5 -84t35 -77t54.5 -30.5q9 2 11 -9q0 -9 -9 -11h-7q-36 0 -63 32t-40.5 81t-20 90t-7.5 76q-3 76 15 162q6 34 20.5 76.5t31.5 65.5q55 93 199 167q2 1 5 1q6 0 8 -5q6 -9 -4 -13q-32 -17 -65 -38t-78.5 -64.5
t-60.5 -86.5q37 12 46 14q28 6 42 6q7 0 21 -2q34 -8 54 -39q23 -31 8 -67q-7 -16 -19 -29q36 -8 56 -8q62 0 103 34t73 96q2 4 5 2zM136 24l3 3l-30 9q-45 14 -56 16q-2 0 -5.5 0.5t-5.5 0.5q-8 0 -16 -3q-12 -3 -19 -15q-6 -10 3 -20.5t22 -15.5q17 -5 31 -5q38 0 73 30z
" />
    <glyph glyph-name="ydieresis" unicode="&#xff;" horiz-adv-x="402" 
d="M408 154q4 -4 1 -8q-70 -107 -181 -199q-3 -3 -11 -9q1 -6 3 -20q19 -155 5 -270q-17 -123 -76 -191q-97 -118 -213 -118q-64 0 -109 41t-49 105q-5 71 29 132q42 79 198 182q136 91 190 133q-17 132 -42 233q-87 -183 -158 -183q-11 0 -20 4q-18 7 -22 26q-3 17 0 32
q7 40 43 106q2 5 8 5q3 0 5 -1q9 -6 4 -13q-34 -63 -42 -100q-6 -33 11 -39q8 -3 17 -3q42 0 101 89q13 21 52 97q1 2 2 3q2 1 3 2h1q10 2 12 -7q29 -115 46 -234q1 1 3 2.5t3 2.5q106 87 179 198q1 3 4 3q1 0 3 -1zM197 -85q0 5 -1 7q-50 -39 -186 -132q-77 -54 -107 -79
q-61 -53 -86 -99q-32 -60 -27 -126q4 -57 42.5 -92.5t95.5 -35.5q79 0 157 69q52 46 78.5 98.5t35.5 125.5q14 109 -2 264zM55 257q13 0 13 -12q0 -14 -13 -14t-13 14q0 12 13 12zM108 253q12 0 12 -14q0 -12 -12 -12q-14 0 -14 12q0 5 4 9.5t10 4.5z" />
    <glyph glyph-name="Amacron" unicode="&#x100;" horiz-adv-x="727" 
d="M723 289q4 -4 0 -10q-46 -42 -81.5 -61.5t-93.5 -33.5q2 -20 7.5 -84.5t9.5 -98.5q8 -63 21 -94q9 -20 26 -36q15 -11 41 -18q10 -2 8 -12q-1 -7 -12 -7q-30 5 -51 20t-32.5 40.5t-16.5 46.5t-10 56q-5 36 -11.5 100.5t-8.5 82.5q-9 -1 -27 -1q-43 0 -119 14
q-150 32 -180 35h-2q-65 -178 -136 -331q-3 -6 -10 -6q-3 0 -4 1q-9 5 -4 13q75 156 136 325q-30 2 -45 2q-61 0 -116 -13q-7 -2 -9 5t5 9q62 17 123 17q15 0 49 -2l9 26q14 42 31 95q13 45 31.5 88t53.5 84t74 41q38 0 68.5 -34.5t44.5 -71t24 -77.5q16 -64 30 -196
q2 0 5.5 0.5t4.5 0.5q80 16 157 85q2 2 5 2q4 0 5 -2zM377 214q71 -16 120 -16q3 0 10 0.5t10 0.5q-36 365 -136 365q-83 0 -145 -200q-4 -16 -30 -95q-7 -19 -8 -22q32 -3 179 -33zM322 630q0 -7 5 -7l117 8q5 0 5 7q0 4 -2 6t-4 1l-116 -7q-5 -2 -5 -8z" />
    <glyph glyph-name="amacron" unicode="&#x101;" horiz-adv-x="389" 
d="M393 152q3 -1 1 -5q-54 -79 -68 -96q-52 -62 -84 -84q-16 -10 -30 -13q-4 -1 -10 -1q-27 0 -38 29t-12 73t-3 51q-7 -3 -20 -13q-9 -7 -38 -37t-49 -42q-18 -13 -41 -13q-34 0 -48 31q-15 33 8.5 74t58.5 65q34 24 65 24q14 0 26 -6q14 -6 25 -20v-1q5 -3 0 -8
q-1 -1 -4 -1q-4 0 -5 2q-14 19 -36 19q-7 0 -10 -1q-24 -6 -46 -26q-27 -24 -48 -67.5t1 -65.5q7 -6 17 -6q14 0 31 10q19 11 49.5 40.5t37.5 35.5q4 4 12 10q1 0 3 1.5t4 2.5q4 2 7 2t4 -1q8 -9 12 -46.5t13 -68.5t29 -31q35 0 110 90q23 28 70 93q3 3 6 0zM22 246
q0 -7 5 -7l117 8q5 0 5 7q0 4 -2 6t-4 1l-116 -7q-5 -2 -5 -8z" />
    <glyph glyph-name="Abreve" unicode="&#x102;" horiz-adv-x="727" 
d="M723 289q4 -4 0 -10q-46 -42 -81.5 -61.5t-93.5 -33.5q2 -20 7.5 -84.5t9.5 -98.5q8 -63 21 -94q9 -20 26 -36q15 -11 41 -18q10 -2 8 -12q-1 -7 -12 -7q-30 5 -51 20t-32.5 40.5t-16.5 46.5t-10 56q-5 36 -11.5 100.5t-8.5 82.5q-9 -1 -27 -1q-43 0 -119 14
q-150 32 -180 35h-2q-65 -178 -136 -331q-3 -6 -10 -6q-3 0 -4 1q-9 5 -4 13q75 156 136 325q-30 2 -45 2q-61 0 -116 -13q-7 -2 -9 5t5 9q62 17 123 17q15 0 49 -2l9 26q14 42 31 95q13 45 31.5 88t53.5 84t74 41q38 0 68.5 -34.5t44.5 -71t24 -77.5q16 -64 30 -196
q2 0 5.5 0.5t4.5 0.5q80 16 157 85q2 2 5 2q4 0 5 -2zM377 214q71 -16 120 -16q3 0 10 0.5t10 0.5q-36 365 -136 365q-83 0 -145 -200q-4 -16 -30 -95q-7 -19 -8 -22q32 -3 179 -33zM346 683q4 -4 13 -14.5t13.5 -14.5t11 -8.5t12.5 -4.5q13 0 24 20l11 -9q-19 -36 -49 -36
q-17 0 -29 12.5t-12 32.5z" />
    <glyph glyph-name="abreve" unicode="&#x103;" horiz-adv-x="389" 
d="M393 152q3 -1 1 -5q-54 -79 -68 -96q-52 -62 -84 -84q-16 -10 -30 -13q-4 -1 -10 -1q-27 0 -38 29t-12 73t-3 51q-7 -3 -20 -13q-9 -7 -38 -37t-49 -42q-18 -13 -41 -13q-34 0 -48 31q-15 33 8.5 74t58.5 65q34 24 65 24q14 0 26 -6q14 -6 25 -20v-1q5 -3 0 -8
q-1 -1 -4 -1q-4 0 -5 2q-14 19 -36 19q-7 0 -10 -1q-24 -6 -46 -26q-27 -24 -48 -67.5t1 -65.5q7 -6 17 -6q14 0 31 10q19 11 49.5 40.5t37.5 35.5q4 4 12 10q1 0 3 1.5t4 2.5q4 2 7 2t4 -1q8 -9 12 -46.5t13 -68.5t29 -31q35 0 110 90q23 28 70 93q3 3 6 0zM44 278
q28 -31 39 -31q13 0 28 25l11 -9q-19 -36 -49 -36q-17 0 -29 12.5t-12 32.5z" />
    <glyph glyph-name="Aogonek" unicode="&#x104;" horiz-adv-x="727" 
d="M713 289q2 2 5 2q4 0 5 -2q4 -4 0 -10q-48 -42 -82 -61t-93 -34q2 -20 7.5 -84.5t9.5 -98.5q8 -63 21 -94q9 -20 26 -36q15 -11 41 -18q10 -2 8 -12q-1 -7 -12 -7q-20 3 -41 14l7 -30q-26 -1 -22 -24.5t25 -33.5q6 -2 12 -2q10 0 16 5l3 -7q-10 -6 -24 -6q-16 0 -31 10
t-21 23t1 27t29 20l-8 27q-21 18 -30 40q-16 33 -26 100q-5 36 -11.5 100.5t-8.5 82.5q-9 -1 -27 -1q-43 0 -119 14q-150 32 -180 35h-2q-65 -178 -136 -331q-3 -6 -10 -6q-3 0 -4 1q-9 5 -4 13v1q75 154 136 324q-30 2 -45 2q-61 0 -116 -13q-7 -2 -9 5t5 9q62 17 123 17
q15 0 49 -2l9 26q14 42 31 95q9 31 21.5 62.5t32.5 68t47.5 59.5t57.5 23q38 0 68.5 -34.5t44.5 -71t24 -77.5q16 -64 30 -196q2 0 5.5 0.5t4.5 0.5q80 16 157 85zM198 247q32 -3 179 -33q71 -16 120 -16q3 0 10 0.5t10 0.5q-20 200 -57 287q-36 78 -79 78q-83 0 -145 -200
q-4 -16 -30 -95q-7 -19 -8 -22z" />
    <glyph glyph-name="aogonek" unicode="&#x105;" horiz-adv-x="389" 
d="M387 152q3 3 6 0q3 -1 1 -5q-54 -79 -68 -96q-52 -62 -84 -84q-16 -10 -30 -13q-4 -1 -10 -1q-27 0 -38 29t-12 73t-3 51q-7 -3 -20 -13q-9 -7 -38 -37t-49 -42q-17 -13 -45 -13l8 -35q-26 -1 -22 -24.5t25 -33.5q6 -2 12 -2q10 0 16 5l3 -7q-10 -6 -24 -6q-16 0 -31 10
t-21 23t1 27t29 20l-7 25q-23 7 -33 29q-15 33 8.5 74t58.5 65q34 24 65 24q14 0 26 -6q14 -6 25 -20v-1q5 -3 0 -8q-1 -1 -4 -1q-4 0 -5 2q-14 19 -36 19q-7 0 -10 -1q-24 -6 -46 -26q-27 -24 -48 -67.5t1 -65.5q7 -6 17 -6q14 0 31 10q19 11 49.5 40.5t37.5 35.5
q4 4 12 10q1 0 3 1.5t4 2.5q4 2 7 2t4 -1q8 -9 12 -46.5t13 -68.5t29 -31q35 0 110 90q23 28 70 93z" />
    <glyph glyph-name="Cacute" unicode="&#x106;" horiz-adv-x="687" 
d="M2 181q-8 111 40 200q37 70 116.5 120.5t156.5 50.5q66 0 127.5 -37.5t102.5 -94.5q4 -6 -1 -9q-1 -1 -3 -1q-5 0 -6 3q-39 56 -96.5 91t-120.5 35q-21 0 -31 -2q-65 -8 -129 -57.5t-94 -110.5q-39 -83 -33 -186q6 -99 59.5 -188.5t140.5 -109.5q17 -5 43 -5
q85 0 161.5 45.5t123.5 119.5q4 4 8 4q2 0 6 -2q8 -4 2 -13q-53 -76 -133 -123.5t-169 -47.5q-27 0 -46 5q-97 20 -157 113t-68 200zM284 586q-1 4 24 34.5t32 35.5h3h7l3 -1q-4 -6 -22.5 -36.5t-20.5 -33.5q-2 0 -13.5 0.5t-12.5 0.5z" />
    <glyph glyph-name="cacute" unicode="&#x107;" horiz-adv-x="342" 
d="M2 9q-31 41 -28 88q2 55 48 77q13 7 29 7q6 0 16 -2q17 -5 39 -21q3 -2 1 -6q-2 -2 -4 -2t-3 1q-15 16 -35 20q-3 1 -10 1q-25 0 -39 -24.5t-14 -52.5q-3 -39 19 -72q20 -34 62 -45q12 -4 29 -4q114 0 227 177q1 1 3 2t3 0q4 -2 2 -6q-117 -187 -238 -187q-66 0 -107 49z
M24 229q-1 4 24 34.5t32 35.5h3q3 0 7 -1h3q-4 -6 -22.5 -36.5t-20.5 -33.5q-2 0 -13.5 0.5t-12.5 0.5z" />
    <glyph glyph-name="Ccircumflex" unicode="&#x108;" horiz-adv-x="687" 
d="M573 47q8 -4 2 -13q-53 -76 -133 -123.5t-169 -47.5q-27 0 -46 5q-97 20 -157 113t-68 200q-8 111 40 200q37 70 116.5 120.5t156.5 50.5q66 0 127.5 -37.5t102.5 -94.5q4 -6 -1 -9q-1 -1 -3 -1q-5 0 -6 3q-39 56 -96.5 91t-120.5 35q-21 0 -31 -2q-65 -8 -129 -57.5
t-94 -110.5q-39 -83 -33 -186q6 -99 59.5 -188.5t140.5 -109.5q17 -5 43 -5q85 0 161.5 45.5t123.5 119.5q4 4 8 4q2 0 6 -2zM353 606q-14 5 -27.5 25t-12.5 39l-50 -54l-10 9l34 36l26 31l13 -6l35 -68z" />
    <glyph glyph-name="ccircumflex" unicode="&#x109;" horiz-adv-x="342" 
d="M345 153q4 -2 2 -6q-117 -187 -238 -187q-66 0 -107 49q-31 41 -28 88q2 55 48 77q13 7 29 7q6 0 16 -2q17 -5 39 -21q3 -2 1 -6q-2 -2 -4 -2t-3 1q-15 16 -35 20q-3 1 -10 1q-25 0 -39 -24.5t-14 -52.5q-3 -39 19 -72q20 -34 62 -45q12 -4 29 -4q114 0 227 177q1 1 3 2
t3 0zM101 211q-14 5 -27.5 25t-12.5 39l-50 -54l-10 9l34 36l26 31l13 -6q2 -2 18.5 -33.5t16.5 -34.5z" />
    <glyph glyph-name="Cdotaccent" unicode="&#x10a;" horiz-adv-x="687" 
d="M573 47q8 -4 2 -13q-53 -76 -133 -123.5t-169 -47.5q-27 0 -46 5q-97 20 -157 113t-68 200q-8 111 40 200q37 70 116.5 120.5t156.5 50.5q66 0 127.5 -37.5t102.5 -94.5q4 -6 -1 -9q-1 -1 -3 -1q-5 0 -6 3q-39 56 -96.5 91t-120.5 35q-21 0 -31 -2q-65 -8 -129 -57.5
t-94 -110.5q-39 -83 -33 -186q6 -99 59.5 -188.5t140.5 -109.5q17 -5 43 -5q85 0 161.5 45.5t123.5 119.5q4 4 8 4q2 0 6 -2zM307 637q7 0 13 -5t6 -13t-6 -13.5t-13 -5.5q-8 0 -13.5 5.5t-5.5 13.5q0 18 19 18z" />
    <glyph glyph-name="cdotaccent" unicode="&#x10b;" horiz-adv-x="342" 
d="M345 153q4 -2 2 -6q-117 -187 -238 -187q-66 0 -107 49q-31 41 -28 88q2 55 48 77q13 7 29 7q6 0 16 -2q17 -5 39 -21q3 -2 1 -6q-2 -2 -4 -2t-3 1q-15 16 -35 20q-3 1 -10 1q-25 0 -39 -24.5t-14 -52.5q-3 -39 19 -72q20 -34 62 -45q12 -4 29 -4q114 0 227 177q1 1 3 2
t3 0zM41 265q7 0 13 -5t6 -13t-6 -13.5t-13 -5.5q-8 0 -13.5 5.5t-5.5 13.5q0 18 19 18z" />
    <glyph glyph-name="Ccaron" unicode="&#x10c;" horiz-adv-x="687" 
d="M573 47q8 -4 2 -13q-53 -76 -133 -123.5t-169 -47.5q-27 0 -46 5q-97 20 -157 113t-68 200q-8 111 40 200q37 70 116.5 120.5t156.5 50.5q66 0 127.5 -37.5t102.5 -94.5q4 -6 -1 -9q-1 -1 -3 -1q-5 0 -6 3q-39 56 -96.5 91t-120.5 35q-21 0 -31 -2q-65 -8 -129 -57.5
t-94 -110.5q-39 -83 -33 -186q6 -99 59.5 -188.5t140.5 -109.5q17 -5 43 -5q85 0 161.5 45.5t123.5 119.5q4 4 8 4q2 0 6 -2zM342 654q0 -3 -16.5 -35t-18.5 -34l-13 -6l-26 31l-34 36l10 9l50 -54q-1 20 12.5 39.5t28.5 25.5z" />
    <glyph glyph-name="ccaron" unicode="&#x10d;" horiz-adv-x="342" 
d="M345 153q4 -2 2 -6q-117 -187 -238 -187q-66 0 -107 49q-31 41 -28 88q2 55 48 77q13 7 29 7q6 0 16 -2q17 -5 39 -21q3 -2 1 -6q-2 -2 -4 -2t-3 1q-15 16 -35 20q-3 1 -10 1q-25 0 -39 -24.5t-14 -52.5q-3 -39 19 -72q20 -34 62 -45q12 -4 29 -4q114 0 227 177q1 1 3 2
t3 0zM92 286q0 -3 -16.5 -35t-18.5 -34l-13 -6l-26 31l-34 36l10 9l50 -54q-1 20 12.5 39.5t28.5 25.5z" />
    <glyph glyph-name="Dcaron" unicode="&#x10e;" horiz-adv-x="625" 
d="M491 365q26 -84 20 -170q-9 -110 -43 -166q-47 -83 -144 -133t-197 -50q-142 0 -258 97q-5 3 -1 7q1 2 4 2t4 -1q111 -88 246 -88q116 0 213 63q77 50 111 113t40 158q6 85 -17 161q-22 75 -74 135t-121 60q-38 0 -69 -17.5t-51.5 -47.5t-34 -61.5t-22.5 -68.5
q2 -6 4 -10q23 -72 36 -165q14 -98 8 -169q-10 -105 -55 -105q-8 0 -15 3q-7 5 -14 22q-1 3 -2 6.5t-2 8t-2 6.5q-11 61 -5 169q7 120 30 214v2q-1 1 -1 2q-35 111 -76 138q-8 5 -3 14q3 4 9 4q3 0 5 -1q40 -25 77 -120q21 80 67 135t120 55q73 0 130.5 -61.5t82.5 -140.5z
M114 180q-9 68 -27 134q-4 -15 -5 -25q-14 -69 -19 -166q-4 -102 8 -165q1 -3 2.5 -9.5t2.5 -9.5q4 -10 8 -12q0 -1 5 -1q3 0 7 2q21 10 28 88q3 76 -10 164zM314 673q0 -3 -16.5 -35t-18.5 -34l-13 -6l-26 31l-34 36l10 9l50 -54q-1 20 12.5 39.5t28.5 25.5z" />
    <glyph glyph-name="dcaron" unicode="&#x10f;" horiz-adv-x="675" 
d="M483 154q2 -2 1 -5q-123 -189 -225 -189q-69 0 -109 87q-44 -38 -76 -42q-7 -2 -21 -2q-29 0 -54 14t-32 40q-8 31 8 65q15 34 46 46q11 5 27 5q20 0 35 -9h1q3 -1 1 -5t-4 -2q-11 3 -20 3q-45 0 -63 -48q-9 -22 -6 -49q6 -48 62 -48q35 0 69 24q21 18 22 19
q-46 114 -49 269q0 214 68 232q22 0 34 -7q34 -15 48 -80q11 -47 7 -119q-15 -202 -86 -288q6 -16 10 -23q1 -2 3.5 -6t3.5 -6l8 -12q32 -37 67 -39q91 0 216 172l2 2q3 3 6 1zM122 327q3 -140 40 -250q37 43 55.5 124.5t19.5 152.5q3 63 -9 114q-14 69 -61 69
q-16 -4 -28 -37q-6 -18 -12 -56q-7 -51 -5 -117zM327 538q1 -16 -19.5 -38.5t-36.5 -25.5l-2 8q12 2 28.5 18t21.5 30q-6 -3 -14 -3q-9 0 -15.5 4.5t-6.5 10.5q0 15 21 15q23 0 23 -19z" />
    <glyph glyph-name="Dcroat" unicode="&#x110;" horiz-adv-x="625" 
d="M462 362q26 -80 20 -170q-7 -106 -42 -166q-49 -84 -144 -133.5t-195 -49.5q-145 0 -261 96q-5 4 -1 8q1 2 4 2t4 -1q110 -88 243 -88q116 0 217 63q76 49 110.5 113t40.5 158q5 86 -17 161q-23 76 -75 135.5t-121 59.5q-127 0 -176 -195q24 -73 37 -157l96 3
q10 -3 10 -10q0 -10 -10 -10l-93 -3q13 -92 8 -167q-10 -106 -57 -106q-7 0 -13 3q-8 7 -15 22q-4 17 -5 22q-12 65 -6 169q1 20 5 55l-123 -3q-10 0 -10 10t10 10l125 3q3 28 13 92q2 7 5.5 23t4.5 23q0 3 -1 4q-33 112 -76 138q-9 6 -3 14q3 5 8 5q2 0 6 -2
q46 -29 77 -119q44 160 153 186q13 4 32 4q75 0 132.5 -61t82.5 -141zM86 177l-1 1l-47 -2q0 -9 -1.5 -27.5t-2.5 -28.5q-2 -112 8 -165q2 -7 6 -19q4 -11 8 -13h5q4 0 6 2q24 10 28 87q3 73 -9 165zM82 198q-9 58 -24 113q-4 -19 -5 -26q-8 -38 -13 -89z" />
    <glyph glyph-name="dcroat" unicode="&#x111;" horiz-adv-x="479" 
d="M477 153q3 3 6 1q2 -2 1 -5q-123 -189 -225 -189q-69 0 -109 87q-44 -38 -76 -42q-7 -2 -21 -2q-29 0 -54 14t-32 40q-8 31 8 65q15 34 46 46q11 5 27 5q20 0 35 -9h1q3 -1 1 -5t-4 -2q-11 3 -20 3q-45 0 -63 -48q-9 -22 -6 -49q6 -48 62 -48q35 0 69 24q21 18 22 19
q-49 123 -49 298l-37 -1q-7 0 -9 9q0 7 9 9l38 1q7 171 66 184l1 1q22 0 34 -7q34 -15 48 -80q10 -43 8 -93l31 1q7 2 9 -8q0 -9 -9 -9l-32 -1v-9q-6 -64 -12 -104t-25 -93.5t-49 -90.5q6 -16 10 -23q1 -2 3.5 -6t3.5 -6l8 -12q32 -37 67 -39q92 0 216 172zM156 95l6 -18
q36 42 55.5 128t19.5 156l-115 -4q0 -151 34 -262zM122 375l116 4q0 158 -71 158q-25 -6 -35 -61.5t-10 -100.5z" />
    <glyph glyph-name="Emacron" unicode="&#x112;" horiz-adv-x="562" 
d="M462 -49q5 -5 -1 -11q-127 -96 -245 -96q-99 0 -165 66q-40 40 -56 97t-5 114q17 78 90 126t162 61q-79 41 -109 94q-8 17 -10 29q-2 10 -1 16q0 55 55 89t113 34q76 0 122 -49q6 -5 0 -11q-2 -2 -5 -2q-2 0 -6 2q-33 39 -92 42q-56 0 -102.5 -23.5t-60.5 -71.5
q0 -1 -3 -11q0 -8 1 -11q1 -9 8 -23q32 -54 110 -101q26 2 39 2q9 0 27 -2q21 -5 27 -11q4 -4 4 -9t-2 -8q-3 -6 -14 -8q-14 0 -29 3q-21 6 -51 19q-3 2 -7 4q-2 0 -5 -0.5t-4 -0.5q-84 -17 -154 -64.5t-82 -119.5q-10 -51 4.5 -103t50.5 -88q61 -61 155 -61q109 0 231 88
q2 2 4 2q4 0 6 -3zM327 304q-9 1 -26 1q-18 0 -26 -1q40 -22 67 -22q8 2 9 4t1 5l-2 4q-4 4 -23 9zM205 622q0 -7 5 -7l117 8q5 0 5 7q0 4 -2 6t-4 1l-116 -7q-5 -2 -5 -8z" />
    <glyph glyph-name="emacron" unicode="&#x113;" horiz-adv-x="264" 
d="M268 154q3 -1 1 -5q-3 -5 -13 -19.5t-13.5 -19t-12 -17t-12.5 -17.5t-12.5 -15t-14 -16t-14 -14t-16.5 -14.5t-17 -12.5q-33 -23 -71 -23q-19 0 -51 12q-14 8 -23 17q-18 20 -21 50q-4 46 21 98q33 64 68 64q6 0 12 -3q13 -8 13 -28q0 -13 -5 -26q-15 -49 -82 -110
q3 -18 13 -29q9 -9 14 -12q14 -6 20 -8q15 -6 32 -6q7 0 11 1q76 11 166 151q1 1 3.5 2t3.5 0zM67 205q-25 0 -44.5 -49t-19.5 -79q23 17 49 52q13 21 20 41q4 14 4 21q0 11 -5 13q-1 1 -4 1zM8 247q0 -7 5 -7l117 8q5 0 5 7q0 4 -2 6t-4 1l-116 -7q-5 -2 -5 -8z" />
    <glyph glyph-name="Ebreve" unicode="&#x114;" horiz-adv-x="562" 
d="M462 -49q5 -5 -1 -11q-127 -96 -245 -96q-99 0 -165 66q-40 40 -56 97t-5 114q17 78 90 126t162 61q-79 41 -109 94q-8 17 -10 29q-2 10 -1 16q0 55 55 89t113 34q76 0 122 -49q6 -5 0 -11q-2 -2 -5 -2q-2 0 -6 2q-33 39 -92 42q-56 0 -102.5 -23.5t-60.5 -71.5
q0 -1 -3 -11q0 -8 1 -11q1 -9 8 -23q32 -54 110 -101q26 2 39 2q9 0 27 -2q21 -5 27 -11q4 -4 4 -9t-2 -8q-3 -6 -14 -8q-14 0 -29 3q-21 6 -51 19q-3 2 -7 4q-2 0 -5 -0.5t-4 -0.5q-84 -17 -154 -64.5t-82 -119.5q-10 -51 4.5 -103t50.5 -88q61 -61 155 -61q109 0 231 88
q2 2 4 2q4 0 6 -3zM327 304q-9 1 -26 1q-18 0 -26 -1q40 -22 67 -22q8 2 9 4t1 5l-2 4q-4 4 -23 9zM241 645q28 -31 39 -31q13 0 28 25l11 -9q-19 -36 -49 -36q-17 0 -29 12.5t-12 32.5z" />
    <glyph glyph-name="ebreve" unicode="&#x115;" horiz-adv-x="264" 
d="M268 154q3 -1 1 -5q-3 -5 -13 -19.5t-13.5 -19t-12 -17t-12.5 -17.5t-12.5 -15t-14 -16t-14 -14t-16.5 -14.5t-17 -12.5q-33 -23 -71 -23q-19 0 -51 12q-14 8 -23 17q-18 20 -21 50q-4 46 21 98q33 64 68 64q6 0 12 -3q13 -8 13 -28q0 -13 -5 -26q-15 -49 -82 -110
q3 -18 13 -29q9 -9 14 -12q14 -6 20 -8q15 -6 32 -6q7 0 11 1q76 11 166 151q1 1 3.5 2t3.5 0zM67 205q-25 0 -44.5 -49t-19.5 -79q23 17 49 52q13 21 20 41q4 14 4 21q0 11 -5 13q-1 1 -4 1zM20 303q28 -31 39 -31q13 0 28 25l11 -9q-19 -36 -49 -36q-17 0 -29 12.5
t-12 32.5z" />
    <glyph glyph-name="Edotaccent" unicode="&#x116;" horiz-adv-x="562" 
d="M462 -49q5 -5 -1 -11q-127 -96 -245 -96q-99 0 -165 66q-40 40 -56 97t-5 114q17 78 90 126t162 61q-79 41 -109 94q-8 17 -10 29q-2 10 -1 16q0 55 55 89t113 34q76 0 122 -49q6 -5 0 -11q-2 -2 -5 -2q-2 0 -6 2q-33 39 -92 42q-56 0 -102.5 -23.5t-60.5 -71.5
q0 -1 -3 -11q0 -8 1 -11q1 -9 8 -23q32 -54 110 -101q26 2 39 2q9 0 27 -2q21 -5 27 -11q4 -4 4 -9t-2 -8q-3 -6 -14 -8q-14 0 -29 3q-21 6 -51 19q-3 2 -7 4q-2 0 -5 -0.5t-4 -0.5q-84 -17 -154 -64.5t-82 -119.5q-10 -51 4.5 -103t50.5 -88q61 -61 155 -61q109 0 231 88
q2 2 4 2q4 0 6 -3zM327 304q-9 1 -26 1q-18 0 -26 -1q40 -22 67 -22q8 2 9 4t1 5l-2 4q-4 4 -23 9zM271 641q7 0 13 -5t6 -13t-6 -13.5t-13 -5.5q-8 0 -13.5 5.5t-5.5 13.5q0 18 19 18z" />
    <glyph glyph-name="edotaccent" unicode="&#x117;" horiz-adv-x="264" 
d="M268 154q3 -1 1 -5q-3 -5 -13 -19.5t-13.5 -19t-12 -17t-12.5 -17.5t-12.5 -15t-14 -16t-14 -14t-16.5 -14.5t-17 -12.5q-33 -23 -71 -23q-19 0 -51 12q-14 8 -23 17q-18 20 -21 50q-4 46 21 98q33 64 68 64q6 0 12 -3q13 -8 13 -28q0 -13 -5 -26q-15 -49 -82 -110
q3 -18 13 -29q9 -9 14 -12q14 -6 20 -8q15 -6 32 -6q7 0 11 1q76 11 166 151q1 1 3.5 2t3.5 0zM67 205q-25 0 -44.5 -49t-19.5 -79q23 17 49 52q13 21 20 41q4 14 4 21q0 11 -5 13q-1 1 -4 1zM55 288q7 0 13 -5t6 -13t-6 -13.5t-13 -5.5q-8 0 -13.5 5.5t-5.5 13.5
q0 18 19 18z" />
    <glyph glyph-name="Eogonek" unicode="&#x118;" horiz-adv-x="562" 
d="M452 -48q2 2 4 2q4 0 6 -3q5 -5 -1 -11q-127 -96 -245 -96q-12 0 -18 1l7 -33q-26 -1 -22 -24.5t25 -33.5q6 -2 12 -2q10 0 16 5l3 -7q-10 -6 -24 -6q-16 0 -31 10t-21 23t1 27t29 20l-6 22q-78 6 -136 64q-40 40 -56 97t-5 114q17 78 90.5 126t161.5 61q-79 41 -109 94
q-8 17 -10 29q-2 10 -1 16q0 54 55.5 88.5t112.5 34.5q76 0 122 -49q6 -5 0 -11q-2 -2 -5 -2q-2 0 -6 2q-33 39 -92 42q-56 0 -102.5 -23.5t-60.5 -71.5q0 -1 -3 -11q0 -8 1 -11q1 -9 8 -23q32 -54 110 -101q26 2 39 2q9 0 27 -2q21 -5 27 -11q4 -4 4 -9t-2 -8q-3 -6 -14 -8
q-14 0 -29 3q-21 6 -51 19q-3 2 -7 4q-2 0 -5 -0.5t-4 -0.5q-83 -16 -153 -63.5t-83 -120.5q-10 -51 4.5 -103t50.5 -88q61 -61 155 -61q109 0 231 88zM350 295q-4 4 -23 9q-9 1 -26 1q-18 0 -26 -1q40 -22 67 -22q8 2 9 4t1 5z" />
    <glyph glyph-name="eogonek" unicode="&#x119;" horiz-adv-x="264" 
d="M261 152q1 1 3.5 2t3.5 0q3 -1 1 -5q-3 -5 -13 -19.5t-13.5 -19t-12 -17t-12.5 -17.5t-12.5 -15t-14 -16t-14 -14t-16.5 -14.5t-17 -12.5q-32 -22 -73 -22l8 -36q-26 -1 -22 -24.5t25 -33.5q6 -2 12 -2q10 0 16 5l3 -7q-10 -6 -24 -6q-16 0 -31 10t-21 23t1 27t29 20
l-7 24q-24 5 -38 11q-14 8 -23 17q-18 20 -21 50q-4 46 21 98q36 64 68 64q6 0 12 -3q13 -8 13 -28q0 -59 -87 -136q3 -18 13 -29q9 -9 14 -12q14 -6 20 -8q15 -6 32 -6q7 0 11 1q73 11 166 151zM3 77q23 17 49 52q13 21 20 41q4 14 4 21q0 11 -5 13q-1 1 -4 1
q-13 0 -26 -17q-16 -20 -27 -52t-11 -59z" />
    <glyph glyph-name="Ecaron" unicode="&#x11a;" horiz-adv-x="562" 
d="M462 -49q5 -5 -1 -11q-127 -96 -245 -96q-99 0 -165 66q-40 40 -56 97t-5 114q17 78 90 126t162 61q-79 41 -109 94q-8 17 -10 29q-2 10 -1 16q0 55 55 89t113 34q76 0 122 -49q6 -5 0 -11q-2 -2 -5 -2q-2 0 -6 2q-33 39 -92 42q-56 0 -102.5 -23.5t-60.5 -71.5
q0 -1 -3 -11q0 -8 1 -11q1 -9 8 -23q32 -54 110 -101q26 2 39 2q9 0 27 -2q21 -5 27 -11q4 -4 4 -9t-2 -8q-3 -6 -14 -8q-14 0 -29 3q-21 6 -51 19q-3 2 -7 4q-2 0 -5 -0.5t-4 -0.5q-84 -17 -154 -64.5t-82 -119.5q-10 -51 4.5 -103t50.5 -88q61 -61 155 -61q109 0 231 88
q2 2 4 2q4 0 6 -3zM327 304q-9 1 -26 1q-18 0 -26 -1q40 -22 67 -22q8 2 9 4t1 5l-2 4q-4 4 -23 9zM345 681q0 -3 -16.5 -35t-18.5 -34l-13 -6l-26 31l-34 36l10 9l50 -54q-1 20 12.5 39.5t28.5 25.5z" />
    <glyph glyph-name="ecaron" unicode="&#x11b;" horiz-adv-x="264" 
d="M268 154q3 -1 1 -5q-3 -5 -13 -19.5t-13.5 -19t-12 -17t-12.5 -17.5t-12.5 -15t-14 -16t-14 -14t-16.5 -14.5t-17 -12.5q-33 -23 -71 -23q-19 0 -51 12q-14 8 -23 17q-18 20 -21 50q-4 46 21 98q33 64 68 64q6 0 12 -3q13 -8 13 -28q0 -13 -5 -26q-15 -49 -82 -110
q3 -18 13 -29q9 -9 14 -12q14 -6 20 -8q15 -6 32 -6q7 0 11 1q76 11 166 151q1 1 3.5 2t3.5 0zM67 205q-25 0 -44.5 -49t-19.5 -79q23 17 49 52q13 21 20 41q4 14 4 21q0 11 -5 13q-1 1 -4 1zM108 324q0 -3 -16.5 -35t-18.5 -34l-13 -6l-26 31l-34 36l10 9l50 -54
q-1 20 12.5 39.5t28.5 25.5z" />
    <glyph glyph-name="Gcircumflex" unicode="&#x11c;" horiz-adv-x="896" 
d="M753 80q3 -9 1 -28q-4 -21 -18 -50q-27 -47 -75 -82q-24 -74 -34 -111q-16 -64 -17 -98q0 -60 44 -62q11 0 9 -10q0 -9 -10 -9q-36 0 -51 27q-13 20 -13 55q2 70 45 189q-107 -62 -232 -62q-116 0 -212 60t-149 165q-52 102 -34 207q20 128 139 219t251 91
q73 0 146.5 -27.5t132.5 -74.5q6 -4 1 -9q-1 -3 -5 -3q-2 0 -4 2q-124 94 -264 94q-129 0 -240 -85.5t-127 -210.5q-12 -94 29 -191q45 -104 136 -163t206 -59q136 0 232 68l30 88q20 62 26 97q0 1 0.5 4t0.5 5q-18 10 -56 24q-80 25 -160 32l-37 -15q-40 -12 -52 -13
q-14 0 -23 9q-3 5 -3 10q-1 4 3 10q3 4 7 6q21 9 66 9q24 -2 37 -3l8 3q95 37 150 37q32 -2 51 -18q2 -1 3.5 -3t3.5 -4l3 -3t2.5 -3t2.5 -3q7 -14 10 -33q2 -12 0 -35q32 -18 40 -43zM439 170l10 4h-7q-33 0 -49 -3q-4 0 -7.5 -2t-5.5 -3t-1 -2l1 -1v-2l2 -2q2 -1 7 -1h3
q18 1 47 12zM645 153q45 -17 54 -22q4 47 -19 66q-16 13 -43 15q-50 0 -129 -30q75 -10 137 -29zM741 54q2 17 -1 23q-5 16 -28 31v-1q-1 -1 -1 -2q-5 -36 -23 -101q-2 -8 -9 -28.5t-10 -32.5q61 54 72 111zM421 620q-14 5 -27.5 25t-12.5 39l-50 -54l-10 9l34 36l26 31
l13 -6q2 -2 18.5 -33.5t16.5 -34.5z" />
    <glyph glyph-name="gcircumflex" unicode="&#x11d;" horiz-adv-x="445" 
d="M450 153q2 -2 0 -6q-77 -116 -178 -199q-8 -6 -11 -9q2 -14 3 -20q18 -163 5 -271q-11 -79 -37 -132q-33 -69 -107.5 -122.5t-146.5 -53.5q-64 0 -108.5 41t-48.5 105q-5 71 29 132q20 36 56.5 72t65.5 57t76 53q136 91 190 133q-9 84 -31 189q-10 -40 -57 -68
q-15 -11 -34 -17q-20 -8 -38 -11q-2 0 -6.5 -0.5t-6.5 -0.5q-13 0 -30 5q-12 5 -24 17q-1 3 -3 5q-2 4 -6 10q-17 38 -5 83q11 42 43.5 68t76.5 29q40 0 76 -13q5 -4 4 -8q-3 -5 -7 -4q-21 4 -48 4q-52 0 -83 -28q-24 -20 -34 -55t3 -63q2 -5 4 -7l2 -2l2 -3q8 -13 41 -16
q47 0 84 27.5t40 73.5q-4 20 -7 30q-2 4 2 8l1 2l4 2h1q2 1 3 1q6 0 8 -8q29 -111 46 -233q4 2 7 5q104 85 176 196q3 3 6 3q1 0 2 -1zM240 -84v6q-27 -21 -186 -131q-45 -31 -73.5 -52t-64.5 -56.5t-55 -69.5q-33 -59 -28 -126q5 -58 42.5 -93t95.5 -35q80 0 157 68
q56 52 80.5 99.5t34.5 125.5q14 112 -3 264zM150 267q-14 5 -27.5 25t-12.5 39l-50 -54l-10 9l34 36l26 31l13 -6q2 -2 18.5 -33.5t16.5 -34.5z" />
    <glyph glyph-name="Gbreve" unicode="&#x11e;" horiz-adv-x="896" 
d="M753 80q3 -9 1 -28q-4 -21 -18 -50q-27 -47 -75 -82q-24 -74 -34 -111q-16 -64 -17 -98q0 -60 44 -62q11 0 9 -10q0 -9 -10 -9q-36 0 -51 27q-13 20 -13 55q2 70 45 189q-107 -62 -232 -62q-116 0 -212 60t-149 165q-52 102 -34 207q20 128 139 219t251 91
q73 0 146.5 -27.5t132.5 -74.5q6 -4 1 -9q-1 -3 -5 -3q-2 0 -4 2q-124 94 -264 94q-129 0 -240 -85.5t-127 -210.5q-12 -94 29 -191q45 -104 136 -163t206 -59q136 0 232 68l30 88q20 62 26 97q0 1 0.5 4t0.5 5q-18 10 -56 24q-80 25 -160 32l-37 -15q-40 -12 -52 -13
q-14 0 -23 9q-3 5 -3 10q-1 4 3 10q3 4 7 6q21 9 66 9q24 -2 37 -3l8 3q95 37 150 37q32 -2 51 -18q2 -1 3.5 -3t3.5 -4l3 -3t2.5 -3t2.5 -3q7 -14 10 -33q2 -12 0 -35q32 -18 40 -43zM439 170l10 4h-7q-33 0 -49 -3q-4 0 -7.5 -2t-5.5 -3t-1 -2l1 -1v-2l2 -2q2 -1 7 -1h3
q18 1 47 12zM645 153q45 -17 54 -22q4 47 -19 66q-16 13 -43 15q-50 0 -129 -30q75 -10 137 -29zM741 54q2 17 -1 23q-5 16 -28 31v-1q-1 -1 -1 -2q-5 -36 -23 -101q-2 -8 -9 -28.5t-10 -32.5q61 54 72 111zM359 675q28 -31 39 -31q13 0 28 25l11 -9q-19 -36 -49 -36
q-17 0 -29 12.5t-12 32.5z" />
    <glyph glyph-name="gbreve" unicode="&#x11f;" horiz-adv-x="445" 
d="M450 153q2 -2 0 -6q-77 -116 -178 -199q-8 -6 -11 -9q2 -14 3 -20q18 -163 5 -271q-11 -79 -37 -132q-33 -69 -107.5 -122.5t-146.5 -53.5q-64 0 -108.5 41t-48.5 105q-5 71 29 132q20 36 56.5 72t65.5 57t76 53q136 91 190 133q-9 84 -31 189q-10 -40 -57 -68
q-15 -11 -34 -17q-20 -8 -38 -11q-2 0 -6.5 -0.5t-6.5 -0.5q-13 0 -30 5q-12 5 -24 17q-1 3 -3 5q-2 4 -6 10q-17 38 -5 83q11 42 43.5 68t76.5 29q40 0 76 -13q5 -4 4 -8q-3 -5 -7 -4q-21 4 -48 4q-52 0 -83 -28q-24 -20 -34 -55t3 -63q2 -5 4 -7l2 -2l2 -3q8 -13 41 -16
q47 0 84 27.5t40 73.5q-4 20 -7 30q-2 4 2 8l1 2l4 2h1q2 1 3 1q6 0 8 -8q29 -111 46 -233q4 2 7 5q104 85 176 196q3 3 6 3q1 0 2 -1zM240 -84v6q-27 -21 -186 -131q-45 -31 -73.5 -52t-64.5 -56.5t-55 -69.5q-33 -59 -28 -126q5 -58 42.5 -93t95.5 -35q80 0 157 68
q56 52 80.5 99.5t34.5 125.5q14 112 -3 264zM78 324q28 -31 39 -31q13 0 28 25l11 -9q-19 -36 -49 -36q-17 0 -29 12.5t-12 32.5z" />
    <glyph glyph-name="Gdotaccent" unicode="&#x120;" horiz-adv-x="896" 
d="M753 80q3 -9 1 -28q-4 -21 -18 -50q-27 -47 -75 -82q-24 -74 -34 -111q-16 -64 -17 -98q0 -60 44 -62q11 0 9 -10q0 -9 -10 -9q-36 0 -51 27q-13 20 -13 55q2 70 45 189q-107 -62 -232 -62q-116 0 -212 60t-149 165q-52 102 -34 207q20 128 139 219t251 91
q73 0 146.5 -27.5t132.5 -74.5q6 -4 1 -9q-1 -3 -5 -3q-2 0 -4 2q-124 94 -264 94q-129 0 -240 -85.5t-127 -210.5q-12 -94 29 -191q45 -104 136 -163t206 -59q136 0 232 68l30 88q20 62 26 97q0 1 0.5 4t0.5 5q-18 10 -56 24q-80 25 -160 32l-37 -15q-40 -12 -52 -13
q-14 0 -23 9q-3 5 -3 10q-1 4 3 10q3 4 7 6q21 9 66 9q24 -2 37 -3l8 3q95 37 150 37q32 -2 51 -18q2 -1 3.5 -3t3.5 -4l3 -3t2.5 -3t2.5 -3q7 -14 10 -33q2 -12 0 -35q32 -18 40 -43zM439 170l10 4h-7q-33 0 -49 -3q-4 0 -7.5 -2t-5.5 -3t-1 -2l1 -1v-2l2 -2q2 -1 7 -1h3
q18 1 47 12zM645 153q45 -17 54 -22q4 47 -19 66q-16 13 -43 15q-50 0 -129 -30q75 -10 137 -29zM741 54q2 17 -1 23q-5 16 -28 31v-1q-1 -1 -1 -2q-5 -36 -23 -101q-2 -8 -9 -28.5t-10 -32.5q61 54 72 111zM387 667q7 0 13 -5t6 -13t-6 -13.5t-13 -5.5q-8 0 -13.5 5.5
t-5.5 13.5q0 18 19 18z" />
    <glyph glyph-name="gdotaccent" unicode="&#x121;" horiz-adv-x="445" 
d="M450 153q2 -2 0 -6q-77 -116 -178 -199q-8 -6 -11 -9q2 -14 3 -20q18 -163 5 -271q-11 -79 -37 -132q-33 -69 -107.5 -122.5t-146.5 -53.5q-64 0 -108.5 41t-48.5 105q-5 71 29 132q20 36 56.5 72t65.5 57t76 53q136 91 190 133q-9 84 -31 189q-10 -40 -57 -68
q-15 -11 -34 -17q-20 -8 -38 -11q-2 0 -6.5 -0.5t-6.5 -0.5q-13 0 -30 5q-12 5 -24 17q-1 3 -3 5q-2 4 -6 10q-17 38 -5 83q11 42 43.5 68t76.5 29q40 0 76 -13q5 -4 4 -8q-3 -5 -7 -4q-21 4 -48 4q-52 0 -83 -28q-24 -20 -34 -55t3 -63q2 -5 4 -7l2 -2l2 -3q8 -13 41 -16
q47 0 84 27.5t40 73.5q-4 20 -7 30q-2 4 2 8l1 2l4 2h1q2 1 3 1q6 0 8 -8q29 -111 46 -233q4 2 7 5q104 85 176 196q3 3 6 3q1 0 2 -1zM240 -84v6q-27 -21 -186 -131q-45 -31 -73.5 -52t-64.5 -56.5t-55 -69.5q-33 -59 -28 -126q5 -58 42.5 -93t95.5 -35q80 0 157 68
q56 52 80.5 99.5t34.5 125.5q14 112 -3 264zM101 313q7 0 13 -5t6 -13t-6 -13.5t-13 -5.5q-8 0 -13.5 5.5t-5.5 13.5q0 18 19 18z" />
    <glyph glyph-name="uni0122" unicode="&#x122;" horiz-adv-x="896" 
d="M753 80q3 -9 1 -28q-4 -21 -18 -50q-27 -47 -75 -82q-24 -74 -34 -111q-16 -64 -17 -98q0 -60 44 -62q11 0 9 -10q0 -9 -10 -9q-36 0 -51 27q-13 20 -13 55q2 70 45 189q-107 -62 -232 -62q-116 0 -212 60t-149 165q-52 102 -34 207q20 128 139 219t251 91
q73 0 146.5 -27.5t132.5 -74.5q6 -4 1 -9q-1 -3 -5 -3q-2 0 -4 2q-124 94 -264 94q-129 0 -240 -85.5t-127 -210.5q-12 -94 29 -191q45 -104 136 -163t206 -59q136 0 232 68l30 88q20 62 26 97q0 1 0.5 4t0.5 5q-18 10 -56 24q-80 25 -160 32l-37 -15q-40 -12 -52 -13
q-14 0 -23 9q-3 5 -3 10q-1 4 3 10q3 4 7 6q21 9 66 9q24 -2 37 -3l8 3q95 37 150 37q32 -2 51 -18q2 -1 3.5 -3t3.5 -4l3 -3t2.5 -3t2.5 -3q7 -14 10 -33q2 -12 0 -35q32 -18 40 -43zM439 170l10 4h-7q-33 0 -49 -3q-4 0 -7.5 -2t-5.5 -3t-1 -2l1 -1v-2l2 -2q2 -1 7 -1h3
q18 1 47 12zM645 153q45 -17 54 -22q4 47 -19 66q-16 13 -43 15q-50 0 -129 -30q75 -10 137 -29zM741 54q2 17 -1 23q-5 16 -28 31v-1q-1 -1 -1 -2q-5 -36 -23 -101q-2 -8 -9 -28.5t-10 -32.5q61 54 72 111zM433 687q1 -16 -19.5 -38.5t-36.5 -25.5l-2 8q12 2 28.5 18
t21.5 30q-5 -4 -15 -4q-9 0 -15.5 5t-6.5 10q0 15 22 15q23 0 23 -18z" />
    <glyph glyph-name="uni0123" unicode="&#x123;" horiz-adv-x="445" 
d="M450 153q2 -2 0 -6q-77 -116 -178 -199q-8 -6 -11 -9q2 -14 3 -20q18 -163 5 -271q-11 -79 -37 -132q-33 -69 -107.5 -122.5t-146.5 -53.5q-64 0 -108.5 41t-48.5 105q-5 71 29 132q20 36 56.5 72t65.5 57t76 53q136 91 190 133q-9 84 -31 189q-10 -40 -57 -68
q-15 -11 -34 -17q-20 -8 -38 -11q-2 0 -6.5 -0.5t-6.5 -0.5q-13 0 -30 5q-12 5 -24 17q-1 3 -3 5q-2 4 -6 10q-17 38 -5 83q11 42 43.5 68t76.5 29q40 0 76 -13q5 -4 4 -8q-3 -5 -7 -4q-21 4 -48 4q-52 0 -83 -28q-24 -20 -34 -55t3 -63q2 -5 4 -7l2 -2l2 -3q8 -13 41 -16
q47 0 84 27.5t40 73.5q-4 20 -7 30q-2 4 2 8l1 2l4 2h1q2 1 3 1q6 0 8 -8q29 -111 46 -233q4 2 7 5q104 85 176 196q3 3 6 3q1 0 2 -1zM240 -84v6q-27 -21 -186 -131q-45 -31 -73.5 -52t-64.5 -56.5t-55 -69.5q-33 -59 -28 -126q5 -58 42.5 -93t95.5 -35q80 0 157 68
q56 52 80.5 99.5t34.5 125.5q14 112 -3 264zM90 299q-1 17 19.5 39.5t36.5 25.5l2 -8q-12 -2 -28.5 -18t-20.5 -30q5 3 14 3t15.5 -4.5t6.5 -10.5q0 -15 -22 -15q-23 0 -23 18z" />
    <glyph glyph-name="Hcircumflex" unicode="&#x124;" horiz-adv-x="669" 
d="M626 239q4 -5 -2 -9q-87 -59 -163 -77q-2 -98 11 -179q20 -131 87 -131q12 0 18 2q6 0 6 -4q1 -5 -3 -6q-13 -5 -27 -5q-31 0 -54.5 26.5t-35.5 62t-19 85t-9 80.5t-2 63q-24 -4 -54 -4q-64 0 -137 20q-156 36 -193 40q-4 0 -11 0.5t-11 1.5v-8q8 -118 9 -177
q1 -45 0 -89q0 -23 -3 -45q-1 -7 -3 -23l-3 -12q-5 -10 -9 -14q-4 -2 -6 -2q-5 0 -8 3q-6 8 1 15l2 5q2 6 2 9q2 14 2 21q1 14 1 43q0 101 -13 264l-1 12q-96 0 -145 -8q-7 0 -9 7t7 9q49 8 146 8l-25 323q0 9 10 11q10 0 10 -9q15 -109 33 -327q4 -1 12.5 -1t13.5 -1
q70 -8 194 -42q76 -19 135 -19q29 0 53 4q0 212 37 415q2 8 10 8h2q8 -2 8 -11q-14 -130 -19 -200q-10 -138 -10 -207q75 19 155 74q1 1 4 1q4 0 6 -3zM283 659q-14 5 -27.5 25t-12.5 39l-50 -54l-10 9l34 36l26 31l13 -6q2 -2 18.5 -33.5t16.5 -34.5z" />
    <glyph glyph-name="hcircumflex" unicode="&#x125;" horiz-adv-x="432" 
d="M435 153q4 -4 2 -6q-99 -154 -156 -184q-17 -11 -32 -11q-16 0 -29.5 9.5t-22.5 29t-15 35.5t-10 43t-5.5 38t-3.5 32l-3 68q-4 23 -12 26q-1 1 -4 1q-10 0 -22 -12q-33 -29 -52.5 -84t-19.5 -104l-1 -10v-6q0 -2 -2 -6q-2 -2 -5 -2t-4 1q-2 2 -3 2q-2 4 -3.5 7.5t-3 7.5
t-2.5 6q-24 78 -40 167q-16 92 -15 171q4 63 26.5 120t69.5 71q10 2 15 2q14 0 22 -7q1 0 11 -8q15 -15 20 -42q3 -20 1 -44q-12 -118 -123 -318q14 -72 25 -106q1 12 3 38q17 111 66 160q15 13 20 15q10 4 19 4q3 0 11 -2q21 -8 29 -44v-1q11 -129 12 -136q6 -44 13 -65
q12 -40 36 -44q15 0 29 7q9 6 27 20q47 44 127 160q2 2 5 1zM-3 371q-4 -73 8 -167q1 -14 5 -35q99 183 110 296q4 52 -17 73q-3 3 -7 5q-2 4 -8 4q-2 1 -5 1q-4 0 -10 -2q-38 -13 -56 -67t-20 -108zM124 586q-14 5 -27.5 25t-12.5 39l-50 -54l-10 9l34 36l26 31l13 -6
q2 -2 18.5 -33.5t16.5 -34.5z" />
    <glyph glyph-name="Hbar" unicode="&#x126;" horiz-adv-x="741" 
d="M616 241q1 1 4 1q4 0 6 -3q4 -5 -2 -9q-87 -59 -163 -77q-2 -98 11 -179q22 -131 87 -131q12 0 18 2q6 0 6 -4q1 -5 -3 -6q-13 -5 -27 -5q-31 0 -54.5 26.5t-35.5 62t-19 85.5t-9 80t-2 63q-24 -4 -54 -4q-64 0 -137 20q-156 36 -193 40q-4 0 -11 0.5t-11 1.5v-8
q8 -118 9 -177q1 -45 0 -89q0 -23 -3 -45q-1 -7 -3 -23l-3 -12q-5 -10 -9 -14q-4 -2 -6 -2q-5 0 -8 3q-6 8 1 15l2 5q2 6 2 9q2 14 2 21q1 14 1 43q0 101 -13 264l-1 12q-96 0 -145 -8q-7 0 -9 7t7 9q49 8 146 8l-10 138l-44 -1q-19 0 -24 9q0 7 24 9h42l-13 168q0 9 10 11
q10 0 10 -9q10 -73 19 -169l433 5q10 109 26 193q2 8 10 8h2q8 -2 8 -11q-11 -96 -18 -190l69 1q18 0 24 -8q0 -9 -24 -9l-71 -1q-8 -130 -9 -194v-6q75 19 155 74zM433 173q0 79 9 194l-429 -6q3 -28 7 -81t5 -59q97 -10 220 -44q76 -19 135 -19q29 0 53 4v11z" />
    <glyph glyph-name="hbar" unicode="&#x127;" horiz-adv-x="432" 
d="M430 152q2 2 5 1q4 -4 2 -6q-80 -119 -127 -163q-15 -13 -29 -21q-17 -11 -32 -11q-71 0 -86 187l-3 68q-4 23 -12 26q-1 1 -4 1q-10 0 -22 -12q-32 -29 -52 -84.5t-20 -103.5l-1 -10v-6q0 -2 -2 -6q-2 -2 -5 -2t-4 1q-2 2 -3 2q-2 4 -3.5 7.5t-3 7.5t-2.5 6
q-55 180 -55 328l-43 -2q-7 0 -9 9q0 7 9 9l44 1q4 59 26.5 114.5t68.5 69.5q10 2 15 2q14 0 22 -7q1 0 11 -8q15 -15 20 -42q3 -20 1 -44q-4 -34 -16 -80l34 1q7 2 9 -8q0 -9 -9 -9l-40 -1q-39 -111 -101 -221q14 -72 25 -106q1 12 3 38q17 111 66 160q15 13 20 15
q10 4 19 4q3 0 11 -2q21 -8 29 -44v-1q11 -129 12 -136q6 -44 13 -65q12 -40 36 -44q15 0 29 7q9 6 27 20q47 44 127 160zM-3 380l107 3q13 45 16 82q4 52 -17 73q-3 3 -7 5q-2 4 -8 4q-2 1 -5 1q-4 0 -10 -2q-64 -22 -76 -166zM98 366l-101 -4q-4 -69 8 -158q1 -14 5 -35
q57 106 88 197z" />
    <glyph glyph-name="Itilde" unicode="&#x128;" horiz-adv-x="480" 
d="M499 -162q3 -3 2 -6q-3 -3 -6 -2q-182 98 -342 110q-17 0 -25 1q-27 -35 -66.5 -58.5t-81.5 -26.5q-3 0 -9.5 -0.5t-10.5 -0.5q-16 0 -27 5q-6 2 -11 8t-3 14q8 36 75 55t120 20q52 86 54 219q1 36 -4 89q-11 160 -25 262q-60 -8 -90 -8q-78 0 -138 16q-6 2 -4 7q2 4 6 3
q49 -9 99 -9q59 0 151 15q84 12 127 15q13 1 39 1q45 0 89 -6q4 -1 4 -5t-4 -4h-29q-57 0 -97 -5q-14 -1 -126 -17q-4 0 -6 -1q14 -70 24 -171q14 -135 12 -183q-2 -133 -56 -218q10 0 15 -1q170 -12 344 -118zM-21 -136q73 10 124 77q-73 -2 -126 -23q-45 -21 -48 -38
q-3 -8 8 -13q9 -4 25 -4q12 0 17 1zM136 619q-4 3 -10.5 9.5t-11.5 9.5t-11 3h-5q-16 -3 -36 -27l-9 4q28 33 60 33q28 0 44 -14q28 -22 38 -22q12 0 26 15l6 -8q-5 -6 -17 -11.5t-18 -5.5q-5 -2 -15 -2q-25 0 -41 16z" />
    <glyph glyph-name="itilde" unicode="&#x129;" horiz-adv-x="225" 
d="M228 153q4 -2 2 -6q-44 -67 -70 -95q-53 -57 -104 -57q-33 3 -49 41q-10 25 -8 61q1 28 2 53q0 10 11 10q9 -2 9 -10v-19.5t-0.5 -7.5t-1 -7.5t-0.5 -18.5q-2 -32 6 -54q9 -29 33 -32q71 0 164 140q3 3 6 2zM54 268q-4 3 -10.5 9.5t-11.5 9.5t-11 3h-5q-16 -3 -36 -27
l-9 4q27 33 60 33q27 0 44 -14q28 -22 38 -22q12 0 26 15l6 -8q-5 -6 -17 -11.5t-18 -5.5q-5 -2 -15 -2q-25 0 -41 16z" />
    <glyph glyph-name="Imacron" unicode="&#x12a;" horiz-adv-x="480" 
d="M499 -162q3 -3 2 -6q-3 -3 -6 -2q-182 98 -342 110q-17 0 -25 1q-27 -35 -66.5 -58.5t-81.5 -26.5q-3 0 -9.5 -0.5t-10.5 -0.5q-16 0 -27 5q-6 2 -11 8t-3 14q8 36 75 55t120 20q52 86 54 219q1 36 -4 89q-11 160 -25 262q-60 -8 -90 -8q-78 0 -138 16q-6 2 -4 7q2 4 6 3
q49 -9 99 -9q59 0 151 15q84 12 127 15q13 1 39 1q45 0 89 -6q4 -1 4 -5t-4 -4h-29q-57 0 -97 -5q-14 -1 -126 -17q-4 0 -6 -1q14 -70 24 -171q14 -135 12 -183q-2 -133 -56 -218q10 0 15 -1q170 -12 344 -118zM-21 -136q73 10 124 77q-73 -2 -126 -23q-45 -21 -48 -38
q-3 -8 8 -13q9 -4 25 -4q12 0 17 1zM82 604q0 -7 5 -7l117 8q5 0 5 7q0 4 -2 6t-4 1l-116 -7q-5 -2 -5 -8z" />
    <glyph glyph-name="imacron" unicode="&#x12b;" horiz-adv-x="225" 
d="M228 153q4 -2 2 -6q-44 -67 -70 -95q-53 -57 -104 -57q-33 3 -49 41q-10 25 -8 61q1 28 2 53q0 10 11 10q9 -2 9 -10v-19.5t-0.5 -7.5t-1 -7.5t-0.5 -18.5q-2 -32 6 -54q9 -29 33 -32q71 0 164 140q3 3 6 2zM-65 215q0 -7 5 -7l117 8q5 0 5 7q0 4 -2 6t-4 1l-116 -7
q-5 -2 -5 -8z" />
    <glyph glyph-name="Ibreve" unicode="&#x12c;" horiz-adv-x="480" 
d="M499 -162q3 -3 2 -6q-3 -3 -6 -2q-182 98 -342 110q-17 0 -25 1q-27 -35 -66.5 -58.5t-81.5 -26.5q-3 0 -9.5 -0.5t-10.5 -0.5q-16 0 -27 5q-6 2 -11 8t-3 14q8 36 75 55t120 20q52 86 54 219q1 36 -4 89q-11 160 -25 262q-60 -8 -90 -8q-78 0 -138 16q-6 2 -4 7q2 4 6 3
q49 -9 99 -9q59 0 151 15q84 12 127 15q13 1 39 1q45 0 89 -6q4 -1 4 -5t-4 -4h-29q-57 0 -97 -5q-14 -1 -126 -17q-4 0 -6 -1q14 -70 24 -171q14 -135 12 -183q-2 -133 -56 -218q10 0 15 -1q170 -12 344 -118zM-21 -136q73 10 124 77q-73 -2 -126 -23q-45 -21 -48 -38
q-3 -8 8 -13q9 -4 25 -4q12 0 17 1zM121 642q28 -31 39 -31q13 0 28 25l11 -9q-19 -36 -49 -36q-17 0 -29 12.5t-12 32.5z" />
    <glyph glyph-name="ibreve" unicode="&#x12d;" horiz-adv-x="225" 
d="M228 153q4 -2 2 -6q-44 -67 -70 -95q-53 -57 -104 -57q-33 3 -49 41q-10 25 -8 61q1 28 2 53q0 10 11 10q9 -2 9 -10v-19.5t-0.5 -7.5t-1 -7.5t-0.5 -18.5q-2 -32 6 -54q9 -29 33 -32q71 0 164 140q3 3 6 2zM-15 296q28 -31 39 -31q13 0 28 25l11 -9q-19 -36 -49 -36
q-17 0 -29 12.5t-12 32.5z" />
    <glyph glyph-name="Iogonek" unicode="&#x12e;" horiz-adv-x="480" 
d="M499 -162q3 -3 2 -6q-3 -3 -6 -2q-182 98 -342 110q-17 0 -25 1q-27 -35 -66.5 -58.5t-81.5 -26.5q-3 0 -9.5 -0.5t-10.5 -0.5q-16 0 -27 5q-6 2 -11 8t-3 14q8 36 75 55t120 20q52 86 54 219q1 36 -4 89q-11 160 -25 262q-60 -8 -90 -8q-78 0 -138 16q-6 2 -4 7q2 4 6 3
q49 -9 99 -9q59 0 151 15q84 12 127 15q13 1 39 1q45 0 89 -6q4 -1 4 -5t-4 -4h-29q-57 0 -97 -5q-14 -1 -126 -17q-4 0 -6 -1q14 -70 24 -171q14 -135 12 -183q-2 -133 -56 -218q10 0 15 -1q170 -12 344 -118zM-21 -136q73 10 124 77q-73 -2 -126 -23q-45 -21 -48 -38
q-3 -8 8 -13q9 -4 25 -4q12 0 17 1zM228 -165l3 -7q-10 -6 -24 -6q-16 0 -31 10t-21 23t1 27t29 20l-9 31l11 1l10 -44q-26 -1 -22 -24.5t25 -33.5q6 -2 12 -2q10 0 16 5z" />
    <glyph glyph-name="iogonek" unicode="&#x12f;" horiz-adv-x="225" 
d="M222 151q3 3 6 2q4 -2 2 -6q-44 -67 -70 -95q-23 -25 -45 -39q-4 -3 -12 -7h5l10 -44q-26 -1 -22 -24.5t25 -33.5q6 -2 12 -2q10 0 16 5l3 -7q-10 -6 -24 -6q-16 0 -31 10t-21 23t1 27t29 20l-8 29q-18 -8 -42 -8q-33 3 -49 41q-10 25 -8 61q1 28 2 53q0 10 11 10
q9 -2 9 -10v-19.5t-0.5 -7.5t-1 -7.5t-0.5 -18.5q-2 -32 6 -54q9 -29 33 -32q71 0 164 140zM29 286q0 -13 -13 -13t-13 13v8q0 13 13 13t13 -13v-8z" />
    <glyph glyph-name="Idotaccent" unicode="&#x130;" horiz-adv-x="480" 
d="M499 -162q3 -3 2 -6q-3 -3 -6 -2q-182 98 -342 110q-17 0 -25 1q-27 -35 -66.5 -58.5t-81.5 -26.5q-3 0 -9.5 -0.5t-10.5 -0.5q-16 0 -27 5q-6 2 -11 8t-3 14q8 36 75 55t120 20q52 86 54 219q1 36 -4 89q-11 160 -25 262q-60 -8 -90 -8q-78 0 -138 16q-6 2 -4 7q2 4 6 3
q49 -9 99 -9q59 0 151 15q84 12 127 15q13 1 39 1q45 0 89 -6q4 -1 4 -5t-4 -4h-29q-57 0 -97 -5q-14 -1 -126 -17q-4 0 -6 -1q14 -70 24 -171q14 -135 12 -183q-2 -133 -56 -218q10 0 15 -1q170 -12 344 -118zM-21 -136q73 10 124 77q-73 -2 -126 -23q-45 -21 -48 -38
q-3 -8 8 -13q9 -4 25 -4q12 0 17 1zM140 637q7 0 13 -5t6 -13t-6 -13.5t-13 -5.5q-8 0 -13.5 5.5t-5.5 13.5q0 18 19 18z" />
    <glyph glyph-name="dotlessi" unicode="&#x131;" horiz-adv-x="225" 
d="M228 153q4 -2 2 -6q-44 -67 -70 -95q-53 -57 -104 -57q-33 3 -49 41q-10 25 -8 61q1 28 2 53q0 10 11 10q9 -2 9 -10v-19.5t-0.5 -7.5t-1 -7.5t-0.5 -18.5q-2 -32 6 -54q9 -29 33 -32q71 0 164 140q3 3 6 2z" />
    <glyph glyph-name="IJ" unicode="&#x132;" horiz-adv-x="927" 
d="M155 -44q79 -6 164 -33q0 55 44 116t99 106q129 101 279 118q-16 164 -51 308q-2 10 8 12l1 1h2q5 0 9 -8q41 -161 55 -313q104 0 161 -69q3 -3 -1 -7q-1 -1 -3 -1q-3 0 -4 2q-53 66 -152 66q9 -102 2 -182q-8 -111 -52 -186q-45 -65 -108 -109t-132 -44
q-44 0 -81.5 19.5t-57.5 57.5q-23 44 -20 97q-85 27 -164 33q-17 0 -25 1q-26 -35 -66 -58.5t-82 -26.5q-3 0 -9.5 -0.5t-10.5 -0.5q-16 0 -27 5q-6 2 -11 8t-3 14q8 36 75 55t120 20q52 86 54 219q1 36 -4 89q-11 160 -25 262q-60 -8 -90 -8q-78 0 -138 16q-6 2 -4 7
q2 4 6 3q49 -9 99 -9q59 0 151 15q84 12 127 15q13 1 39 1q45 0 89 -6q4 -1 4 -5t-4 -4h-29q-57 0 -97 -5q-14 -1 -126 -17q-4 0 -6 -1q14 -70 24 -171q14 -135 12 -183q-2 -133 -56 -218q10 0 15 -1zM330 -81q85 -30 169 -81q3 -3 2 -6q-3 -3 -6 -2q-83 45 -166 73
q-2 -52 20 -87q18 -31 49.5 -48t68.5 -17q96 0 189 101q73 72 86 222q7 80 0 180q-61 -7 -127.5 -33.5t-126 -67t-102.5 -98.5t-54 -120q-2 -10 -2 -16zM-21 -136q73 10 124 77q-46 -1 -107.5 -16.5t-66.5 -44.5q-3 -8 8 -13q9 -4 25 -4q12 0 17 1z" />
    <glyph glyph-name="ij" unicode="&#x133;" horiz-adv-x="472" 
d="M220 148q0 6 7 8h1q2 1 3 1q6 0 9 -8q40 -160 45 -199q3 1 7 5q106 87 177 196q2 2 4 2t3 -1q2 -2 1 -5q-89 -133 -190 -208q2 -14 3 -20q18 -163 5 -271q-17 -127 -76 -190q-43 -52 -99 -85t-115 -33q-65 0 -108.5 40.5t-49.5 105.5q-5 69 30 132q19 35 55.5 71.5
t66.5 58t75 52.5q123 81 190 133q-7 65 -42 202q-57 -90 -107 -122q-26 -18 -59 -18q-33 3 -49 41q-10 25 -8 61q1 28 2 53q0 10 11 10q9 -2 9 -10v-19.5t-0.5 -7.5t-1 -7.5t-0.5 -18.5q-2 -32 6 -54q9 -29 33 -32q69 0 162 137zM269 -348q14 109 -2 264q-1 2 -1 6
q-27 -21 -186 -131q-44 -29 -73.5 -51t-65 -57.5t-54.5 -69.5q-33 -60 -27 -126q4 -58 42 -93t95 -35q55 0 110.5 33.5t91.5 81.5q54 61 70 178zM193 359q0 -12 -12 -14h-1q-13 0 -13 12l-1 10q-2 12 11 14t15 -12zM29 286q0 -13 -13 -13t-13 13v8q0 13 13 13t13 -13v-8z
" />
    <glyph glyph-name="Jcircumflex" unicode="&#x134;" horiz-adv-x="447" 
d="M446 194q3 -3 -1 -7q-1 -1 -3 -1q-3 0 -4 2q-53 66 -152 66q9 -102 2 -182q-8 -111 -52 -186q-44 -65 -107.5 -109t-132.5 -44q-44 0 -81.5 19.5t-57.5 57.5q-30 55 -16 127q9 57 52 117q63 85 162 141t206 68q-16 164 -51 308q-2 10 8 12l1 1h2q5 0 9 -8
q41 -161 55 -313q104 0 161 -69zM262 74q7 80 0 180q-37 -4 -51 -7q-74 -17 -149.5 -60t-136 -111t-73.5 -141q-12 -70 17 -119q18 -31 49.5 -48t68.5 -17q96 0 189 101q73 72 86 222zM251 599q-14 5 -27.5 25t-12.5 39l-50 -54l-10 9l34 36l26 31l13 -6q2 -2 18.5 -33.5
t16.5 -34.5z" />
    <glyph glyph-name="jcircumflex" unicode="&#x135;" horiz-adv-x="247" 
d="M251 152q2 -2 1 -5q-89 -133 -190 -208q2 -14 3 -20q18 -163 5 -271q-17 -127 -76 -190q-43 -51 -99.5 -84.5t-114.5 -33.5q-65 0 -108.5 40.5t-49.5 105.5q-5 69 30 132q19 35 55.5 71.5t66.5 58t75 52.5q123 81 190 133q-3 24 -6 45t-8 43.5l-8 36t-11 43t-11 43.5
q-2 10 7 12h2q1 1 2 1q6 0 9 -8q40 -160 45 -199q3 1 7 5q106 87 177 196q2 2 4 2t3 -1zM42 -84q-1 2 -1 6q-27 -21 -186 -131q-44 -29 -73.5 -51t-65 -57.5t-54.5 -69.5q-33 -60 -27 -126q4 -58 42 -93t95 -35q55 0 110.5 33.5t91.5 81.5q54 61 70 178q14 109 -2 264z
M41 286q-14 5 -27.5 25t-12.5 39l-50 -54l-10 9l34 36l26 31l13 -6q2 -2 18.5 -33.5t16.5 -34.5z" />
    <glyph glyph-name="uni0136" unicode="&#x136;" horiz-adv-x="500" 
d="M594 -150q3 -5 -2 -8q-58 -36 -107 -36q-35 0 -65 15.5t-54 44t-40 54t-33 60.5q-11 22 -38 79t-44 87q-35 61 -76 87q-6 -4 -9 -5q-39 -20 -99 -29q0 -278 -79 -342q-1 -1 -4 -1q-4 0 -6 2q-4 5 1 10q44 36 57 164q8 69 6 164h-13q-39 0 -39 24q3 22 34 33q2 1 16 6
q-8 167 -25 318q-2 9 8 11q11 2 11 -8q23 -141 31 -317q18 2 26 2q50 0 86 -18q13 8 21 16q101 90 179 316v1q2 7 9 7l1 -1h2q9 -3 7 -12q-29 -98 -84 -195t-122 -138q50 -39 79 -84q15 -24 29 -49.5t33 -64.5t25 -51q52 -107 104 -144q30 -22 82 -22q36 2 85 26h2q3 0 5 -2
zM-10 202q2 0 6 0.5t6 0.5v10q0 6 -0.5 19t-1.5 19q-11 -3 -14 -4q-9 -3 -19 -11q-11 -7 -11 -17q-2 -9 12 -13q9 -4 22 -4zM122 237q0 1 2 1q-1 0 -2.5 1t-2.5 2q-43 15 -94 15q2 -34 2 -50q57 11 95 31zM195 -265q1 -16 -19.5 -38.5t-36.5 -25.5l-2 8q12 2 28.5 18
t21.5 30q-5 -4 -15 -4q-9 0 -15.5 5t-6.5 10q0 15 22 15q23 0 23 -18z" />
    <glyph glyph-name="uni0137" unicode="&#x137;" horiz-adv-x="479" 
d="M482 154q4 -2 2 -7q-35 -66 -87.5 -107.5t-119.5 -41.5q-62 0 -134 36q0 -12 -2 -34l-3 -27q-5 -22 -8 -28t-9 -7h-2q-1 0 -2 -1h-4q-32 7 -56 43t-34 76q-35 99 -35 214q2 59 14 109q40 149 89 169q8 2 12 2q13 0 20 -6q25 -15 29 -50q3 -26 -2 -55q-19 -117 -125 -282
q22 -166 78 -204q1 0 5 -1.5t6 -1.5h3h2q5 9 7 25q2 8 4 26l3 39q-23 12 -43 28q-4 4 -1 11q2 2 6 2v1v-1q16 1 43 5q2 14 3 22q5 22 10.5 37t15 32t25.5 26t38 9q14 0 28 -6q16 -7 25.5 -22.5t8.5 -32.5q-8 -66 -146 -81q0 -6 -2 -20q71 -39 134 -39q121 0 198 140q2 5 6 3
zM55 474q-34 -91 -37 -204q0 -44 5 -97q97 150 114 268q5 29 1 51q-3 29 -22 39q-5 4 -11 4q-21 0 -50 -61zM206 184q-45 -19 -58 -97q24 4 47.5 10.5t48 22t24.5 33.5q2 20 -21 30q-10 5 -21 5q-8 0 -20 -4zM117 67q6 -3 18 -11q0 9 1 13q-3 -1 -9.5 -1t-9.5 -1zM268 -168
q1 -16 -19.5 -38.5t-36.5 -25.5l-2 8q12 2 28.5 18t21.5 30q-5 -4 -15 -4q-9 0 -15.5 5t-6.5 10q0 15 22 15q23 0 23 -18z" />
    <glyph glyph-name="kgreenlandic" unicode="&#x138;" horiz-adv-x="479" 
d="M482 154q4 -2 2 -7q-35 -66 -87.5 -107.5t-119.5 -41.5q-62 0 -134 36q0 -12 -2 -34l-3 -27q-5 -22 -8 -28t-9 -7h-2q-1 0 -2 -1h-4q-32 7 -56 43t-34 76q-16 44 -26 105q-3 16 -1.5 34.5t6.5 18.5q9 0 23 -57q22 -166 78 -204q1 0 5 -1.5t6 -1.5h3h2q5 9 7 25q2 8 4 26
l3 39q-23 12 -43 28q-4 4 -1 11q2 2 6 2v1v-1q16 1 43 5q2 14 3 22q5 22 10.5 37t15 32t25.5 26t38 9q14 0 28 -6q16 -7 25.5 -22.5t8.5 -32.5q-8 -66 -146 -81q0 -6 -2 -20q71 -39 134 -39q121 0 198 140q2 5 6 3zM206 184q-45 -19 -58 -97q24 4 47.5 10.5t48 22t24.5 33.5
q2 20 -21 30q-10 5 -21 5q-8 0 -20 -4zM117 67q6 -3 18 -11q0 9 1 13q-3 -1 -9.5 -1t-9.5 -1z" />
    <glyph glyph-name="Lacute" unicode="&#x139;" horiz-adv-x="365" 
d="M-290 -96q-1 19 13 35q16 20 43.5 32.5t53.5 12.5q69 0 139 -43q47 47 92 158l15 37q-25 -9 -44 -9q-38 0 -68 18q-4 2 -2 5q2 2 5 1q32 -17 61 -17t52 11l7 18q9 21 19 65q5 24 25 137q16 92 33 138q10 22 17 33q14 20 33 24q3 1 9 1q13 0 22 -6q3 -1 9 -5
q14 -12 19 -34q7 -33 0 -72q-10 -79 -56 -163.5t-106 -126.5l-26 -65q-44 -104 -96 -161l36 -24q53 -35 116 -46.5t146 -11.5q4 0 6 -5q0 -5 -5 -5q-42 -5 -76 -5q-136 0 -241 80q0 -1 -0.5 -1t-0.5 -1q-75 -67 -144 -67q-33 0 -69.5 17t-36.5 45zM107 167q55 42 95.5 123
t50.5 155q4 46 -2 68q-5 17 -16 25q-12 6 -19 6q-4 0 -8 -2q-20 -5 -34 -47q-13 -37 -28 -134q-14 -92 -24 -139q-7 -30 -15 -55zM-270 -67q-12 -14 -11 -28q2 -15 16 -25q27 -21 70 -21q69 0 138 65q-37 24 -62 34t-61 11q-32 0 -64 -15q-16 -10 -26 -21zM199 589
q-1 4 24 34.5t32 35.5h3q3 0 6 -1h4q-4 -6 -22.5 -36.5t-20.5 -33.5q-2 0 -13.5 0.5t-12.5 0.5z" />
    <glyph glyph-name="lacute" unicode="&#x13a;" horiz-adv-x="381" 
d="M-6 52q-10 79 5 196q27 203 89 281q24 26 49 27q12 0 19 -10q4 -5 6 -15q3 -12 1 -27q-4 -69 -49.5 -170t-95.5 -180q-2 -60 3 -99q12 -137 77 -145q46 0 105.5 46t102.5 97t72 98q3 3 5 3q4 0 3 -7q-23 -35 -54 -74t-70.5 -81t-83 -70.5t-79.5 -31.5q-57 0 -81 64
q-17 38 -24 98zM19 175q118 212 125 330q0 30 -7 30q-24 -2 -45.5 -38t-35 -90.5t-20.5 -92t-11 -69.5q-2 -14 -4 -41t-2 -29zM136 606q-1 4 24 34.5t32 35.5h3h7l3 -1q-4 -6 -22.5 -36.5t-20.5 -33.5q-2 0 -13.5 0.5t-12.5 0.5z" />
    <glyph glyph-name="uni013B" unicode="&#x13b;" horiz-adv-x="365" 
d="M277 -154q4 0 6 -5q0 -5 -5 -5q-42 -5 -76 -5q-136 0 -241 80q0 -1 -0.5 -1t-0.5 -1q-75 -67 -144 -67q-33 0 -69.5 17t-36.5 45q-1 19 13 35q16 20 43.5 32.5t53.5 12.5q69 0 139 -43q47 47 92 158l15 37q-25 -9 -44 -9q-38 0 -68 18q-4 2 -2 5q2 2 5 1q32 -17 61 -17
t52 11l7 18q9 21 19 65q5 24 25 137q16 92 33 138q10 22 17 33q14 20 33 24q3 1 9 1q13 0 22 -6q3 -1 9 -5q14 -12 19 -34q7 -33 0 -72q-10 -79 -56 -163.5t-106 -126.5l-26 -65q-44 -104 -96 -161l36 -24q53 -35 116 -46.5t146 -11.5zM122 222q-7 -30 -15 -55
q55 42 95.5 123t50.5 155q4 46 -2 68q-5 17 -16 25q-12 6 -19 6q-4 0 -8 -2q-20 -5 -34 -47q-13 -37 -28 -134q-14 -92 -24 -139zM-195 -141q69 0 138 65q-37 24 -62 34t-61 11q-32 0 -64 -15q-16 -10 -26 -21q-12 -14 -11 -28q2 -15 16 -25q27 -21 70 -21zM-26 -233
q1 -16 -19.5 -38.5t-36.5 -25.5l-2 8q12 2 28.5 18t21.5 30q-5 -4 -15 -4q-9 0 -15.5 5t-6.5 10q0 15 22 15q23 0 23 -18z" />
    <glyph glyph-name="uni013C" unicode="&#x13c;" horiz-adv-x="381" 
d="M378 151q3 3 5 3q4 0 3 -7q-23 -35 -54 -74t-70.5 -81t-83 -70.5t-79.5 -31.5q-57 0 -81 64q-17 38 -24 98q-10 79 5 196q27 203 89 281q24 26 49 27q12 0 19 -10q4 -5 6 -15q3 -12 1 -27q-4 -69 -49.5 -170t-95.5 -180q-2 -60 3 -99q12 -137 77 -145q46 0 105.5 46
t102.5 97t72 98zM137 535q-24 -2 -45.5 -38t-35 -90.5t-20.5 -92t-11 -69.5q-2 -14 -4 -41t-2 -29q118 212 125 330q0 30 -7 30zM114 -181q1 -16 -19.5 -38.5t-36.5 -25.5l-2 8q12 2 28.5 18t21.5 30q-5 -4 -15 -4q-9 0 -15.5 5t-6.5 10q0 15 22 15q23 0 23 -18z" />
    <glyph glyph-name="Lcaron" unicode="&#x13d;" horiz-adv-x="365" 
d="M277 -154q4 0 6 -5q0 -5 -5 -5q-42 -5 -76 -5q-136 0 -241 80q0 -1 -0.5 -1t-0.5 -1q-75 -67 -144 -67q-33 0 -69.5 17t-36.5 45q-1 19 13 35q16 20 43.5 32.5t53.5 12.5q69 0 139 -43q47 47 92 158l15 37q-25 -9 -44 -9q-38 0 -68 18q-4 2 -2 5q2 2 5 1q32 -17 61 -17
t52 11l7 18q9 21 19 65q5 24 25 137q16 92 33 138q10 22 17 33q14 20 33 24q3 1 9 1q13 0 22 -6q3 -1 9 -5q14 -12 19 -34q7 -33 0 -72q-10 -79 -56 -163.5t-106 -126.5l-26 -65q-44 -104 -96 -161l36 -24q53 -35 116 -46.5t146 -11.5zM122 222q-7 -30 -15 -55
q55 42 95.5 123t50.5 155q4 46 -2 68q-5 17 -16 25q-12 6 -19 6q-4 0 -8 -2q-20 -5 -34 -47q-13 -37 -28 -134q-14 -92 -24 -139zM-195 -141q69 0 138 65q-37 24 -62 34t-61 11q-32 0 -64 -15q-16 -10 -26 -21q-12 -14 -11 -28q2 -15 16 -25q27 -21 70 -21zM345 531
q1 -16 -19.5 -38.5t-36.5 -25.5l-2 8q12 2 28.5 18t21.5 30q-6 -3 -14 -3q-9 0 -15.5 4.5t-6.5 10.5q0 15 21 15q23 0 23 -19z" />
    <glyph glyph-name="lcaron" unicode="&#x13e;" horiz-adv-x="577" 
d="M378 151q3 3 5 3q4 0 3 -7q-23 -35 -54 -74t-70.5 -81t-83 -70.5t-79.5 -31.5q-57 0 -81 64q-17 38 -24 98q-10 79 5 196q27 203 89 281q24 26 49 27q12 0 19 -10q4 -5 6 -15q3 -12 1 -27q-4 -69 -49.5 -170t-95.5 -180q-2 -60 3 -99q12 -137 77 -145q46 0 105.5 46
t102.5 97t72 98zM137 535q-24 -2 -45.5 -38t-35 -90.5t-20.5 -92t-11 -69.5q-2 -14 -4 -41t-2 -29q118 212 125 330q0 30 -7 30zM239 531q1 -16 -19.5 -38.5t-36.5 -25.5l-2 8q12 2 28.5 18t21.5 30q-6 -3 -14 -3q-9 0 -15.5 4.5t-6.5 10.5q0 15 21 15q23 0 23 -19z" />
    <glyph glyph-name="Ldot" unicode="&#x13f;" horiz-adv-x="365" 
d="M277 -154q4 0 6 -5q0 -5 -5 -5q-42 -5 -76 -5q-136 0 -241 80q0 -1 -0.5 -1t-0.5 -1q-75 -67 -144 -67q-33 0 -69.5 17t-36.5 45q-1 19 13 35q16 20 43.5 32.5t53.5 12.5q69 0 139 -43q47 47 92 158l15 37q-25 -9 -44 -9q-38 0 -68 18q-4 2 -2 5q2 2 5 1q32 -17 61 -17
t52 11l7 18q9 21 19 65q5 24 25 137q16 92 33 138q10 22 17 33q14 20 33 24q3 1 9 1q13 0 22 -6q3 -1 9 -5q14 -12 19 -34q7 -33 0 -72q-10 -79 -56 -163.5t-106 -126.5l-26 -65q-44 -104 -96 -161l36 -24q53 -35 116 -46.5t146 -11.5zM122 222q-7 -30 -15 -55
q55 42 95.5 123t50.5 155q4 46 -2 68q-5 17 -16 25q-12 6 -19 6q-4 0 -8 -2q-20 -5 -34 -47q-13 -37 -28 -134q-14 -92 -24 -139zM-195 -141q69 0 138 65q-37 24 -62 34t-61 11q-32 0 -64 -15q-16 -10 -26 -21q-12 -14 -11 -28q2 -15 16 -25q27 -21 70 -21zM179 114
q7 0 13 -5t6 -13t-6 -13.5t-13 -5.5q-8 0 -13.5 5.5t-5.5 13.5q0 18 19 18z" />
    <glyph glyph-name="ldot" unicode="&#x140;" horiz-adv-x="381" 
d="M378 151q3 3 5 3q4 0 3 -7q-23 -35 -54 -74t-70.5 -81t-83 -70.5t-79.5 -31.5q-57 0 -81 64q-17 38 -24 98q-10 79 5 196q27 203 89 281q24 26 49 27q12 0 19 -10q4 -5 6 -15q3 -12 1 -27q-4 -69 -49.5 -170t-95.5 -180q-2 -60 3 -99q12 -137 77 -145q46 0 105.5 46
t102.5 97t72 98zM137 535q-24 -2 -45.5 -38t-35 -90.5t-20.5 -92t-11 -69.5q-2 -14 -4 -41t-2 -29q118 212 125 330q0 30 -7 30zM187 228q7 0 13 -5t6 -13t-6 -13.5t-13 -5.5q-8 0 -13.5 5.5t-5.5 13.5q0 18 19 18z" />
    <glyph glyph-name="Lslash" unicode="&#x141;" horiz-adv-x="365" 
d="M277 -154q4 0 6 -5q0 -5 -5 -5q-42 -5 -76 -5q-136 0 -241 80q0 -1 -0.5 -1t-0.5 -1q-75 -67 -144 -67q-33 0 -69.5 17t-36.5 45q-1 19 13 35q16 20 43.5 32.5t53.5 12.5q69 0 139 -43q24 24 58 84l-60 -29h-1l-2 -1q-3 0 -8 5q-4 8 4 12l80 39l21 48l15 37
q-25 -9 -44 -9q-38 0 -68 18q-4 2 -2 5q2 2 5 1q32 -17 61 -17t52 11l7 18q9 21 19 65q5 24 25 137q16 92 33 138q10 22 17 33q14 20 33 24q3 1 9 1q13 0 22 -6q3 -1 9 -5q14 -12 19 -34q7 -33 0 -72q-10 -79 -55 -163.5t-107 -126.5l-26 -65q-6 -14 -9 -20l87 42q1 1 3 1
q6 0 9 -5q4 -8 -5 -12l-105 -51q-36 -73 -76 -116l36 -24q53 -35 116 -46.5t146 -11.5zM146 361q-14 -92 -24 -139q-7 -30 -15 -55q54 42 95 122.5t51 155.5q4 46 -2 68q-5 17 -16 25l-6 3q-6 3 -13 3q-4 0 -8 -2q-20 -5 -34 -47q-13 -37 -28 -134zM-265 -120q27 -21 70 -21
q69 0 138 65q-37 24 -62 34t-61 11q-32 0 -64 -15q-16 -10 -26 -21q-12 -14 -11 -28q2 -15 16 -25z" />
    <glyph glyph-name="lslash" unicode="&#x142;" horiz-adv-x="381" 
d="M378 151q3 3 5 3q4 0 3 -7q-31 -48 -73.5 -100t-104.5 -102.5t-109 -54.5q-57 0 -81 64q-16 35 -23 87l-65 -53q-2 -2 -5 -2q-1 0 -7 3q-6 7 2 13l73 60q-9 75 6 186q27 203 89 281q24 26 49 27q12 0 19 -10q4 -5 6 -15q3 -12 1 -27q-5 -71 -49 -170t-96 -180
q-2 -40 1 -72l76 63q2 2 4 2q5 0 8 -3q6 -7 -2 -13l-85 -69q0 -2 0.5 -4t0.5 -3q12 -137 77 -145q46 0 105.5 46t102.5 97t72 98zM25 245q-2 -14 -4 -41t-2 -29q45 80 83 172.5t42 157.5q0 30 -7 30q-24 -2 -45.5 -38.5t-35 -91.5t-20.5 -91.5t-11 -68.5z" />
    <glyph glyph-name="Nacute" unicode="&#x143;" horiz-adv-x="542" 
d="M-100 -164q-9 9 2 18q108 88 108 356q-80 131 -100 209q-5 27 -3 37q2 14 9 21q4 5 10 8q6 2 12 2q18 1 37 -20q50 -63 61 -238q0 -6 0.5 -18.5t0.5 -19.5q149 -238 246 -303q14 -10 27 -12q13 -1 24.5 8.5t16.5 24.5q16 42 12 131q-14 214 -108 464q-20 45 -30 57h-1
q-7 11 2 18q3 3 8 3q6 0 10 -4q15 -18 36 -63q98 -239 108 -474q2 -39 -1 -70q-6 -48 -16 -71q-12 -22 -26 -32.5t-37 -10.5q-11 2 -36 16q-104 80 -235 294q-9 -242 -119 -333q-4 -3 -9 -3q-6 0 -9 5zM-74 454q-2 -9 2 -31q16 -69 81 -185q-3 72 -15 125q-25 105 -55 105
q-12 -1 -13 -14zM61 605q-1 4 24 34.5t32 35.5h3q3 0 6 -1h4q-4 -6 -22.5 -36.5t-20.5 -33.5q-2 0 -13.5 0.5t-12.5 0.5z" />
    <glyph glyph-name="nacute" unicode="&#x144;" horiz-adv-x="417" 
d="M-7 14q-6 4 -4 11q13 22 8 119q-2 10 8 12q9 2 11 -8h1q3 -10 2.5 -42t-3.5 -53l30 41q32 45 56 68q14 14 32 14q10 0 20 -6q18 -13 18 -49q0 -23 -1 -34q-3 -29 -1.5 -72.5t12.5 -72.5q7 -15 13 -16q13 0 21 6q49 36 108 101t90 118q3 5 7 3q3 -3 1 -7
q-26 -49 -107 -144.5t-116 -95.5q-5 0 -8 1q-26 7 -36 57q-4 23 -5.5 48.5t-1.5 59t-1 48.5q0 25 -7 31q-2 2 -7 2h-4q-6 -1 -7 -2q-1 0 -4 -2t-4 -2q-27 -20 -62 -61t-43 -67q-4 -8 -10 -8q-2 0 -6 2zM102 240q-1 4 24 34.5t32 35.5h3h7l3 -1q-4 -6 -22.5 -36.5
t-20.5 -33.5q-2 0 -13.5 0.5t-12.5 0.5z" />
    <glyph glyph-name="uni0145" unicode="&#x145;" horiz-adv-x="542" 
d="M388 41q2 -39 -1 -70q-6 -48 -16 -71q-12 -22 -26 -32.5t-37 -10.5q-11 2 -36 16q-104 80 -235 294q-9 -242 -119 -333q-4 -3 -9 -3q-6 0 -9 5q-9 9 2 18q108 88 108 356q-80 131 -100 209q-5 27 -3 37q2 14 9 21q4 5 10 8q6 2 12 2q18 1 37 -20q50 -63 61 -238
q0 -6 0.5 -18.5t0.5 -19.5q149 -238 246 -303q14 -10 27 -12q13 -1 24.5 8.5t16.5 24.5q16 42 12 131q-14 214 -108 464q-20 45 -30 57h-1q-7 11 2 18q3 3 8 3q6 0 10 -4q15 -18 36 -63q98 -239 108 -474zM-72 423q16 -69 81 -185q-3 72 -15 125q-25 105 -55 105
q-12 -1 -13 -14q-2 -9 2 -31zM200 -207q1 -16 -19.5 -38.5t-36.5 -25.5l-2 8q12 2 28.5 18t21.5 30q-5 -4 -15 -4q-9 0 -15.5 5t-6.5 10q0 15 22 15q23 0 23 -18z" />
    <glyph glyph-name="uni0146" unicode="&#x146;" horiz-adv-x="417" 
d="M421 154q3 -3 1 -7q-26 -49 -107 -144.5t-116 -95.5q-5 0 -8 1q-26 7 -36 57q-4 23 -5.5 48.5t-1.5 59t-1 48.5q0 25 -7 31q-2 2 -7 2h-4q-6 -1 -7 -2q-1 0 -4 -2t-4 -2q-27 -20 -62 -61t-43 -67q-4 -8 -10 -8q-2 0 -6 2q-6 4 -4 11q13 22 8 119q-2 10 8 12q9 2 11 -8h1
q3 -10 2.5 -42t-3.5 -53l30 41q32 45 56 68q14 14 32 14q10 0 20 -6q18 -13 18 -49q0 -23 -1 -34q-3 -29 -1.5 -72.5t12.5 -72.5q7 -15 13 -16q13 0 21 6q49 36 108 101t90 118q3 5 7 3zM117 -171q1 -16 -19.5 -38.5t-36.5 -25.5l-2 8q12 2 28.5 18t21.5 30q-5 -4 -15 -4
q-9 0 -15.5 5t-6.5 10q0 15 22 15q23 0 23 -18z" />
    <glyph glyph-name="Ncaron" unicode="&#x147;" horiz-adv-x="542" 
d="M388 41q2 -39 -1 -70q-6 -48 -16 -71q-12 -22 -26 -32.5t-37 -10.5q-11 2 -36 16q-104 80 -235 294q-9 -242 -119 -333q-4 -3 -9 -3q-6 0 -9 5q-9 9 2 18q108 88 108 356q-80 131 -100 209q-5 27 -3 37q2 14 9 21q4 5 10 8q6 2 12 2q18 1 37 -20q50 -63 61 -238
q0 -6 0.5 -18.5t0.5 -19.5q149 -238 246 -303q14 -10 27 -12q13 -1 24.5 8.5t16.5 24.5q16 42 12 131q-14 214 -108 464q-20 45 -30 57h-1q-7 11 2 18q3 3 8 3q6 0 10 -4q15 -18 36 -63q98 -239 108 -474zM-72 423q16 -69 81 -185q-3 72 -15 125q-25 105 -55 105
q-12 -1 -13 -14q-2 -9 2 -31zM151 676q0 -3 -16.5 -35t-18.5 -34l-13 -6l-26 31l-34 36l10 9l50 -54q-1 20 12.5 39.5t28.5 25.5z" />
    <glyph glyph-name="ncaron" unicode="&#x148;" horiz-adv-x="417" 
d="M421 154q3 -3 1 -7q-26 -49 -107 -144.5t-116 -95.5q-5 0 -8 1q-26 7 -36 57q-4 23 -5.5 48.5t-1.5 59t-1 48.5q0 25 -7 31q-2 2 -7 2h-4q-6 -1 -7 -2q-1 0 -4 -2t-4 -2q-27 -20 -62 -61t-43 -67q-4 -8 -10 -8q-2 0 -6 2q-6 4 -4 11q13 22 8 119q-2 10 8 12q9 2 11 -8h1
q3 -10 2.5 -42t-3.5 -53l30 41q32 45 56 68q14 14 32 14q10 0 20 -6q18 -13 18 -49q0 -23 -1 -34q-3 -29 -1.5 -72.5t12.5 -72.5q7 -15 13 -16q13 0 21 6q49 36 108 101t90 118q3 5 7 3zM147 295q0 -3 -16.5 -35t-18.5 -34l-13 -6l-26 31l-34 36l10 9l50 -54
q-1 20 12.5 39.5t28.5 25.5z" />
    <glyph glyph-name="napostrophe" unicode="&#x149;" horiz-adv-x="417" 
d="M421 154q3 -3 1 -7q-26 -49 -107 -144.5t-116 -95.5q-5 0 -8 1q-26 7 -36 57q-4 23 -5.5 48.5t-1.5 59t-1 48.5q0 25 -7 31q-2 2 -7 2h-4q-6 -1 -7 -2q-1 0 -4 -2t-4 -2q-27 -20 -62 -61t-43 -67q-4 -8 -10 -8q-2 0 -6 2q-6 4 -4 11q13 22 8 119q-2 10 8 12q9 2 11 -8h1
q3 -10 2.5 -42t-3.5 -53l30 41q32 45 56 68q14 14 32 14q10 0 20 -6q18 -13 18 -49q0 -23 -1 -34q-3 -29 -1.5 -72.5t12.5 -72.5q7 -15 13 -16q13 0 21 6q49 36 108 101t90 118q3 5 7 3zM48 249q1 -16 -19.5 -38.5t-36.5 -25.5l-2 8q12 2 28.5 18t21.5 30q-5 -4 -15 -4
q-9 0 -15.5 5t-6.5 10q0 15 22 15q23 0 23 -18z" />
    <glyph glyph-name="Eng" unicode="&#x14a;" horiz-adv-x="542" 
d="M-100 -164q-9 9 2 18q108 88 108 356q-80 131 -100 209q-5 27 -3 37q2 14 9 21q4 5 10 8q6 2 12 2q18 1 37 -20q50 -63 61 -238q0 -6 0.5 -18.5t0.5 -19.5q149 -238 246 -303q14 -10 27 -12q13 -1 24.5 8.5t16.5 24.5q16 42 12 131q-14 214 -108 464q-20 45 -30 57h-1
q-7 11 2 18q3 3 8 3q6 0 10 -4q15 -18 36 -63q98 -239 108 -474q2 -39 -1 -70q-6 -48 -16 -71q-22 -41 -53 -43h-2h-3l-97 -5q-7 0 -7 7q-2 6 7 8l62 3l-6 3q-104 80 -235 294q-9 -242 -119 -333q-4 -3 -9 -3q-6 0 -9 5zM-74 454q-2 -9 2 -31q16 -69 81 -185q-3 72 -15 125
q-25 105 -55 105q-12 -1 -13 -14zM278 -130q16 -11 30 -13h5h5q5 2 5 7q0 9 -8 7z" />
    <glyph glyph-name="eng" unicode="&#x14b;" horiz-adv-x="412" 
d="M-7 14q-6 4 -4 11q13 22 8 119q-2 10 8 12q9 2 11 -8h1q3 -10 2.5 -42t-3.5 -53l30 41q32 45 56 68q14 14 32 14q10 0 20 -6q18 -13 18 -49q0 -23 -1 -34q-3 -29 -1.5 -72.5t12.5 -72.5q7 -15 13 -16q13 0 21 6q49 36 108 101t90 118q3 5 7 3q3 -3 1 -7
q-26 -49 -107 -144.5t-115 -95.5q-5 0 -8 1l-95 -5q-7 0 -7 7q-2 6 7 8l75 3q-13 17 -17 44q-4 23 -5.5 48.5t-1.5 59t-1 48.5q0 25 -7 31q-2 2 -7 2h-4q-6 -1 -7 -2q-1 0 -4 -2t-4 -2q-27 -20 -62 -61t-43 -67v-1l-1 -1q0 -2 -1 -2q-4 -4 -8 -4q-2 0 -6 2zM172 -79
q7 -10 20 -13h5q7 0 7 7q0 9 -8 7z" />
    <glyph glyph-name="Omacron" unicode="&#x14c;" horiz-adv-x="740" 
d="M560 237q11 -48 9 -98q-4 -115 -83.5 -201.5t-193.5 -86.5q-108 0 -191 85t-100 195q-10 69 7 143q27 114 103.5 197.5t185.5 89.5q77 0 141.5 -35t97.5 -101q33 -62 30 -139q0 -15 -6 -49zM284 -121q109 0 181 74.5t82 186.5q1 24 0 47q-8 -26 -14 -38q-2 -4 -5 -4
q-1 0 -2 1q-6 2 -4 7q14 29 23 63q-10 93 -61 189q-2 4 2 6q3 2 5 -2q37 -62 59 -129q0 -3 2 -9t2 -9l3 25q3 72 -30 132q-32 56 -86 87.5t-118 31.5q-148 0 -239 -145q-83 -133 -63 -260q12 -99 88.5 -176.5t174.5 -77.5zM216 623q0 -7 5 -7l117 8q5 0 5 7q0 4 -2 6t-4 1
l-116 -7q-5 -2 -5 -8z" />
    <glyph glyph-name="omacron" unicode="&#x14d;" horiz-adv-x="345" 
d="M349 153q3 -2 1 -6q-69 -130 -177 -136q-5 -32 -23 -53t-49 -21q-38 0 -58 20q-14 12 -19 33q-3 19 0 37q1 13 8 32q-31 25 -40 61q-4 23 10 37q11 12 35 14h9q16 0 28 -4q37 -9 65.5 -37t32.5 -64q4 -19 2 -47q57 6 94 39t74 93q2 4 7 2zM150 63q-4 50 -52 79
q-40 -25 -58 -78q37 -32 87 -43q16 -2 24 -2q2 24 -1 44zM15 92q8 -12 20 -24q4 9 12 25q22 36 45 52q-9 5 -22 10q-18 5 -32 5q-20 -2 -28 -11q-10 -11 -7.5 -27.5t12.5 -29.5zM111 -44q13 3 21 13t11 17.5t7 23.5q-3 0 -7.5 0.5t-8.5 1t-8 1.5q-52 9 -89 42q-5 -15 -6 -29
q-4 -41 21 -58q19 -14 43 -14q6 0 16 2zM35 210q0 -7 5 -7l117 8q5 0 5 7q0 4 -2 6t-4 1l-116 -7q-5 -2 -5 -8z" />
    <glyph glyph-name="Obreve" unicode="&#x14e;" horiz-adv-x="740" 
d="M560 237q11 -48 9 -98q-4 -115 -83.5 -201.5t-193.5 -86.5q-108 0 -191 85t-100 195q-10 69 7 143q27 114 103.5 197.5t185.5 89.5q77 0 141.5 -35t97.5 -101q33 -62 30 -139q0 -15 -6 -49zM284 -121q109 0 181 74.5t82 186.5q1 24 0 47q-8 -26 -14 -38q-2 -4 -5 -4
q-1 0 -2 1q-6 2 -4 7q14 29 23 63q-10 93 -61 189q-2 4 2 6q3 2 5 -2q37 -62 59 -129q0 -3 2 -9t2 -9l3 25q3 72 -30 132q-32 56 -86 87.5t-118 31.5q-148 0 -239 -145q-83 -133 -63 -260q12 -99 88.5 -176.5t174.5 -77.5zM268 638q28 -31 39 -31q13 0 28 25l11 -9
q-19 -36 -49 -36q-17 0 -29 12.5t-12 32.5z" />
    <glyph glyph-name="obreve" unicode="&#x14f;" horiz-adv-x="345" 
d="M349 153q3 -2 1 -6q-69 -130 -177 -136q-5 -32 -23 -53t-49 -21q-38 0 -58 20q-14 12 -19 33q-3 19 0 37q1 13 8 32q-31 25 -40 61q-4 23 10 37q11 12 35 14h9q16 0 28 -4q37 -9 65.5 -37t32.5 -64q4 -19 2 -47q57 6 94 39t74 93q2 4 7 2zM150 63q-4 50 -52 79
q-40 -25 -58 -78q37 -32 87 -43q16 -2 24 -2q2 24 -1 44zM15 92q8 -12 20 -24q4 9 12 25q22 36 45 52q-9 5 -22 10q-18 5 -32 5q-20 -2 -28 -11q-10 -11 -7.5 -27.5t12.5 -29.5zM111 -44q13 3 21 13t11 17.5t7 23.5q-3 0 -7.5 0.5t-8.5 1t-8 1.5q-52 9 -89 42q-5 -15 -6 -29
q-4 -41 21 -58q19 -14 43 -14q6 0 16 2zM57 243q28 -31 39 -31q13 0 28 25l11 -9q-19 -36 -49 -36q-17 0 -29 12.5t-12 32.5z" />
    <glyph glyph-name="Ohungarumlaut" unicode="&#x150;" horiz-adv-x="740" 
d="M566 286q0 -15 -6 -49q11 -48 9 -98q-4 -115 -83.5 -201.5t-193.5 -86.5q-108 0 -191 85t-100 195q-10 69 7 143q27 115 103.5 198t185.5 89q77 0 141.5 -35t97.5 -101q33 -62 30 -139zM547 140q1 24 0 47q-8 -26 -14 -38q-2 -4 -5 -4q-1 0 -2 1q-6 2 -4 7q14 29 23 63
q-10 93 -61 189q-2 4 2 6q3 2 5 -2q37 -62 59 -129q0 -3 2 -9t2 -9l3 25q3 72 -30 132q-32 56 -86 87.5t-118 31.5q-148 0 -239 -145q-83 -133 -63 -260q12 -99 88.5 -176.5t174.5 -77.5q109 0 181 74.5t82 186.5zM317 614q-1 4 22.5 32.5t32.5 37.5h3h7l3 -1l-41 -70
q-3 0 -14.5 0.5t-12.5 0.5zM232 614q-1 4 22.5 32.5t32.5 37.5h3h6l4 -1l-41 -70q-3 0 -14.5 0.5t-12.5 0.5z" />
    <glyph glyph-name="ohungarumlaut" unicode="&#x151;" horiz-adv-x="345" 
d="M342 151q2 4 7 2q3 -2 1 -6q-69 -130 -177 -136q-4 -27 -19 -48.5t-39 -24.5q-5 -1 -14 -1q-38 0 -58 20q-14 12 -19 33q-3 19 0 37q1 13 8 32q-31 25 -40 61q-4 23 10 37q11 12 35 14h9q16 0 28 -4q37 -9 65.5 -37t32.5 -64q4 -19 2 -47q57 6 94 39t74 93zM151 19
q2 24 -1 44q-5 51 -53 78q-39 -24 -57 -77q37 -32 87 -43q16 -2 24 -2zM52 -32q19 -14 43 -14q6 0 16 2q13 3 21 13t11 17.5t7 23.5q-3 0 -7.5 0.5t-8.5 1t-8 1.5q-52 9 -89 42q-5 -15 -6 -29q-4 -41 21 -58zM10 149q-10 -11 -7.5 -27.5t12.5 -29.5q8 -12 20 -24q4 9 12 25
q22 36 45 52q-9 5 -22 10q-18 5 -32 5q-20 -2 -28 -11zM105 197q-1 4 22.5 32.5t32.5 37.5h3q3 0 7 -1h3l-41 -70q-3 0 -14.5 0.5t-12.5 0.5zM35 197q-1 4 22.5 32.5t32.5 37.5h3q3 0 7 -1h3l-41 -70q-3 0 -14.5 0.5t-12.5 0.5z" />
    <glyph glyph-name="OE" unicode="&#x152;" horiz-adv-x="1082" 
d="M979 -13q7 -4 3 -10q-34 -56 -88 -84q-45 -23 -120 -23q-77 7 -136 54.5t-78 120.5q-28 -90 -99.5 -148t-163.5 -58q-108 0 -191 84.5t-99 194.5q-11 73 6 144q26 112 104.5 197t185.5 89q78 0 141.5 -34.5t97.5 -101.5l2.5 -5t2.5 -4q5 72 75 108.5t151 36.5
q168 0 210 -99q4 -7 -4 -11q-7 0 -11 5q-16 46 -67 66t-109 20q-67 0 -127 -21.5t-87 -70.5q-12 -23 -10 -51t17 -51q28 -43 87 -70q1 -1 2 -1q53 16 101 16q37 0 68 -10q7 -3 14 -7q9 -7 9 -14q1 -9 -8 -16q-17 -10 -55 -10q-3 0 -10 0.5t-10 0.5q-56 4 -110 24
q-27 -12 -50 -32q-42 -36 -48.5 -97t20.5 -109q28 -55 84 -88t118 -33q53 0 98.5 25t73.5 71q1 3 6 3q3 0 4 -1zM783 272q-30 0 -90 -16q61 -25 119 -25q16 0 29 3q8 2 13.5 5.5t4.5 8.5q-2 12 -29.5 18t-46.5 6zM654 256q-57 25 -84 64q2 -15 2 -46q-2 -26 -6 -49
q4 -21 6 -44q26 49 82 75zM293 -134q106 0 178.5 77t81.5 185q2 23 0 47q-5 -17 -14 -38q-2 -6 -8 -4q-5 3 -3 8q14 32 23 62q-15 99 -61 190q-1 3 2 6q3 2 5 -2q33 -58 63 -147q2 16 2 25q2 39 -7 72q-5 13 -6 23q-28 72 -86.5 114t-135.5 42q-15 0 -22 -1
q-132 -11 -215 -144q-82 -132 -64 -260q13 -100 90.5 -177.5t176.5 -77.5z" />
    <glyph glyph-name="oe" unicode="&#x153;" horiz-adv-x="445" 
d="M451 151q3 -1 1 -5q-7 -9 -33.5 -46.5t-46.5 -59.5t-45 -39q-31 -23 -70 -23q-19 0 -42 8.5t-32 21.5q-6 6 -11 16q-7 -15 -10 -18q-19 -28 -54 -28q-33 0 -56 18t-23 50q-1 25 9 54q-30 29 -38 55q-4 17 0 29q6 29 48 29q40 0 75 -23t49 -59q14 41 39 66q11 12 21 17
q8 5 18 5q6 0 12 -3q15 -9 13 -28q0 -13 -5 -26q-16 -52 -82 -110q6 -21 13 -28q6 -8 15 -12q9 -6 20 -9q15 -6 31 -6q7 0 11 1q51 7 110 78q11 14 58 75q4 2 5 0zM224 185q-37 -45 -37 -111q54 45 68 93q4 9 4 21q2 11 -4 14q-1 1 -4 1q-11 0 -27 -18zM10 157q5 -21 32 -48
q21 51 57 77q-1 0 -1 1l-2 1q-24 13 -48 13q-32 0 -38 -20q-4 -9 0 -24zM145 17q20 33 10 96q-9 47 -51 69h-1q-37 -21 -57 -77q1 -2 4.5 -4.5t5.5 -3.5q45 -34 96 -37q4 0 4 -4t-4 -4q-55 4 -101 38q-2 1 -4 3.5t-4 3.5q-9 -28 -5 -50q3 -28 24 -40q14 -11 46 -11
q24 2 37 21z" />
    <glyph glyph-name="Racute" unicode="&#x154;" horiz-adv-x="552" 
d="M-169 565q-2 5 5 7q137 12 240 12q301 0 363 -106q20 -36 14 -75q-11 -72 -78 -131.5t-146 -86.5q44 -26 90 -129q6 -14 17 -40t20.5 -46.5t18.5 -37.5q27 -53 67.5 -76t100.5 -23q26 0 58 5q4 1 6 -3q0 -5 -4 -5q-45 -7 -78 -7q-117 0 -173 95q-14 22 -57 127
q-40 94 -86 134q-63 -19 -130 -19q-25 0 -50 3q0 -146 -18 -221q-13 -62 -42 -83q-4 -2 -7 -2q-7 0 -10 5q-7 9 3 17q31 23 42 152q4 45 4 136q-1 1 -5 1t-5 1q-24 7 -33 11q-21 12 -26 25q-3 8 2 18q3 5 13 13q11 6 33 12q12 2 19 3q-2 113 -19 293q0 11 11 13q11 0 13 -10
q14 -113 23 -295q115 0 189 -56q72 30 136.5 88t72.5 122q5 30 -10 58q-62 111 -355 111q-104 0 -222 -16q-7 0 -7 6zM197 189q-34 25 -80 40t-90 17q1 -8 1 -22t1 -22v-34q10 -1 31 -1q72 0 137 22zM-51 232q-18 -12 -13 -26q8 -20 56 -33q6 0 9 -1q0 20 -1 30q0 29 -1 44
l-18 -3q-20 -4 -32 -11zM109 637q-1 4 24 34.5t32 35.5h3q3 0 6 -1h4q-4 -6 -22.5 -36.5t-20.5 -33.5q-2 0 -13.5 0.5t-12.5 0.5z" />
    <glyph glyph-name="racute" unicode="&#x155;" horiz-adv-x="320" 
d="M-51 77q-3 3 0 5q25 32 48 66q-1 0 -1 0.5t-1 0.5q-23 33 -17 48q2 7 12.5 11.5t20.5 4.5q13 0 15 -9q2 -7 -5 -26q-3 -7 -11 -21l-1 -2q27 -22 62 -22q31 0 56 17q4 2 6 2q5 0 8 -5q4 -6 -1 -11q-6 -10 -19.5 -27t-18.5 -26q-30 -49 -30 -88q0 -18 8 -25q10 -10 26 -10
q12 0 30 6q54 20 96 67t85 118q2 4 6 2t2 -6q-24 -45 -54 -85t-75.5 -76t-89.5 -40q-46 0 -51 48q-4 52 26 101q8 14 12 20q-57 0 -92 28l-48 -66q-2 -2 -4 0zM54 239q-1 4 24 34.5t32 35.5h3q3 0 7 -1h3q-4 -6 -22.5 -36.5t-20.5 -33.5q-2 0 -13.5 0.5t-12.5 0.5zM-14 194
q-3 -8 4 -19q3 -6 13 -16q8 13 12 22q9 21 -2 24q-21 0 -27 -11z" />
    <glyph glyph-name="uni0156" unicode="&#x156;" horiz-adv-x="552" 
d="M601 -162q4 1 6 -3q0 -5 -4 -5q-45 -7 -78 -7q-117 0 -173 95q-14 22 -57 127q-40 94 -86 134q-63 -19 -130 -19q-25 0 -50 3q0 -146 -18 -221q-13 -62 -42 -83q-4 -2 -7 -2q-7 0 -10 5q-7 9 3 17q31 23 42 152q4 45 4 136q-1 1 -5 1t-5 1q-24 7 -33 11q-21 12 -26 25
q-3 8 2 18q3 5 13 13q11 6 33 12q12 2 19 3q-2 113 -19 293q0 11 11 13q11 0 13 -10q14 -113 23 -295q115 0 189 -56q72 30 136.5 88t72.5 122q5 30 -10 58q-62 111 -355 111q-104 0 -222 -16q-7 0 -7 6q-2 5 5 7q137 12 240 12q301 0 363 -106q20 -36 14 -75
q-11 -72 -78 -131.5t-146 -86.5q44 -26 90 -129q6 -14 17 -40t20.5 -46.5t18.5 -37.5q27 -53 67.5 -76t100.5 -23q26 0 58 5zM-8 173q6 0 9 -1q0 20 -1 30q0 29 -1 44l-18 -3q-20 -4 -32 -11q-18 -12 -13 -26q8 -20 56 -33zM60 167q72 0 137 22q-34 25 -80 40t-90 17
q1 -8 1 -22t1 -22v-34q10 -1 31 -1zM185 -199q1 -16 -19.5 -38.5t-36.5 -25.5l-2 8q12 2 28.5 18t21.5 30q-5 -4 -15 -4q-9 0 -15.5 5t-6.5 10q0 15 22 15q23 0 23 -18z" />
    <glyph glyph-name="uni0157" unicode="&#x157;" horiz-adv-x="320" 
d="M323 153q4 -2 2 -6q-24 -45 -54 -85t-75.5 -76t-89.5 -40q-46 0 -51 48q-4 52 26 101q8 14 12 20q-57 0 -92 28l-48 -66q-2 -2 -4 0q-3 3 0 5q25 32 48 66q-1 0 -1 0.5t-1 0.5q-23 33 -17 48q2 7 12.5 11.5t20.5 4.5q13 0 15 -9q2 -7 -5 -26q-3 -7 -11 -21l-1 -2
q27 -22 62 -22q31 0 56 17q4 2 6 2q5 0 8 -5q4 -6 -1 -11q-6 -10 -19.5 -27t-18.5 -26q-30 -49 -30 -88q0 -18 8 -25q10 -10 26 -10q12 0 30 6q54 20 96 67t85 118q2 4 6 2zM-10 175q3 -6 13 -16q8 13 12 22q9 21 -2 24q-21 0 -27 -11q-3 -8 4 -19zM43 -96
q1 -16 -19.5 -38.5t-36.5 -25.5l-2 8q12 2 28.5 18t21.5 30q-5 -4 -15 -4q-9 0 -15.5 5t-6.5 10q0 15 22 15q23 0 23 -18z" />
    <glyph glyph-name="Rcaron" unicode="&#x158;" horiz-adv-x="552" 
d="M601 -162q4 1 6 -3q0 -5 -4 -5q-45 -7 -78 -7q-117 0 -173 95q-14 22 -57 127q-40 94 -86 134q-63 -19 -130 -19q-25 0 -50 3q0 -146 -18 -221q-13 -62 -42 -83q-4 -2 -7 -2q-7 0 -10 5q-7 9 3 17q31 23 42 152q4 45 4 136q-1 1 -5 1t-5 1q-24 7 -33 11q-21 12 -26 25
q-3 8 2 18q3 5 13 13q11 6 33 12q12 2 19 3q-2 113 -19 293q0 11 11 13q11 0 13 -10q14 -113 23 -295q115 0 189 -56q72 30 136.5 88t72.5 122q5 30 -10 58q-62 111 -355 111q-104 0 -222 -16q-7 0 -7 6q-2 5 5 7q137 12 240 12q301 0 363 -106q20 -36 14 -75
q-11 -72 -78 -131.5t-146 -86.5q44 -26 90 -129q6 -14 17 -40t20.5 -46.5t18.5 -37.5q27 -53 67.5 -76t100.5 -23q26 0 58 5zM-8 173q6 0 9 -1q0 20 -1 30q0 29 -1 44l-18 -3q-20 -4 -32 -11q-18 -12 -13 -26q8 -20 56 -33zM60 167q72 0 137 22q-34 25 -80 40t-90 17
q1 -8 1 -22t1 -22v-34q10 -1 31 -1zM174 700q0 -3 -16.5 -35t-18.5 -34l-13 -6l-26 31l-34 36l10 9l50 -54q-1 20 12.5 39.5t28.5 25.5z" />
    <glyph glyph-name="rcaron" unicode="&#x159;" horiz-adv-x="320" 
d="M323 153q4 -2 2 -6q-24 -45 -54 -85t-75.5 -76t-89.5 -40q-46 0 -51 48q-4 52 26 101q8 14 12 20q-57 0 -92 28l-48 -66q-2 -2 -4 0q-3 3 0 5q25 32 48 66q-1 0 -1 0.5t-1 0.5q-23 33 -17 48q2 7 12.5 11.5t20.5 4.5q13 0 15 -9q2 -7 -5 -26q-3 -7 -11 -21l-1 -2
q27 -22 62 -22q31 0 56 17q4 2 6 2q5 0 8 -5q4 -6 -1 -11q-6 -10 -19.5 -27t-18.5 -26q-30 -49 -30 -88q0 -18 8 -25q10 -10 26 -10q12 0 30 6q54 20 96 67t85 118q2 4 6 2zM-10 175q3 -6 13 -16q8 13 12 22q9 21 -2 24q-21 0 -27 -11q-3 -8 4 -19zM97 307q0 -3 -16.5 -35
t-18.5 -34l-13 -6l-26 31l-34 36l10 9l50 -54q-1 20 12.5 39.5t28.5 25.5z" />
    <glyph glyph-name="Sacute" unicode="&#x15a;" horiz-adv-x="698" 
d="M7 -89q-9 20 -6 43q5 36 41 70q73 73 347 184q-6 2 -22.5 9t-26.5 10q-12 5 -36.5 13t-36.5 13q-160 51 -164 167q-2 45 25 81q48 64 154 64q32 0 66 -7.5t64.5 -29.5t32.5 -53q1 -21 -10 -41q-1 -4 -6 -4q-2 0 -3 1q-7 3 -3 9q10 18 7 34q-1 15 -15 30q-40 40 -125 40
q-98 0 -142 -58q-21 -30 -19 -65q3 -96 147 -142q61 -21 74 -25q56 -22 76 -32q210 83 251 101q1 1 3 1q4 0 5 -4q2 -5 -3 -8q-39 -18 -145 -59l-97 -38q111 -62 111 -144q0 -5 -2 -23q0 -1 -1 -4.5t-2 -5.5t-2.5 -6t-1.5 -5q-26 -50 -105 -92.5t-160.5 -63.5t-139.5 -21
q-68 0 -104 27q-18 18 -26 34zM16 -48q-1 -18 6 -34q12 -21 22 -27q22 -17 69 -21q3 0 10 -0.5t10 -0.5q55 0 136.5 22.5t155.5 63t93 83.5q14 30 0 66q-20 51 -113 97l-13 -5q-199 -83 -280 -135q-89 -57 -96 -109zM265 597q-1 4 24 34.5t32 35.5h3q3 0 6 -1h4
q-4 -6 -22.5 -36.5t-20.5 -33.5q-2 0 -13.5 0.5t-12.5 0.5z" />
    <glyph glyph-name="sacute" unicode="&#x15b;" horiz-adv-x="338" 
d="M-20 -152q-56 20 9 80q45 42 91 59q5 2 9 3q-14 25 -69 79q-39 39 -28 72q5 18 25.5 28t44.5 10q20 0 30 -5q17 -8 25 -28t0 -38q-1 -3 -8 -3q-7 2 -3 8v1q8 12 2 29t-20 23q-8 3 -21 3q-22 0 -39.5 -8t-19.5 -24q-3 -14 18 -39.5t50.5 -55t37.5 -44.5q9 3 33.5 10.5
t31.5 10t26 9.5t25.5 11.5t21.5 13t22.5 17t19 21t21.5 27t20 33.5q2 4 6 2t2 -6q-11 -21 -22.5 -37.5t-20.5 -28.5t-24 -23t-22.5 -17t-28.5 -14t-29.5 -11.5t-37 -13l-40.5 -13.5q3 -2 6.5 -24.5t1.5 -31.5q-3 -40 -35.5 -64t-73.5 -26q-22 0 -37 5zM94 -19
q-25 -4 -77 -44q-70 -53 -41 -71q3 -3 8 -4q11 -2 32 -2q33 3 59 23.5t27 51.5q3 21 -8 46zM42 210q-1 4 24 34.5t32 35.5h3h7l3 -1q-4 -6 -22.5 -36.5t-20.5 -33.5q-2 0 -13.5 0.5t-12.5 0.5z" />
    <glyph glyph-name="Scircumflex" unicode="&#x15c;" horiz-adv-x="698" 
d="M685 320q2 -5 -3 -8q-39 -18 -145 -59l-97 -38q111 -62 111 -144q0 -5 -2 -23q0 -1 -1 -4.5t-2 -5.5t-2.5 -6t-1.5 -5q-26 -50 -105 -92.5t-160.5 -63.5t-139.5 -21q-68 0 -104 27q-18 18 -26 34q-9 20 -6 43q5 36 41 70q73 73 347 184q-6 2 -22.5 9t-26.5 10
q-12 5 -36.5 13t-36.5 13q-160 51 -164 167q-2 45 25 81q48 64 154 64q32 0 66 -7.5t64.5 -29.5t32.5 -53q1 -21 -10 -41q-1 -4 -6 -4q-2 0 -3 1q-7 3 -3 9q10 18 7 34q-1 15 -15 30q-40 40 -125 40q-98 0 -142 -58q-21 -30 -19 -65q3 -96 147 -142q61 -21 74 -25
q56 -22 76 -32q210 83 251 101q1 1 3 1q4 0 5 -4zM518 104q-20 51 -113 97l-13 -5q-199 -83 -280 -135q-89 -57 -96 -109q-1 -18 6 -34q12 -21 22 -27q22 -17 69 -21q3 0 10 -0.5t10 -0.5q55 0 136.5 22.5t155.5 63t93 83.5q14 30 0 66zM319 599q-14 5 -27.5 25t-12.5 39
l-50 -54l-10 9l34 36l26 31l13 -6l35 -68z" />
    <glyph glyph-name="scircumflex" unicode="&#x15d;" horiz-adv-x="338" 
d="M341 153q4 -2 2 -6q-11 -21 -22.5 -37.5t-20.5 -28.5t-24 -23t-22.5 -17t-28.5 -14t-29.5 -11.5t-37 -13l-40.5 -13.5q3 -2 6.5 -24.5t1.5 -31.5q-3 -40 -35.5 -64t-73.5 -26q-22 0 -37 5q-56 20 9 80q45 42 91 59q5 2 9 3q-14 25 -69 79q-39 39 -28 72q5 18 25.5 28
t44.5 10q20 0 30 -5q17 -8 25 -28t0 -38q-1 -3 -8 -3q-7 2 -3 8v1q8 12 2 29t-20 23q-8 3 -21 3q-22 0 -39.5 -8t-19.5 -24q-3 -14 18 -39.5t50.5 -55t37.5 -44.5q9 3 33.5 10.5t31.5 10t26 9.5t25.5 11.5t21.5 13t22.5 17t19 21t21.5 27t20 33.5q2 4 6 2zM102 -65
q3 21 -8 46q-25 -4 -77 -44q-70 -53 -41 -71q3 -3 8 -4q11 -2 32 -2q33 3 59 23.5t27 51.5zM100 197q-14 5 -27.5 25t-12.5 39l-50 -54l-10 9l34 36l26 31l13 -6q2 -2 18.5 -33.5t16.5 -34.5z" />
    <glyph glyph-name="Scedilla" unicode="&#x15e;" horiz-adv-x="698" 
d="M685 320q2 -5 -3 -8q-39 -18 -145 -59l-97 -38q111 -62 111 -144q0 -5 -2 -23q0 -1 -1 -4.5t-2 -5.5t-2.5 -6t-1.5 -5q-26 -50 -105 -92.5t-160.5 -63.5t-139.5 -21q-68 0 -104 27q-18 18 -26 34q-9 20 -6 43q5 36 41 70q73 73 347 184q-6 2 -22.5 9t-26.5 10
q-12 5 -36.5 13t-36.5 13q-160 51 -164 167q-2 45 25 81q48 64 154 64q32 0 66 -7.5t64.5 -29.5t32.5 -53q1 -21 -10 -41q-1 -4 -6 -4q-2 0 -3 1q-7 3 -3 9q10 18 7 34q-1 15 -15 30q-40 40 -125 40q-98 0 -142 -58q-21 -30 -19 -65q3 -96 147 -142q61 -21 74 -25
q56 -22 76 -32q210 83 251 101q1 1 3 1q4 0 5 -4zM518 104q-20 51 -113 97l-13 -5q-199 -83 -280 -135q-89 -57 -96 -109q-1 -18 6 -34q12 -21 22 -27q22 -17 69 -21q3 0 10 -0.5t10 -0.5q55 0 136.5 22.5t155.5 63t93 83.5q14 30 0 66zM86 -249q6 -5 16 -5q22 0 34 25
q12 26 -9 33q-4 2 -10 2l10 44l11 -1l-9 -31q22 -6 29 -20t1 -27t-21 -23t-31 -10q-14 0 -24 6z" />
    <glyph glyph-name="scedilla" unicode="&#x15f;" horiz-adv-x="338" 
d="M335 151q2 4 6 2t2 -6q-11 -21 -22.5 -37.5t-20.5 -28.5t-24 -23t-22.5 -17t-28.5 -14t-29.5 -11.5t-37 -13l-40.5 -13.5q3 -2 6.5 -24.5t1.5 -31.5q-3 -41 -37.5 -65.5t-77.5 -24.5l-9 -31q22 -6 29 -20t1 -27t-21 -23t-31 -10q-14 0 -24 6l3 7q6 -5 16 -5q22 0 34 25
q12 26 -9 33q-4 2 -10 2l10 44q-14 2 -20 4q-56 20 9 80q45 42 91 59q5 2 9 3q-14 25 -69 79q-39 39 -28 72q5 18 25.5 28t44.5 10q20 0 30 -5q17 -8 25 -28t0 -38q-1 -3 -8 -3q-7 2 -3 8v1q8 12 2 29t-20 23q-8 3 -21 3q-22 0 -39.5 -8t-19.5 -24q-3 -14 18 -39.5t50.5 -55
t37.5 -44.5h1q9 3 33.5 10.5t31.5 10t25.5 9.5t25.5 11.5t21.5 13t22 17t19 21t21.5 27t20 33.5zM16 -140q33 3 59 23.5t27 51.5q3 21 -8 46q-25 -4 -77 -44q-70 -53 -41 -71q3 -3 8 -4q11 -2 32 -2z" />
    <glyph glyph-name="Scaron" unicode="&#x160;" horiz-adv-x="698" 
d="M685 320q2 -5 -3 -8q-39 -18 -145 -59l-97 -38q111 -62 111 -144q0 -5 -2 -23q0 -1 -1 -4.5t-2 -5.5t-2.5 -6t-1.5 -5q-26 -50 -105 -92.5t-160.5 -63.5t-139.5 -21q-68 0 -104 27q-18 18 -26 34q-9 20 -6 43q5 36 41 70q73 73 347 184q-6 2 -22.5 9t-26.5 10
q-12 5 -36.5 13t-36.5 13q-160 51 -164 167q-2 45 25 81q48 64 154 64q32 0 66 -7.5t64.5 -29.5t32.5 -53q1 -21 -10 -41q-1 -4 -6 -4q-2 0 -3 1q-7 3 -3 9q10 18 7 34q-1 15 -15 30q-40 40 -125 40q-98 0 -142 -58q-21 -30 -19 -65q3 -96 147 -142q61 -21 74 -25
q56 -22 76 -32q210 83 251 101q1 1 3 1q4 0 5 -4zM518 104q-20 51 -113 97l-13 -5q-199 -83 -280 -135q-89 -57 -96 -109q-1 -18 6 -34q12 -21 22 -27q22 -17 69 -21q3 0 10 -0.5t10 -0.5q55 0 136.5 22.5t155.5 63t93 83.5q14 30 0 66zM335 651l-7 12q-15 -6 -28.5 -25.5
t-12.5 -39.5l-50 54l-10 -9l34 -36l26 -31l13 6q2 2 18.5 34t16.5 35z" />
    <glyph glyph-name="scaron" unicode="&#x161;" horiz-adv-x="338" 
d="M341 153q4 -2 2 -6q-11 -21 -22.5 -37.5t-20.5 -28.5t-24 -23t-22.5 -17t-28.5 -14t-29.5 -11.5t-37 -13l-40.5 -13.5q3 -2 6.5 -24.5t1.5 -31.5q-3 -40 -35.5 -64t-73.5 -26q-22 0 -37 5q-56 20 9 80q45 42 91 59q5 2 9 3q-14 25 -69 79q-39 39 -28 72q5 18 25.5 28
t44.5 10q20 0 30 -5q17 -8 25 -28t0 -38q-1 -3 -8 -3q-7 2 -3 8v1q8 12 2 29t-20 23q-8 3 -21 3q-22 0 -39.5 -8t-19.5 -24q-3 -14 18 -39.5t50.5 -55t37.5 -44.5q9 3 33.5 10.5t31.5 10t26 9.5t25.5 11.5t21.5 13t22.5 17t19 21t21.5 27t20 33.5q2 4 6 2zM102 -65
q3 21 -8 46q-25 -4 -77 -44q-70 -53 -41 -71q3 -3 8 -4q11 -2 32 -2q33 3 59 23.5t27 51.5zM104 275l-7 12q-15 -6 -28.5 -25.5t-12.5 -39.5l-50 54l-10 -9l34 -36l26 -31l13 6q2 2 18.5 34t16.5 35z" />
    <glyph glyph-name="uni0162" unicode="&#x162;" horiz-adv-x="292" 
d="M376 638q3 2 6 -1q2 -2 0 -6q-57 -52 -110 -77t-121 -25q-48 0 -106 12q-17 -185 -17 -328q0 -279 77 -315q3 1 10 1q14 0 20 -8q5 0 15 2q4 1 6 -4q0 -5 -4 -5q-4 -1 -14 -3q1 -16 -19.5 -38.5t-36.5 -25.5l-2 8q12 2 28.5 18t21.5 30q-5 -4 -15 -4q-9 0 -15.5 5
t-6.5 10q0 3 1 5q-86 44 -93 324q-1 78 8 199q4 59 14 133q-123 28 -170 33q-31 4 -69 4q-54 0 -112 -11q-6 0 -7 4q0 5 4 7q66 18 136 18q33 0 50 -2q44 -4 171 -31q4 28 7 42q2 10 11 8t7 -10q-2 -30 -4 -44q60 -13 111 -13q118 0 218 88z" />
    <glyph glyph-name="uni0163" unicode="&#x163;" horiz-adv-x="389" 
d="M596 446q2 2 5 2t4 -1q5 -5 1 -8v-1q-22 -30 -34 -38q-60 -39 -186 -39q-24 0 -70.5 1.5t-66.5 1.5h-20q-112 -7 -183 -19q-22 -117 -22 -195q-2 -83 4 -134q8 -84 60 -102h2l2 -1h5q10 0 15 -4h7q97 9 267 242q2 4 6 2q1 -1 2 -3t0 -3q-134 -195 -239 -243
q-22 -8 -35 -9q1 -16 -19.5 -38.5t-36.5 -25.5l-2 8q12 2 28.5 18t21.5 30q-5 -4 -15 -4q-22 0 -22 18q-56 22 -71 111q-9 53 -9 138q0 68 27 191q-112 -21 -171 -55q-1 -1 -3 -1q-4 0 -5 3q-4 5 2 9q59 38 182 62q34 148 85 184q2 2 4 2q3 0 6 -3q4 -6 -2 -10
q-37 -29 -70 -168q113 20 209 20q19 0 65.5 -2t71.5 -2q114 0 167 33q14 9 33 33z" />
    <glyph glyph-name="Tcaron" unicode="&#x164;" horiz-adv-x="292" 
d="M382 637q2 -2 0 -6q-57 -52 -109 -77t-122 -25q-48 0 -106 12q-17 -185 -17 -328q0 -279 77 -315q13 -7 29 -7q6 0 16 2q4 1 6 -4q0 -5 -4 -5q-14 -4 -23 -4q-15 0 -29 6q-21 9 -38 30t-27 54.5t-17 61.5t-10.5 70.5t-4.5 60t-2 50.5q-1 78 8 199q4 59 14 133
q-123 28 -170 33q-31 4 -69 4q-54 0 -112 -11q-6 0 -7 4q0 5 4 7q66 18 136 18q33 0 50 -2q44 -4 171 -31q4 28 7 42q2 10 11 8t7 -10q-2 -30 -4 -44q60 -13 111 -13q118 0 218 88q3 2 6 -1zM89 733q0 -3 -16.5 -35t-18.5 -34l-13 -6l-26 31l-34 36l10 9l50 -54
q-1 20 12.5 39.5t28.5 25.5z" />
    <glyph glyph-name="tcaron" unicode="&#x165;" horiz-adv-x="585" 
d="M605 447q5 -5 1 -8v-1q-22 -30 -34 -38q-60 -39 -186 -39q-24 0 -70.5 1.5t-66.5 1.5h-20q-112 -7 -183 -19q-22 -117 -22 -195q-2 -83 4 -134q8 -84 60 -102q6 -2 7 -3q2 0 4.5 -0.5t3.5 -0.5q5 -1 16 -1q94 9 267 242q2 4 6 2q1 -1 2 -3t0 -3q-136 -196 -239 -243
q-22 -8 -35 -9q-3 -1 -9 -1t-10 1q-1 0 -4 0.5t-5 0.5l-9 3q-37 10 -57 45q-31 57 -31 206q0 68 27 191q-112 -21 -171 -55q-1 -1 -3 -1q-4 0 -5 3q-4 5 2 9q59 38 182 62q36 148 85 184q2 2 4 2q3 0 6 -3q4 -6 -2 -10q-39 -29 -70 -168q113 20 209 20q19 0 65.5 -2t71.5 -2
q114 0 167 33q14 9 33 33q2 2 5 2t4 -1zM191 515q1 -16 -19.5 -38.5t-36.5 -25.5l-2 8q12 2 28.5 18t21.5 30q-6 -3 -14 -3q-9 0 -15.5 4.5t-6.5 10.5q0 15 21 15q23 0 23 -19z" />
    <glyph glyph-name="Tbar" unicode="&#x166;" horiz-adv-x="252" 
d="M376 638q3 2 6 -1q2 -2 0 -6q-57 -52 -110 -77t-121 -25q-48 0 -106 12q-4 -47 -10 -131v-3l93 3q7 2 9 -8q0 -9 -9 -9l-94 -3q-6 -88 -6 -177q0 -279 77 -315q13 -7 29 -7q6 0 16 2q4 1 6 -4q0 -5 -4 -5q-14 -4 -23 -4q-120 0 -128 333q-1 70 6 176l-105 -4q-7 0 -9 9
q0 7 9 9l107 3v6q4 59 14 133q-123 28 -170 33q-31 4 -69 4q-54 0 -112 -11q-6 0 -7 4q0 5 4 7q66 18 136 18q33 0 50 -2q44 -4 171 -31q4 28 7 42q2 10 11 8t7 -10q-2 -30 -4 -44q60 -13 111 -13q118 0 218 88z" />
    <glyph glyph-name="tbar" unicode="&#x167;" horiz-adv-x="389" 
d="M596 446q2 2 5 2t4 -1q5 -5 1 -8v-1q-22 -30 -34 -38q-60 -39 -186 -39q-24 0 -70.5 1.5t-66.5 1.5h-20q-112 -7 -183 -19q-9 -45 -11 -62q-4 -28 -5 -42l108 3q7 2 9 -8q0 -9 -9 -9l-110 -4q-4 -48 -4 -73q-2 -83 4 -134q8 -84 60 -102q6 -2 7 -3q2 0 4.5 -0.5t3.5 -0.5
q5 -1 16 -1q97 9 267 242q2 4 6 2q1 -1 2 -3t0 -3q-134 -195 -239 -243q-22 -8 -35 -9q-3 -1 -9 -1t-10 1q-1 0 -4 0.5t-5 0.5l-9 3q-63 17 -79 113q-9 53 -9 138q0 24 4 72l-87 -3q-7 0 -9 9q0 7 9 9l90 3q2 16 8 48q2 11 6.5 30.5t5.5 22.5q-112 -21 -171 -55q-1 -1 -3 -1
q-4 0 -5 3q-4 5 2 9q59 38 182 62q34 148 85 184q2 2 4 2q3 0 6 -3q4 -6 -2 -10q-37 -29 -70 -168q113 20 209 20q19 0 65.5 -2t71.5 -2q114 0 167 33q14 9 33 33z" />
    <glyph glyph-name="Utilde" unicode="&#x168;" horiz-adv-x="820" 
d="M746 -180q6 0 7 -4q0 -6 -4 -7q-10 -2 -16 -2q-98 0 -163 215q-78 -162 -264 -176q-4 0 -14 -0.5t-14 -0.5q-72 0 -124.5 25t-83 72t-46.5 102.5t-21 126.5q-9 126 19 327q2 11 11 9t9 -11q-20 -198 -12 -323q5 -69 19.5 -121t43.5 -97t80 -68.5t123 -23.5q97 0 160 43.5
t109 133.5q-4 9 -5 16q-42 152 -51 324q-4 110 6 165q10 42 24 52q6 3 7 3q6 3 8 1q8 0 16 -6q1 -1 3.5 -5t4.5 -5q44 -69 50 -242q3 -85 -10 -164q-12 -72 -35 -129q9 -33 20 -64.5t30 -74t45 -68t55 -25.5q5 0 13 2zM530 381q9 -154 47 -310q18 50 28 110q11 74 8 161
q-9 169 -51 233l-8 8q-4 0 -8 -7q-6 -9 -12 -35q-9 -62 -4 -160zM259 647q-4 3 -10.5 9.5t-11.5 9.5t-11 3h-5q-17 -3 -36 -27l-9 4q25 32 59 32q27 0 45 -13q26 -22 38 -22t26 15l6 -8q-5 -6 -17 -11.5t-18 -5.5q-5 -2 -15 -2q-25 0 -41 16z" />
    <glyph glyph-name="utilde" unicode="&#x169;" horiz-adv-x="333" 
d="M337 154q1 0 1.5 -3t-0.5 -4q-32 -51 -76.5 -106t-78.5 -73q-14 -6 -16 -6q-1 0 -3 -0.5t-3 -0.5q-7 0 -14 4q-25 19 -25 79q-30 -44 -61 -69q-6 -4 -16 -7q-7 -3 -16 -3q-3 -1 -10 -1q-49 0 -49 72q4 44 32 119q2 6 8 6q3 0 4 -1q9 -2 5 -11v-1q-26 -63 -25 -113
q0 -33 13 -45q6 -5 21 -7q9 0 14 1q32 0 80 81q2 35 5 52q4 20 8 30q6 20 16 29q4 4 10 4q10 2 12 -8v-18q-1 -5 -9 -29q-16 -36 -25 -53q-1 -5 -1 -16q0 -33 8 -56q6 -25 22 -25q7 0 10 2q21 11 46 36q34 34 106 138q3 3 7 3zM148 143q-4 -13 -6 -28q0 -3 -1 -8.5t-1 -8.5
q5 10 13 30q7 23 8 28q2 9 0 12l-2 -2q-7 -6 -11 -23zM83 236q-4 3 -10.5 9.5t-11.5 9.5t-11 3h-5q-17 -3 -36 -27l-9 4q28 33 60 33q28 0 44 -14q28 -22 38 -22q12 0 26 15l6 -8q-5 -6 -17 -11.5t-18 -5.5q-5 -2 -15 -2q-25 0 -41 16z" />
    <glyph glyph-name="Umacron" unicode="&#x16a;" horiz-adv-x="820" 
d="M746 -180q6 0 7 -4q0 -6 -4 -7q-10 -2 -16 -2q-98 0 -163 215q-78 -162 -264 -176q-4 0 -14 -0.5t-14 -0.5q-72 0 -124.5 25t-83 72t-46.5 102.5t-21 126.5q-9 126 19 327q2 11 11 9t9 -11q-20 -198 -12 -323q5 -69 19.5 -121t43.5 -97t80 -68.5t123 -23.5q97 0 160 43.5
t109 133.5q-4 9 -5 16q-42 152 -51 324q-4 110 6 165q10 42 24 52q6 3 7 3q6 3 8 1q8 0 16 -6q1 -1 3.5 -5t4.5 -5q44 -69 50 -242q3 -85 -10 -164q-12 -72 -35 -129q9 -33 20 -64.5t30 -74t45 -68t55 -25.5q5 0 13 2zM530 381q9 -154 47 -310q18 50 28 110q11 74 8 161
q-9 169 -51 233l-8 8q-4 0 -8 -7q-6 -9 -12 -35q-9 -62 -4 -160zM209 629q0 -7 5 -7l117 8q5 0 5 7q0 4 -2 6t-4 1l-116 -7q-5 -2 -5 -8z" />
    <glyph glyph-name="umacron" unicode="&#x16b;" horiz-adv-x="333" 
d="M337 154q1 0 1.5 -3t-0.5 -4q-32 -51 -76.5 -106t-78.5 -73q-14 -6 -16 -6q-1 0 -3 -0.5t-3 -0.5q-7 0 -14 4q-25 19 -25 79q-30 -44 -61 -69q-6 -4 -16 -7q-7 -3 -16 -3q-3 -1 -10 -1q-49 0 -49 72q4 44 32 119q2 6 8 6q3 0 4 -1q9 -2 5 -11v-1q-26 -63 -25 -113
q0 -33 13 -45q6 -5 21 -7q9 0 14 1q32 0 80 81q2 35 5 52q4 20 8 30q6 20 16 29q4 4 10 4q10 2 12 -8v-18q-1 -5 -9 -29q-16 -36 -25 -53q-1 -5 -1 -16q0 -33 8 -56q6 -25 22 -25q7 0 10 2q21 11 46 36q34 34 106 138q3 3 7 3zM148 143q-4 -13 -6 -28q0 -3 -1 -8.5t-1 -8.5
q5 10 13 30q7 23 8 28q2 9 0 12l-2 -2q-7 -6 -11 -23zM29 212q0 -7 5 -7l117 8q5 0 5 7q0 4 -2 6t-4 1l-116 -7q-5 -2 -5 -8z" />
    <glyph glyph-name="Ubreve" unicode="&#x16c;" horiz-adv-x="820" 
d="M746 -180q6 0 7 -4q0 -6 -4 -7q-10 -2 -16 -2q-98 0 -163 215q-78 -162 -264 -176q-4 0 -14 -0.5t-14 -0.5q-72 0 -124.5 25t-83 72t-46.5 102.5t-21 126.5q-9 126 19 327q2 11 11 9t9 -11q-20 -198 -12 -323q5 -69 19.5 -121t43.5 -97t80 -68.5t123 -23.5q97 0 160 43.5
t109 133.5q-4 9 -5 16q-42 152 -51 324q-4 110 6 165q10 42 24 52q6 3 7 3q6 3 8 1q8 0 16 -6q1 -1 3.5 -5t4.5 -5q44 -69 50 -242q3 -85 -10 -164q-12 -72 -35 -129q9 -33 20 -64.5t30 -74t45 -68t55 -25.5q5 0 13 2zM530 381q9 -154 47 -310q18 50 28 110q11 74 8 161
q-9 169 -51 233l-8 8q-4 0 -8 -7q-6 -9 -12 -35q-9 -62 -4 -160zM255 674q28 -31 39 -31q13 0 28 25l11 -9q-19 -36 -49 -36q-17 0 -29 12.5t-12 32.5z" />
    <glyph glyph-name="ubreve" unicode="&#x16d;" horiz-adv-x="333" 
d="M337 154q1 0 1.5 -3t-0.5 -4q-32 -51 -76.5 -106t-78.5 -73q-14 -6 -16 -6q-1 0 -3 -0.5t-3 -0.5q-7 0 -14 4q-25 19 -25 79q-30 -44 -61 -69q-6 -4 -16 -7q-7 -3 -16 -3q-3 -1 -10 -1q-49 0 -49 72q4 44 32 119q2 6 8 6q3 0 4 -1q9 -2 5 -11v-1q-26 -63 -25 -113
q0 -33 13 -45q6 -5 21 -7q9 0 14 1q32 0 80 81q2 35 5 52q4 20 8 30q6 20 16 29q4 4 10 4q10 2 12 -8v-18q-1 -5 -9 -29q-16 -36 -25 -53q-1 -5 -1 -16q0 -33 8 -56q6 -25 22 -25q7 0 10 2q21 11 46 36q34 34 106 138q3 3 7 3zM148 143q-4 -13 -6 -28q0 -3 -1 -8.5t-1 -8.5
q5 10 13 30q7 23 8 28q2 9 0 12l-2 -2q-7 -6 -11 -23zM55 263q28 -31 39 -31q13 0 28 25l11 -9q-19 -36 -49 -36q-17 0 -29 12.5t-12 32.5z" />
    <glyph glyph-name="Uring" unicode="&#x16e;" horiz-adv-x="820" 
d="M746 -180q6 0 7 -4q0 -6 -4 -7q-10 -2 -16 -2q-98 0 -163 215q-78 -162 -264 -176q-4 0 -14 -0.5t-14 -0.5q-72 0 -124.5 25t-83 72t-46.5 102.5t-21 126.5q-9 126 19 327q2 11 11 9t9 -11q-20 -198 -12 -323q5 -69 19.5 -121t43.5 -97t80 -68.5t123 -23.5q97 0 160 43.5
t109 133.5q-4 9 -5 16q-42 152 -51 324q-4 110 6 165q10 42 24 52q6 3 7 3q6 3 8 1q8 0 16 -6q1 -1 3.5 -5t4.5 -5q44 -69 50 -242q3 -85 -10 -164q-12 -72 -35 -129q9 -33 20 -64.5t30 -74t45 -68t55 -25.5q5 0 13 2zM530 381q9 -154 47 -310q18 50 28 110q11 74 8 161
q-9 169 -51 233l-8 8q-4 0 -8 -7q-6 -9 -12 -35q-9 -62 -4 -160zM333 646q-4 -31 -36 -31q-20 0 -30 14t2 40q10 19 32 19q15 0 25.5 -11.5t6.5 -30.5zM320 651q1 21 -19 21q-16 0 -22 -14q-6 -13 0 -21t18 -8q22 0 23 22z" />
    <glyph glyph-name="uring" unicode="&#x16f;" horiz-adv-x="333" 
d="M337 154q1 0 1.5 -3t-0.5 -4q-32 -51 -76.5 -106t-78.5 -73q-14 -6 -16 -6q-1 0 -3 -0.5t-3 -0.5q-7 0 -14 4q-25 19 -25 79q-30 -44 -61 -69q-6 -4 -16 -7q-7 -3 -16 -3q-3 -1 -10 -1q-49 0 -49 72q4 44 32 119q2 6 8 6q3 0 4 -1q9 -2 5 -11v-1q-26 -63 -25 -113
q0 -33 13 -45q6 -5 21 -7q9 0 14 1q32 0 80 81q2 35 5 52q4 20 8 30q6 20 16 29q4 4 10 4q10 2 12 -8v-18q-1 -5 -9 -29q-16 -36 -25 -53q-1 -5 -1 -16q0 -33 8 -56q6 -25 22 -25q7 0 10 2q21 11 46 36q34 34 106 138q3 3 7 3zM148 143q-4 -13 -6 -28q0 -3 -1 -8.5t-1 -8.5
q5 10 13 30q7 23 8 28q2 9 0 12l-2 -2q-7 -6 -11 -23zM123 240q-4 -31 -36 -31q-20 0 -30 14t2 40q10 19 32 19q15 0 25.5 -11.5t6.5 -30.5zM110 245q1 21 -19 21q-16 0 -22 -14q-6 -13 0 -21t18 -8q22 0 23 22z" />
    <glyph glyph-name="Uhungarumlaut" unicode="&#x170;" horiz-adv-x="820" 
d="M583 50q8 -32 19 -63.5t30 -74t45.5 -68.5t55.5 -26q5 0 13 2q6 0 7 -4q0 -6 -4 -7q-10 -2 -16 -2q-94 0 -163 215v-1q-78 -161 -264 -175q-4 0 -14 -0.5t-14 -0.5q-253 0 -275 326q-9 126 19 327q2 11 11 9t9 -11q-20 -198 -12 -323q5 -71 20 -124.5t44.5 -97t80 -66
t121.5 -22.5q96 0 160 44t109 133q-4 9 -5 16q-42 152 -51 324q-4 110 6 165q10 42 24 52q6 3 7 3q6 3 8 1q8 0 16 -6q1 -1 3.5 -5t4.5 -5q44 -69 50 -242q3 -85 -10 -164q-12 -72 -35 -129zM530 381q9 -154 47 -310q18 50 28 110q11 74 8 161q-9 169 -51 233l-8 8
q-4 0 -8 -7q-6 -9 -12 -35q-9 -62 -4 -160zM340 598q-1 4 22.5 32.5t32.5 37.5h3h6l4 -1l-41 -70q-3 0 -14.5 0.5t-12.5 0.5zM270 598q-1 4 22.5 32.5t32.5 37.5h3h6l4 -1l-41 -70q-3 0 -14.5 0.5t-12.5 0.5z" />
    <glyph glyph-name="uhungarumlaut" unicode="&#x171;" horiz-adv-x="333" 
d="M330 151q3 3 7 3q1 0 1.5 -3t-0.5 -4q-32 -51 -76.5 -106t-78.5 -73q-14 -6 -16 -6q-1 0 -3 -0.5t-3 -0.5q-7 0 -14 4q-25 19 -25 79q-30 -44 -61 -69q-6 -4 -16 -7q-7 -3 -16 -3q-3 -1 -10 -1q-49 0 -49 72q4 44 32 119q2 6 8 6q3 0 4 -1q9 -2 5 -11v-1
q-26 -63 -25 -113q0 -33 13 -45q6 -5 21 -7q9 0 14 1q18 0 41.5 27.5t38.5 53.5q2 35 5 52q4 20 8 30q6 20 16 29q4 4 10 4q10 2 12 -8v-18q-1 -5 -9 -29q-16 -36 -25 -53q-1 -5 -1 -16q0 -33 8 -56q6 -25 22 -25q7 0 10 2q21 11 46 36q34 34 106 138zM26 210
q-1 4 22.5 32.5t32.5 37.5h3h6l4 -1l-41 -70q-3 0 -14.5 0.5t-12.5 0.5zM96 210q-1 4 22.5 32.5t32.5 37.5h3h6l4 -1l-41 -70q-3 0 -14.5 0.5t-12.5 0.5zM159 166q-7 -6 -11 -23q-4 -13 -6 -28q0 -3 -1 -8.5t-1 -8.5q5 10 13 30q7 23 8 28q2 9 0 12h-1v-1z" />
    <glyph glyph-name="Uogonek" unicode="&#x172;" horiz-adv-x="820" 
d="M583 50q8 -32 19 -63.5t30 -74t45.5 -68.5t55.5 -26q5 0 13 2q6 0 7 -4q0 -6 -4 -7q-10 -2 -16 -2q-94 0 -163 215v-1q-78 -161 -264 -175q-4 0 -13 -0.5t-13 -0.5q-12 0 -36 2l9 -42q-26 -1 -22 -24.5t25 -33.5q6 -2 12 -2q10 0 16 5l3 -7q-10 -6 -24 -6q-16 0 -31 10
t-21 23t1 27t29 20l-9 31q-2 0 -5.5 0.5t-4.5 0.5q-199 35 -219 322q-9 126 19 327q2 11 11 9t9 -11q-20 -198 -12 -323q5 -71 20 -124.5t44.5 -97t80 -66t121.5 -22.5q96 0 160 44t109 133q-4 9 -5 16q-42 152 -51 324q-4 110 6 165q10 42 24 52q6 3 7 3q6 3 8 1q8 0 16 -6
q1 -1 3.5 -5t4.5 -5q44 -69 50 -242q3 -85 -10 -164q-12 -72 -35 -129zM530 381q9 -154 47 -310q18 50 28 110q11 74 8 161q-9 169 -51 233l-8 8q-4 0 -8 -7q-6 -9 -12 -35q-9 -62 -4 -160z" />
    <glyph glyph-name="uogonek" unicode="&#x173;" horiz-adv-x="333" 
d="M330 151q3 3 7 3q1 0 1.5 -3t-0.5 -4q-32 -51 -76.5 -106t-78.5 -73q-14 -6 -16 -6q-1 0 -3 -0.5t-3 -0.5q-7 0 -14 4q-25 19 -25 79q-30 -44 -61 -69q-10 -7 -26 -10l9 -38q-26 -1 -22 -24.5t25 -33.5q6 -2 12 -2q10 0 16 5l3 -7q-10 -6 -24 -6q-16 0 -31 10t-21 23
t1 27t29 20l-7 25q-55 0 -55 72q4 44 32 119q2 6 8 6q3 0 4 -1q9 -2 5 -11v-1q-26 -63 -25 -113q0 -33 13 -45q6 -5 21 -7q9 0 14 1q18 0 41.5 27.5t38.5 53.5q2 35 5 52q4 20 8 30q6 20 16 29q4 4 10 4q10 2 12 -8v-18q-1 -5 -9 -29q-16 -36 -25 -53q-1 -5 -1 -16
q0 -33 8 -56q6 -25 22 -25q7 0 10 2q21 11 46 36q34 34 106 138zM159 166q-7 -6 -11 -23q-4 -13 -6 -28q0 -3 -1 -8.5t-1 -8.5q5 10 13 30q7 23 8 28q2 9 0 12h-1v-1z" />
    <glyph glyph-name="Wcircumflex" unicode="&#x174;" horiz-adv-x="823" 
d="M717 454q4 0 6 -4q0 -6 -4 -6v-1q-81 -15 -132 -17q58 -97 88 -202q35 -131 7 -231q-20 -67 -74.5 -116t-121.5 -49q-48 0 -87 24q-1 1 -3.5 2.5t-4.5 3t-4 3.5l-12 9q-88 76 -109 186q-10 -53 -46 -128q-11 -24 -39 -49q-27 -21 -59 -25q-5 -1 -14 -1q-49 0 -77.5 38.5
t-28.5 89.5q-1 27 2 62q10 97 53 236q31 106 33 115q4 7 11 7h2q9 -2 7 -12q-9 -38 -30 -115t-30 -117q-14 -62 -20 -117q-6 -79 8 -112q21 -54 82 -54q27 2 51.5 18.5t36.5 41.5q37 68 53 165q0 34 7 65v1q2 9 12 7q8 -2 8 -10v-1q-1 -1 -1 -2v-2l-3 -28q-7 -92 52 -178
q19 -25 35 -43q3 -3 10 -9.5t10 -9.5l3 -2v-1h1l7 -5q3 -3 11 -7q35 -22 74 -22q59 0 108.5 43.5t69.5 102.5q30 94 -3 222q-27 105 -89 206q-140 0 -185 63q-21 28 -15 58q2 16 14 28.5t28 13.5q21 0 31 -6q34 -15 67 -56q34 -37 68 -91q52 1 136 18zM396 495
q28 -38 95 -53q37 -6 76 -6q-46 75 -102 123q-27 20 -49 20q-12 -1 -21.5 -11t-11.5 -23q-5 -27 13 -50zM318 602q-14 5 -27.5 25t-12.5 39l-50 -54l-10 9l34 36l26 31l13 -6q2 -2 18.5 -33.5t16.5 -34.5z" />
    <glyph glyph-name="wcircumflex" unicode="&#x175;" horiz-adv-x="414" 
d="M416 154q4 -2 3 -5q-21 -35 -37.5 -57.5t-47.5 -45t-63 -22.5q-22 0 -52 14q-21 -50 -75 -50q-27 0 -50 14.5t-36 38.5q0 -23 -20.5 -44.5t-44.5 -24.5h-7q-24 0 -34 20t-8.5 44t9.5 47q22 51 47 73q1 1 4 1t4 -2q4 -4 0 -8q-25 -23 -40 -69q-5 -16 -7.5 -32t4 -33.5
t26.5 -17.5q28 0 42.5 23.5t15.5 60.5q0 7 5 4q5 0 5 -4q8 -31 31.5 -51t55.5 -20q20 0 36 11t22 29q-29 21 -56.5 61.5t-42.5 78.5q-1 3 1.5 4.5t7.5 1.5q33 0 63.5 -36t41.5 -72q6 -23 2 -39q28 -15 50 -15q68 0 140 121q1 1 2.5 1.5t2.5 -0.5zM114 189q39 -89 91 -131
q0 38 -28 81t-63 50zM94 217q-14 5 -27.5 25t-12.5 39l-50 -54l-10 9l34 36l26 31l13 -6q2 -2 18.5 -33.5t16.5 -34.5z" />
    <glyph glyph-name="Ycircumflex" unicode="&#x176;" horiz-adv-x="521" 
d="M541 161q3 -3 0 -7q-1 -1 -4 -1q-2 0 -3 1q-44 53 -113 67q-18 5 -57 7q11 -100 5 -196q-11 -161 -78 -228q-44 -57 -107.5 -94t-129.5 -37q-46 0 -87.5 23t-63.5 62q-35 61 -20 138q10 63 57 126q65 89 178 150t222 67q-19 142 -46 267q-1 -5 -2.5 -13.5t-1.5 -12.5
q-9 -42 -23 -81.5t-37 -80t-58 -65t-77 -24.5q-77 0 -92 78q-6 41 4 94q6 30 26 88q3 7 10 7h1l2 -1q10 -4 6 -13q-15 -41 -24 -86q-11 -52 -5 -86q7 -49 46 -58q13 -4 31 -4q50 0 90.5 41t61 91.5t27.5 100.5q7 55 -2 87v1q-1 6 4 11q3 3 8 3q6 0 9 -8q52 -191 65 -336
q116 0 178 -78zM345 34q6 90 -4 193q-88 -5 -184.5 -49.5t-171.5 -121.5t-88 -163q-12 -74 19 -127q43 -74 137 -74q104 0 199 101q80 75 93 241zM187 575q-14 5 -27.5 25t-12.5 39l-50 -54l-10 9l34 36l26 31l13 -6q2 -2 18.5 -33.5t16.5 -34.5z" />
    <glyph glyph-name="ycircumflex" unicode="&#x177;" horiz-adv-x="404" 
d="M408 154q3 -1 1 -7q-72 -110 -181 -200q-3 -3 -11 -9q1 -6 3 -20q19 -155 5 -270q-17 -123 -76 -191q-97 -118 -213 -118q-64 0 -109 41t-49 105q-5 71 29 132q42 79 198 182q136 91 190 133q-17 132 -42 233q-87 -183 -158 -183q-11 0 -20 4q-18 7 -22 26q-3 17 0 32
q7 40 43 106q2 5 8 5q3 0 5 -1q9 -6 4 -13q-34 -63 -42 -100q-6 -33 11 -39q8 -3 17 -3q42 0 101 89q13 21 52 97q1 2 2 3q2 1 3 2h1q10 2 12 -7q29 -115 46 -234q1 1 3 2.5t3 2.5q107 89 179 197zM197 -85q0 5 -1 7q-50 -39 -186 -132q-77 -54 -107 -79q-61 -53 -86 -99
q-32 -60 -27 -126q4 -57 42.5 -92.5t95.5 -35.5q79 0 157 69q52 46 78.5 98.5t35.5 125.5q14 109 -2 264zM119 214q-14 5 -27.5 25t-12.5 39l-50 -54l-10 9l34 36l26 31l13 -6q2 -2 18.5 -33.5t16.5 -34.5z" />
    <glyph glyph-name="Ydieresis" unicode="&#x178;" horiz-adv-x="521" 
d="M541 161q3 -3 0 -7q-1 -1 -4 -1q-2 0 -3 1q-44 53 -113 67q-18 5 -57 7q11 -100 5 -196q-11 -161 -78 -228q-44 -57 -107.5 -94t-129.5 -37q-46 0 -87.5 23t-63.5 62q-35 61 -20 138q10 63 57 126q65 89 178 150t222 67q-19 142 -46 267q-1 -5 -2.5 -13.5t-1.5 -12.5
q-9 -42 -23 -81.5t-37 -80t-58 -65t-77 -24.5q-77 0 -92 78q-6 41 4 94q6 30 26 88q3 7 10 7h1l2 -1q10 -4 6 -13q-15 -41 -24 -86q-11 -52 -5 -86q7 -49 46 -58q13 -4 31 -4q50 0 90.5 41t61 91.5t27.5 100.5q7 55 -2 87v1q-1 6 4 11q3 3 8 3q6 0 9 -8q52 -191 65 -336
q116 0 178 -78zM345 34q6 90 -4 193q-88 -5 -184.5 -49.5t-171.5 -121.5t-88 -163q-12 -74 19 -127q43 -74 137 -74q104 0 199 101q80 75 93 241zM114 621q18 0 18 -17q0 -8 -5 -13t-13 -5q-17 0 -17 18q0 17 17 17zM186 615q7 0 12 -5.5t5 -12.5t-5 -12t-12 -5t-12.5 5
t-5.5 12t5.5 12.5t12.5 5.5z" />
    <glyph glyph-name="Zacute" unicode="&#x179;" horiz-adv-x="760" 
d="M-11 486q-2 9 8 11q24 4 120.5 18.5t148.5 21.5q138 17 222 17q74 0 120 -13q39 -14 54 -44l2 -6v-4q2 -15 -9 -41q-31 -57 -121 -122.5t-175 -109.5q-155 -82 -231 -138q-68 -51 -92 -92q-17 -30 -3 -51q3 -6 8 -11l3 -2l3 -3q2 -1 5 -4q13 -7 28 -11q41 -10 131 -14
q45 -1 135 -1q143 0 269 17q10 2 12 -9q2 -12 -9 -12q-142 -20 -362 -20h-46q-91 2 -137 14q-19 5 -35 14l-9 6l-6 6q-7 7 -13 16q-12 18 -9 41q6 40 59 91q26 21 55 43q54 38 235 136q69 37 146 94.5t118 107.5l17 26q7 17 6 25q-1 21 -38 32q-42 15 -134 15
q-76 0 -197 -13q-102 -11 -268 -39q-9 -2 -11 8zM289 588q-1 4 24 34.5t32 35.5h3h6l4 -1q-4 -6 -22.5 -36.5t-20.5 -33.5q-2 0 -13.5 0.5t-12.5 0.5z" />
    <glyph glyph-name="zacute" unicode="&#x17a;" horiz-adv-x="387" 
d="M-13 -40q-3 6 -3 7v6q0 2 0.5 3.5t1.5 3t1 2.5q2 5 8 13q9 12 39 42q28 25 86 71q4 3 11 8.5t10 8.5l9 9q3 2 3 3v1l-4 4q-27 9 -73 9q-41 0 -73 -4q-5 0 -5 4q-2 6 4 6q49 8 111 8q25 0 44 -8q11 -7 14 -16l1 -2v-3q0 -3 -1 -5t-1 -3q-2 -3 -6 -7q-3 -4 -10 -11
q-4 -3 -11 -9.5t-10 -9.5l-85 -70q-31 -28 -38 -37q-1 -1 -7 -10q-1 0 -1 -2t-1 -2q3 -2 7 -4q2 0 6 -1.5t6 -2.5q24 -4 57 -4q59 0 102.5 11t79.5 38.5t62.5 58.5t63.5 85q1 1 3.5 2t3.5 0t1 -6q-37 -54 -65 -87t-66.5 -62.5t-84.5 -42.5t-106 -13q-24 0 -54 5q-3 0 -8 1.5
t-6 1.5q-11 5 -16 10zM56 199q-1 4 24 34.5t32 35.5h3q3 0 7 -1h3q-4 -6 -22.5 -36.5t-20.5 -33.5q-2 0 -13.5 0.5t-12.5 0.5z" />
    <glyph glyph-name="Zdotaccent" unicode="&#x17b;" horiz-adv-x="760" 
d="M664 487q2 -15 -9 -41q-31 -57 -121 -122.5t-175 -109.5q-155 -82 -231 -138q-68 -51 -92 -92q-17 -30 -3 -51q3 -6 8 -11l3 -2l3 -3q2 -1 5 -4q13 -7 28 -11q41 -10 131 -14q45 -1 135 -1q143 0 269 17q10 2 12 -9q2 -12 -9 -12q-142 -20 -408 -20q-91 2 -137 14
q-19 5 -35 14l-9 6l-6 6q-7 7 -13 16q-12 18 -9 41q6 40 59 91q26 21 55 43q54 38 235 136q69 37 146 94.5t118 107.5l17 26q7 17 6 25q-1 21 -38 32q-42 15 -134 15q-76 0 -197 -13q-102 -11 -268 -39q-9 -2 -11 8q-2 9 8 11q24 4 120.5 18.5t148.5 21.5q138 17 222 17
q74 0 120 -13q39 -14 54 -44l2 -6v-4zM308 622q7 0 13 -5t6 -13t-6 -13.5t-13 -5.5q-8 0 -13.5 5.5t-5.5 13.5q0 18 19 18z" />
    <glyph glyph-name="zdotaccent" unicode="&#x17c;" horiz-adv-x="387" 
d="M392 153q1 -1 1 -6q-37 -54 -65 -87t-66.5 -62.5t-84.5 -42.5t-106 -13q-24 0 -54 5q-3 0 -8 1.5t-6 1.5q-11 5 -16 10q-3 6 -3 7v3v1v2q0 2 0.5 3.5t1.5 3t1 2.5q2 5 8 13q9 12 39 42q28 25 86 71q4 3 11 8.5t10 8.5l9 9q3 2 3 3v1l-4 4q-27 9 -73 9q-41 0 -73 -4
q-5 0 -5 4q-2 6 4 6q49 8 111 8q25 0 44 -8q11 -7 14 -16l1 -2v-3q0 -3 -1 -5t-1 -3q-2 -3 -6 -7q-3 -4 -10 -11q-4 -3 -11 -9.5t-10 -9.5l-85 -70q-31 -28 -38 -37q-1 -1 -7 -10q-1 0 -1 -2t-1 -2q3 -2 7 -4q2 0 6 -1.5t6 -2.5q24 -4 57 -4q59 0 102.5 11t79.5 38.5
t62.5 58.5t63.5 85q1 1 3.5 2t3.5 0zM82 240q7 0 13 -5t6 -13t-6 -13.5t-13 -5.5q-8 0 -13.5 5.5t-5.5 13.5q0 18 19 18z" />
    <glyph glyph-name="Zcaron" unicode="&#x17d;" horiz-adv-x="760" 
d="M664 487q2 -15 -9 -41q-31 -57 -121 -122.5t-175 -109.5q-155 -82 -231 -138q-68 -51 -92 -92q-17 -30 -3 -51q3 -6 8 -11l3 -2l3 -3q2 -1 5 -4q13 -7 28 -11q41 -10 131 -14q45 -1 135 -1q143 0 269 17q10 2 12 -9q2 -12 -9 -12q-142 -20 -408 -20q-91 2 -137 14
q-19 5 -35 14l-9 6l-6 6q-7 7 -13 16q-12 18 -9 41q6 40 59 91q26 21 55 43q54 38 235 136q69 37 146 94.5t118 107.5l17 26q7 17 6 25q-1 21 -38 32q-42 15 -134 15q-76 0 -197 -13q-102 -11 -268 -39q-9 -2 -11 8q-2 9 8 11q24 4 120.5 18.5t148.5 21.5q138 17 222 17
q74 0 120 -13q39 -14 54 -44l2 -6v-4zM373 639l-7 12q-15 -6 -28.5 -25.5t-12.5 -39.5l-50 54l-10 -9l34 -36l26 -31l13 6q2 2 18.5 34t16.5 35z" />
    <glyph glyph-name="zcaron" unicode="&#x17e;" horiz-adv-x="387" 
d="M392 153q1 -1 1 -6q-37 -54 -65 -87t-66.5 -62.5t-84.5 -42.5t-106 -13q-24 0 -54 5q-3 0 -8 1.5t-6 1.5q-11 5 -16 10q-3 6 -3 7v3v1v2q0 2 0.5 3.5t1.5 3t1 2.5q2 5 8 13q9 12 39 42q28 25 86 71q4 3 11 8.5t10 8.5l9 9q3 2 3 3v1l-4 4q-27 9 -73 9q-41 0 -73 -4
q-5 0 -5 4q-2 6 4 6q49 8 111 8q25 0 44 -8q11 -7 14 -16l1 -2v-3q0 -3 -1 -5t-1 -3q-2 -3 -6 -7q-3 -4 -10 -11q-4 -3 -11 -9.5t-10 -9.5l-85 -70q-31 -28 -38 -37q-1 -1 -7 -10q-1 0 -1 -2t-1 -2q3 -2 7 -4q2 0 6 -1.5t6 -2.5q24 -4 57 -4q59 0 102.5 11t79.5 38.5
t62.5 58.5t63.5 85q1 1 3.5 2t3.5 0zM125 264l-7 12q-15 -6 -28.5 -25.5t-12.5 -39.5l-50 54l-10 -9l34 -36l26 -31l13 6q2 2 18.5 34t16.5 35z" />
    <glyph glyph-name="longs" unicode="&#x17f;" horiz-adv-x="266" 
d="M270 153l1 -6l-90 -122q-72 -96 -141 -142q-2 -49 -13 -107t-32.5 -119t-60 -101t-87.5 -40q-33 0 -56 20.5t-29 53.5q-7 38 10 79q36 89 168 162q50 28 73 44q1 42 0 84q-2 123 -16 214q-81 -10 -139 -56q-4 -2 -5 -2q-3 0 -6 3q-4 6 1 10q61 54 145 63q-9 37 -15 75
q-12 91 -6 158q5 66 33 115q24 33 48 33q5 0 7 -1q13 -3 20 -12q12 -11 20 -36q10 -33 8 -80q-3 -109 -66 -245q2 1 4 1q65 9 100 27.5t65 69.5q1 4 7 4q2 0 3 -1q6 -3 3 -10q-27 -54 -68 -77.5t-107 -31.5q-3 0 -8.5 -1t-8.5 -1q-5 -11 -7 -13q13 -74 15 -206q2 -33 0 -66
q2 1 13 9.5t16 13.5q46 36 105 114l89 121q2 4 7 2zM3 270q4 -25 16 -75q8 2 13 2q61 133 64 247q2 42 -8 75q-8 21 -18 30q-8 8 -18 8q-6 0 -9 -2q-43 -21 -52 -133q-4 -71 12 -152zM-115 -460q112 59 128 324q-31 -21 -68 -42q-129 -72 -162 -157q-16 -38 -9 -73
q5 -28 24.5 -45t46.5 -17q23 0 40 10z" />
    <glyph glyph-name="uni018F" unicode="&#x18f;" horiz-adv-x="348" 
d="M-1 134q-3 3 -1 11q63 184 93 244q21 42 44 75q35 49 77 49q27 0 56 -25q44 -48 49 -147q5 -103 -23 -216q-8 -30 -24 -73t-30 -57q-8 -10 -20 -10q-6 0 -14 6q-14 16 -14 62q0 97 62 240q6 13 18.5 34t14.5 25q-5 65 -30 90q-3 3 -21 18q-20 13 -35 13q-4 0 -12 -2
q-88 -28 -182 -333q0 -2 -2 -3.5t-3.5 -1.5t-2.5 1zM248 59q41 107 41 245q-30 -44 -55 -121.5t-25 -129.5q0 -25 6 -29q1 -3 5 -3q13 0 28 38z" />
    <glyph glyph-name="uni019D" unicode="&#x19d;" horiz-adv-x="515" 
d="M-207 -162q-2 6 7 8l99 4q0 1 3 4q108 89 108 356q-80 131 -100 209q-5 27 -3 37q2 14 9 21q4 5 10 8q6 2 12 2q18 1 37 -20q51 -66 61 -238q0 -6 0.5 -18.5t0.5 -19.5q147 -237 246 -303q14 -10 27 -12q13 -1 24.5 8.5t16.5 24.5q16 42 12 131q-15 222 -108 464
q-20 45 -30 57h-1q-7 11 2 18q3 3 8 3q6 0 10 -4q15 -18 36 -63q98 -239 108 -474q2 -39 -1 -70q-6 -48 -16 -71q-12 -22 -26 -32.5t-37 -10.5q-11 2 -36 16q-107 84 -235 294q-11 -244 -119 -333q-4 -3 -9 -3q-6 0 -9 5l-100 -5q-7 0 -7 7zM-74 454q-2 -9 2 -31
q16 -69 81 -185q-8 159 -50 216q-11 14 -20 14q-12 -1 -13 -14zM-101 -150q-5 -8 1 -14q7 0 7 7q0 9 -8 7z" />
    </font>
</defs>
</svg>
